<svg xmlns="http://www.w3.org/2000/svg" xmlns:xlink="http://www.w3.org/1999/xlink" width="500" zoomAndPan="magnify" viewBox="0 0 375 1079.999946" height="1440" preserveAspectRatio="xMidYMid meet" version="1.0"><defs><clipPath id="0fbcd59606"><path d="M 66 670.4375 L 203 670.4375 L 203 807 L 66 807 Z M 66 670.4375 " clip-rule="nonzero"/></clipPath><clipPath id="d7d51b0f41"><path d="M 0 670.4375 L 67 670.4375 L 67 807 L 0 807 Z M 0 670.4375 " clip-rule="nonzero"/></clipPath><clipPath id="e09f8f6f37"><path d="M 202 670.4375 L 339 670.4375 L 339 807 L 202 807 Z M 202 670.4375 " clip-rule="nonzero"/></clipPath><clipPath id="00a72eb9a4"><path d="M 0 0 L 53 0 L 53 125.246094 L 0 125.246094 Z M 0 0 " clip-rule="nonzero"/></clipPath><clipPath id="93331b6350"><path d="M 189 0 L 326 0 L 326 125.246094 L 189 125.246094 Z M 189 0 " clip-rule="nonzero"/></clipPath><clipPath id="176ed5bbc8"><path d="M 52 0 L 190 0 L 190 125.246094 L 52 125.246094 Z M 52 0 " clip-rule="nonzero"/></clipPath><clipPath id="49bf83a94f"><path d="M 0 534 L 103 534 L 103 670.4375 L 0 670.4375 Z M 0 534 " clip-rule="nonzero"/></clipPath><clipPath id="d68b237b7f"><path d="M 102 534 L 239 534 L 239 670.4375 L 102 670.4375 Z M 102 534 " clip-rule="nonzero"/></clipPath><clipPath id="3c22713376"><path d="M 102 125.246094 L 239 125.246094 L 239 262 L 102 262 Z M 102 125.246094 " clip-rule="nonzero"/></clipPath><clipPath id="1be144ce19"><path d="M 238 125.246094 L 375 125.246094 L 375 262 L 238 262 Z M 238 125.246094 " clip-rule="nonzero"/></clipPath><clipPath id="2828564a1b"><path d="M 238 534 L 375 534 L 375 670.4375 L 238 670.4375 Z M 238 534 " clip-rule="nonzero"/></clipPath><clipPath id="95d6e86065"><path d="M 0 125.246094 L 103 125.246094 L 103 262 L 0 262 Z M 0 125.246094 " clip-rule="nonzero"/></clipPath></defs><g clip-path="url(#0fbcd59606)"><path fill="#008575" d="M 66.277344 806.734375 C 141.550781 806.734375 202.574219 745.710938 202.574219 670.4375 L 66.277344 670.4375 L 66.277344 806.734375 " fill-opacity="1" fill-rule="nonzero"/></g><g clip-path="url(#d7d51b0f41)"><path fill="#ffffff" d="M -1.871094 806.734375 C -39.511719 806.734375 -70.019531 776.222656 -70.019531 738.585938 C -70.019531 700.945312 -39.511719 670.4375 -1.871094 670.4375 C 35.769531 670.4375 66.277344 700.945312 66.277344 738.585938 C 66.277344 776.222656 35.769531 806.734375 -1.871094 806.734375 " fill-opacity="1" fill-rule="nonzero"/></g><g clip-path="url(#e09f8f6f37)"><path fill="#efdbdd" d="M 270.722656 806.734375 C 233.085938 806.734375 202.574219 776.222656 202.574219 738.585938 C 202.574219 700.945312 233.085938 670.4375 270.722656 670.4375 C 308.363281 670.4375 338.871094 700.945312 338.871094 738.585938 C 338.871094 776.222656 308.363281 806.734375 270.722656 806.734375 " fill-opacity="1" fill-rule="nonzero"/></g><path fill="#c5dfe1" d="M 270.722656 1215.625 C 233.085938 1215.625 202.574219 1185.117188 202.574219 1147.476562 C 202.574219 1109.835938 233.085938 1079.328125 270.722656 1079.328125 C 308.363281 1079.328125 338.871094 1109.835938 338.871094 1147.476562 C 338.871094 1185.117188 308.363281 1215.625 270.722656 1215.625 " fill-opacity="1" fill-rule="nonzero"/><path fill="#008575" d="M -1.871094 1079.328125 C -39.511719 1079.328125 -70.019531 1048.820312 -70.019531 1011.179688 C -70.019531 973.539062 -39.511719 943.03125 -1.871094 943.03125 C 35.769531 943.03125 66.277344 973.539062 66.277344 1011.179688 C 66.277344 1048.820312 35.769531 1079.328125 -1.871094 1079.328125 " fill-opacity="1" fill-rule="nonzero"/><path fill="#c5dfe1" d="M -70.019531 1079.328125 C 5.253906 1079.328125 66.277344 1140.351562 66.277344 1215.625 L -70.019531 1215.625 L -70.019531 1079.328125 " fill-opacity="1" fill-rule="nonzero"/><path fill="#c5dfe1" d="M 202.574219 806.734375 C 277.847656 806.734375 338.871094 867.757812 338.871094 943.03125 L 202.574219 943.03125 L 202.574219 806.734375 " fill-opacity="1" fill-rule="nonzero"/><path fill="#f75b3c" d="M 202.574219 1079.328125 C 127.300781 1079.328125 66.277344 1018.304688 66.277344 943.03125 L 202.574219 943.03125 L 202.574219 1079.328125 " fill-opacity="1" fill-rule="nonzero"/><path fill="#c5dfe1" d="M 66.277344 877.574219 L 66.277344 860.539062 C 20.789062 860.539062 -16.214844 897.542969 -16.214844 943.03125 L 0.820312 943.03125 C 0.820312 906.9375 30.183594 877.574219 66.277344 877.574219 " fill-opacity="1" fill-rule="nonzero"/><path fill="#c5dfe1" d="M 66.277344 850.671875 L 66.277344 833.636719 C 5.957031 833.636719 -43.117188 882.710938 -43.117188 943.03125 L -26.082031 943.03125 C -26.082031 892.101562 15.347656 850.671875 66.277344 850.671875 " fill-opacity="1" fill-rule="nonzero"/><path fill="#c5dfe1" d="M 66.277344 823.769531 L 66.277344 806.734375 C -8.878906 806.734375 -70.019531 867.875 -70.019531 943.03125 L -52.984375 943.03125 C -52.984375 877.273438 0.519531 823.769531 66.277344 823.769531 " fill-opacity="1" fill-rule="nonzero"/><path fill="#ffffff" d="M 338.871094 1013.871094 L 338.871094 996.835938 C 293.382812 996.835938 256.378906 1033.839844 256.378906 1079.328125 L 273.414062 1079.328125 C 273.414062 1043.234375 302.777344 1013.871094 338.871094 1013.871094 " fill-opacity="1" fill-rule="nonzero"/><path fill="#ffffff" d="M 338.871094 986.96875 L 338.871094 969.933594 C 278.550781 969.933594 229.476562 1019.007812 229.476562 1079.328125 L 246.515625 1079.328125 C 246.515625 1028.398438 287.945312 986.96875 338.871094 986.96875 " fill-opacity="1" fill-rule="nonzero"/><path fill="#ffffff" d="M 338.871094 960.066406 L 338.871094 943.03125 C 263.71875 943.03125 202.574219 1004.171875 202.574219 1079.328125 L 219.613281 1079.328125 C 219.613281 1013.570312 273.113281 960.066406 338.871094 960.066406 " fill-opacity="1" fill-rule="nonzero"/><path fill="#efdbdd" d="M 66.277344 877.574219 L 66.277344 860.539062 C 111.765625 860.539062 148.773438 897.542969 148.773438 943.03125 L 131.734375 943.03125 C 131.734375 906.9375 102.371094 877.574219 66.277344 877.574219 " fill-opacity="1" fill-rule="nonzero"/><path fill="#efdbdd" d="M 66.277344 850.671875 L 66.277344 833.636719 C 126.597656 833.636719 175.671875 882.710938 175.671875 943.03125 L 158.636719 943.03125 C 158.636719 892.101562 117.207031 850.671875 66.277344 850.671875 " fill-opacity="1" fill-rule="nonzero"/><path fill="#efdbdd" d="M 66.277344 823.769531 L 66.277344 806.734375 C 141.433594 806.734375 202.574219 867.875 202.574219 943.03125 L 185.539062 943.03125 C 185.539062 877.273438 132.035156 823.769531 66.277344 823.769531 " fill-opacity="1" fill-rule="nonzero"/><path fill="#008575" d="M 66.277344 1144.785156 L 66.277344 1161.824219 C 111.765625 1161.824219 148.773438 1124.816406 148.773438 1079.328125 L 131.734375 1079.328125 C 131.734375 1115.421875 102.371094 1144.785156 66.277344 1144.785156 " fill-opacity="1" fill-rule="nonzero"/><path fill="#008575" d="M 66.277344 1171.6875 L 66.277344 1188.722656 C 126.597656 1188.722656 175.671875 1139.648438 175.671875 1079.328125 L 158.636719 1079.328125 C 158.636719 1130.257812 117.207031 1171.6875 66.277344 1171.6875 " fill-opacity="1" fill-rule="nonzero"/><path fill="#008575" d="M 66.277344 1198.589844 L 66.277344 1215.625 C 141.433594 1215.625 202.574219 1154.484375 202.574219 1079.328125 L 185.539062 1079.328125 C 185.539062 1145.085938 132.035156 1198.589844 66.277344 1198.589844 " fill-opacity="1" fill-rule="nonzero"/><g clip-path="url(#00a72eb9a4)"><path fill="#efdbdd" d="M -83.359375 -11.050781 C -83.359375 64.222656 -22.335938 125.246094 52.941406 125.246094 L 52.941406 -11.050781 L -83.359375 -11.050781 " fill-opacity="1" fill-rule="nonzero"/></g><g clip-path="url(#93331b6350)"><path fill="#f7afad" d="M 325.535156 -11.050781 C 325.535156 64.222656 264.511719 125.246094 189.238281 125.246094 L 189.238281 -11.050781 L 325.535156 -11.050781 " fill-opacity="1" fill-rule="nonzero"/></g><path fill="#ffffff" d="M 118.394531 -11.050781 L 135.433594 -11.050781 C 135.433594 34.4375 98.429688 71.445312 52.941406 71.445312 L 52.941406 54.40625 C 89.03125 54.40625 118.394531 25.042969 118.394531 -11.050781 " fill-opacity="1" fill-rule="nonzero"/><path fill="#ffffff" d="M 145.296875 -11.050781 L 162.335938 -11.050781 C 162.335938 49.273438 113.257812 98.347656 52.941406 98.347656 L 52.941406 81.308594 C 103.867188 81.308594 145.296875 39.878906 145.296875 -11.050781 " fill-opacity="1" fill-rule="nonzero"/><g clip-path="url(#176ed5bbc8)"><path fill="#ffffff" d="M 172.199219 -11.050781 L 189.238281 -11.050781 C 189.238281 64.105469 128.09375 125.246094 52.941406 125.246094 L 52.941406 108.210938 C 118.699219 108.210938 172.199219 54.710938 172.199219 -11.050781 " fill-opacity="1" fill-rule="nonzero"/></g><g clip-path="url(#49bf83a94f)"><path fill="#108599" d="M 102.40625 534.140625 C 27.132812 534.140625 -33.890625 595.160156 -33.890625 670.4375 L 102.40625 670.4375 L 102.40625 534.140625 " fill-opacity="1" fill-rule="nonzero"/></g><g clip-path="url(#d68b237b7f)"><path fill="#ffffff" d="M 170.554688 534.140625 C 208.195312 534.140625 238.703125 564.648438 238.703125 602.289062 C 238.703125 639.925781 208.195312 670.4375 170.554688 670.4375 C 132.914062 670.4375 102.40625 639.925781 102.40625 602.289062 C 102.40625 564.648438 132.914062 534.140625 170.554688 534.140625 " fill-opacity="1" fill-rule="nonzero"/></g><path fill="#108599" d="M 170.554688 261.542969 C 208.195312 261.542969 238.703125 292.054688 238.703125 329.691406 C 238.703125 367.332031 208.195312 397.84375 170.554688 397.84375 C 132.914062 397.84375 102.40625 367.332031 102.40625 329.691406 C 102.40625 292.054688 132.914062 261.542969 170.554688 261.542969 " fill-opacity="1" fill-rule="nonzero"/><path fill="#efdbdd" d="M 238.703125 534.140625 C 313.976562 534.140625 375 473.117188 375 397.84375 L 238.703125 397.84375 L 238.703125 534.140625 " fill-opacity="1" fill-rule="nonzero"/><g clip-path="url(#3c22713376)"><path fill="#c5dfe1" d="M 238.703125 261.542969 C 163.429688 261.542969 102.40625 200.523438 102.40625 125.246094 L 238.703125 125.246094 L 238.703125 261.542969 " fill-opacity="1" fill-rule="nonzero"/></g><path fill="#f4b50b" d="M -33.890625 261.542969 C 41.382812 261.542969 102.40625 322.566406 102.40625 397.84375 L -33.890625 397.84375 L -33.890625 261.542969 " fill-opacity="1" fill-rule="nonzero"/><g clip-path="url(#1be144ce19)"><path fill="#f4b50b" d="M 238.703125 125.246094 C 313.976562 125.246094 375 186.269531 375 261.542969 L 238.703125 261.542969 L 238.703125 125.246094 " fill-opacity="1" fill-rule="nonzero"/></g><path fill="#f4b50b" d="M 375 599.597656 L 375 616.632812 C 329.511719 616.632812 292.507812 579.628906 292.507812 534.140625 L 309.542969 534.140625 C 309.542969 570.234375 338.90625 599.597656 375 599.597656 " fill-opacity="1" fill-rule="nonzero"/><path fill="#f4b50b" d="M 375 626.496094 L 375 643.535156 C 314.675781 643.535156 265.605469 594.460938 265.605469 534.140625 L 282.640625 534.140625 C 282.640625 585.066406 324.070312 626.496094 375 626.496094 " fill-opacity="1" fill-rule="nonzero"/><g clip-path="url(#2828564a1b)"><path fill="#f4b50b" d="M 375 653.398438 L 375 670.4375 C 299.84375 670.4375 238.703125 609.292969 238.703125 534.140625 L 255.738281 534.140625 C 255.738281 599.898438 309.242188 653.398438 375 653.398438 " fill-opacity="1" fill-rule="nonzero"/></g><path fill="#c5dfe1" d="M 102.40625 463.296875 L 102.40625 480.335938 C 147.894531 480.335938 184.898438 443.332031 184.898438 397.84375 L 167.863281 397.84375 C 167.863281 433.933594 138.5 463.296875 102.40625 463.296875 " fill-opacity="1" fill-rule="nonzero"/><path fill="#c5dfe1" d="M 102.40625 490.199219 L 102.40625 507.238281 C 162.726562 507.238281 211.800781 458.160156 211.800781 397.84375 L 194.765625 397.84375 C 194.765625 448.769531 153.332031 490.199219 102.40625 490.199219 " fill-opacity="1" fill-rule="nonzero"/><path fill="#c5dfe1" d="M 102.40625 517.101562 L 102.40625 534.140625 C 177.5625 534.140625 238.703125 472.996094 238.703125 397.84375 L 221.664062 397.84375 C 221.664062 463.601562 168.164062 517.101562 102.40625 517.101562 " fill-opacity="1" fill-rule="nonzero"/><path fill="#ffffff" d="M 238.703125 332.386719 L 238.703125 315.347656 C 284.191406 315.347656 321.195312 352.351562 321.195312 397.84375 L 304.160156 397.84375 C 304.160156 361.75 274.796875 332.386719 238.703125 332.386719 " fill-opacity="1" fill-rule="nonzero"/><path fill="#ffffff" d="M 238.703125 305.484375 L 238.703125 288.445312 C 299.027344 288.445312 348.097656 337.523438 348.097656 397.84375 L 331.0625 397.84375 C 331.0625 346.914062 289.632812 305.484375 238.703125 305.484375 " fill-opacity="1" fill-rule="nonzero"/><path fill="#ffffff" d="M 238.703125 278.582031 L 238.703125 261.542969 C 313.859375 261.542969 375 322.6875 375 397.84375 L 357.960938 397.84375 C 357.960938 332.082031 304.460938 278.582031 238.703125 278.582031 " fill-opacity="1" fill-rule="nonzero"/><path fill="#efdbdd" d="M 102.40625 463.296875 L 102.40625 480.335938 C 56.917969 480.335938 19.910156 443.332031 19.910156 397.84375 L 36.949219 397.84375 C 36.949219 433.933594 66.3125 463.296875 102.40625 463.296875 " fill-opacity="1" fill-rule="nonzero"/><path fill="#efdbdd" d="M 102.40625 490.199219 L 102.40625 507.238281 C 42.085938 507.238281 -6.988281 458.160156 -6.988281 397.84375 L 10.046875 397.84375 C 10.046875 448.769531 51.476562 490.199219 102.40625 490.199219 " fill-opacity="1" fill-rule="nonzero"/><path fill="#efdbdd" d="M 102.40625 517.101562 L 102.40625 534.140625 C 27.25 534.140625 -33.890625 472.996094 -33.890625 397.84375 L -16.855469 397.84375 C -16.855469 463.601562 36.644531 517.101562 102.40625 517.101562 " fill-opacity="1" fill-rule="nonzero"/><path fill="#108599" d="M 102.40625 196.089844 L 102.40625 179.050781 C 56.917969 179.050781 19.910156 216.054688 19.910156 261.542969 L 36.949219 261.542969 C 36.949219 225.453125 66.3125 196.089844 102.40625 196.089844 " fill-opacity="1" fill-rule="nonzero"/><path fill="#108599" d="M 102.40625 169.1875 L 102.40625 152.148438 C 42.085938 152.148438 -6.988281 201.226562 -6.988281 261.542969 L 10.046875 261.542969 C 10.046875 210.617188 51.476562 169.1875 102.40625 169.1875 " fill-opacity="1" fill-rule="nonzero"/><g clip-path="url(#95d6e86065)"><path fill="#108599" d="M 102.40625 142.285156 L 102.40625 125.246094 C 27.25 125.246094 -33.890625 186.390625 -33.890625 261.542969 L -16.855469 261.542969 C -16.855469 195.785156 36.644531 142.285156 102.40625 142.285156 " fill-opacity="1" fill-rule="nonzero"/></g></svg>