<svg xmlns="http://www.w3.org/2000/svg" xmlns:xlink="http://www.w3.org/1999/xlink" width="1024" zoomAndPan="magnify" viewBox="0 0 768 767.999994" height="1024" preserveAspectRatio="xMidYMid meet" version="1.0"><defs><g/></defs><path fill="#f4b50b" d="M 364.46875 11.402344 C 364.46875 12.925781 364.851562 22.746094 365.316406 33.226562 C 365.78125 43.707031 366.808594 68.410156 367.597656 88.121094 C 368.386719 107.828125 369.542969 135.21875 370.164062 148.984375 C 370.78125 162.75 371.292969 174.84375 371.292969 175.859375 L 371.292969 177.707031 L 392.25 177.707031 L 392.570312 176.144531 C 392.746094 175.285156 394.054688 166.132812 395.476562 155.808594 C 396.898438 145.484375 399.457031 126.925781 401.160156 114.570312 C 402.863281 102.210938 405.792969 80.964844 407.664062 67.355469 C 409.539062 53.75 411.957031 36.214844 413.042969 28.394531 C 414.125 20.570312 414.839844 14.015625 414.625 13.828125 C 414.414062 13.636719 410.527344 13.164062 405.992188 12.777344 C 385.757812 11.058594 367.46875 9.328125 366.03125 8.996094 C 364.492188 8.640625 364.46875 8.675781 364.46875 11.402344 M 324.339844 14.375 C 324.042969 14.644531 315.863281 19.023438 306.164062 24.109375 C 296.464844 29.199219 288.214844 33.613281 287.832031 33.921875 C 287.386719 34.277344 287.3125 34.828125 287.621094 35.421875 C 287.886719 35.9375 289.183594 40.066406 290.496094 44.605469 C 291.8125 49.140625 293.746094 55.667969 294.792969 59.109375 C 295.839844 62.550781 298.253906 70.550781 300.152344 76.886719 C 308.378906 104.332031 310.675781 111.960938 313.289062 120.542969 C 318.132812 136.46875 333.292969 187.011719 333.886719 189.226562 C 334.203125 190.398438 334.714844 191.359375 335.027344 191.359375 C 336.425781 191.359375 350.816406 187.148438 350.816406 186.738281 C 350.816406 186.484375 345.3125 147.757812 338.585938 100.679688 C 331.859375 53.601562 326.359375 14.8125 326.359375 14.484375 C 326.359375 13.765625 325.089844 13.695312 324.339844 14.375 M 474.820312 16.46875 C 466.765625 17.742188 458.714844 19.015625 450.664062 20.28125 L 442.148438 21.617188 L 441.433594 24.089844 C 441.039062 25.449219 439.183594 33.375 437.3125 41.699219 C 435.128906 51.390625 432.9375 61.082031 430.738281 70.769531 C 428.992188 78.433594 426.175781 90.847656 424.480469 98.359375 C 422.398438 107.554688 420.308594 116.75 418.210938 125.945312 C 415.101562 139.566406 409.980469 162.1875 408.765625 167.652344 C 408.429688 169.160156 408.246094 170.476562 408.355469 170.578125 C 409.710938 171.855469 419.914062 177.652344 420.207031 177.3125 C 420.425781 177.0625 421.777344 174.167969 423.210938 170.882812 C 424.644531 167.597656 428.683594 158.511719 432.1875 150.6875 C 435.691406 142.867188 440.21875 132.757812 442.25 128.222656 C 444.277344 123.683594 447.035156 117.542969 448.375 114.570312 C 450.75 109.296875 454.257812 101.46875 462.019531 84.136719 C 464.121094 79.445312 466.992188 73.046875 468.402344 69.917969 C 469.8125 66.789062 472.449219 60.902344 474.257812 56.835938 C 477.359375 49.855469 489.265625 23.367188 492.21875 16.875 L 493.578125 13.886719 L 492.019531 13.941406 C 491.164062 13.972656 483.421875 15.109375 474.820312 16.46875 M 503.261719 48.414062 C 494.339844 66.089844 485.417969 83.769531 476.496094 101.449219 C 466.746094 120.75 457.007812 140.050781 447.277344 159.355469 L 433.722656 186.226562 L 436.894531 190.101562 C 438.636719 192.230469 440.539062 194.402344 441.117188 194.929688 C 442.308594 196.007812 439.394531 199.710938 469.683594 158.652344 C 471.761719 155.835938 476.304688 149.695312 479.777344 145 L 492.257812 128.132812 C 496.671875 122.164062 501.085938 116.191406 505.492188 110.214844 C 509.382812 104.945312 514.644531 97.816406 517.191406 94.375 L 526.761719 81.4375 C 533.296875 72.589844 539.839844 63.746094 546.390625 54.910156 C 549.261719 51.035156 551.609375 47.667969 551.609375 47.425781 C 551.609375 46.90625 546.007812 43.648438 518.265625 28.042969 C 516.664062 27.140625 515.125 26.40625 514.851562 26.40625 C 514.578125 26.410156 509.359375 36.3125 503.261719 48.414062 M 245.585938 63.5 C 245.585938 63.882812 248.5 70.34375 252.066406 77.863281 C 255.628906 85.382812 264.429688 103.945312 271.621094 119.121094 C 278.8125 134.292969 290.460938 158.867188 297.507812 173.726562 C 304.554688 188.585938 310.972656 202.21875 311.765625 204.015625 C 312.5625 205.816406 313.417969 207.273438 313.671875 207.261719 C 313.921875 207.246094 315.777344 205.714844 317.796875 203.859375 L 321.46875 200.488281 L 319.167969 195.5 C 311.761719 179.421875 256.054688 63.589844 255.5625 63.242188 C 254.503906 62.496094 245.585938 62.726562 245.585938 63.5 M 572.261719 70.058594 C 562.113281 82.121094 534.859375 114.769531 533.40625 116.609375 C 532.625 117.597656 515.273438 138.421875 494.851562 162.882812 L 457.714844 207.359375 L 459.230469 209.171875 C 463.910156 214.769531 464.609375 215.363281 465.601562 214.578125 C 466.765625 213.660156 515.253906 168.984375 526.296875 158.660156 C 531.492188 153.804688 536.707031 148.96875 541.941406 144.15625 C 582.863281 106.550781 607.351562 83.636719 606.96875 83.304688 C 605.933594 82.414062 578.414062 63.375 578.160156 63.375 C 578.007812 63.375 575.355469 66.382812 572.261719 70.058594 M 195.421875 79.953125 C 193.597656 82.429688 191.773438 84.90625 189.953125 87.382812 C 188.640625 89.167969 187.566406 90.832031 187.570312 91.082031 C 187.574219 91.328125 190.324219 94.496094 193.6875 98.117188 C 197.046875 101.738281 207.597656 113.128906 217.136719 123.429688 C 230.308594 137.648438 243.484375 151.855469 256.667969 166.050781 C 268.875 179.191406 284.59375 196.152344 291.601562 203.734375 C 298.609375 211.320312 304.558594 217.527344 304.820312 217.527344 C 305.078125 217.527344 305.964844 216.195312 306.789062 214.570312 C 308.570312 211.054688 309.011719 212.003906 301.101562 202.246094 C 294.449219 194.039062 266.328125 159.28125 256.457031 147.0625 C 252.824219 142.566406 245.753906 133.832031 240.75 127.65625 C 235.746094 121.476562 228.707031 112.773438 225.109375 108.308594 C 209.25 88.636719 200.441406 77.804688 199.511719 76.824219 C 198.539062 75.804688 198.402344 75.910156 195.421875 79.953125 M 608.492188 113.273438 C 600.828125 120.34375 583.171875 136.519531 569.261719 149.21875 C 500.785156 211.710938 476.796875 233.683594 476.644531 234.042969 C 476.402344 234.628906 482.222656 240.019531 482.890625 239.832031 C 483.207031 239.746094 488.75 235.535156 495.210938 230.476562 C 513.710938 215.996094 532.226562 201.535156 550.753906 187.09375 C 569.824219 172.230469 588.882812 157.34375 607.921875 142.4375 C 615.273438 136.683594 624.234375 129.691406 627.832031 126.902344 C 631.429688 124.113281 634.441406 121.542969 634.527344 121.1875 C 634.613281 120.832031 633.578125 118.621094 632.226562 116.277344 C 630.292969 112.910156 628.359375 109.542969 626.425781 106.179688 C 624.585938 102.972656 622.933594 100.363281 622.753906 100.382812 C 622.574219 100.398438 616.15625 106.199219 608.492188 113.273438 M 137.273438 132.625 C 130.875 141.3125 129.164062 144 129.703125 144.5 C 130.085938 144.855469 133.984375 147.066406 138.363281 149.410156 C 142.742188 151.753906 150.933594 156.167969 156.566406 159.214844 C 162.195312 162.265625 170.132812 166.558594 174.199219 168.757812 C 178.265625 170.953125 186.074219 175.179688 191.546875 178.148438 C 197.023438 181.113281 204.703125 185.265625 208.613281 187.375 C 230.375 199.109375 238.476562 203.484375 243.59375 206.265625 C 261 215.722656 287.417969 229.976562 291.261719 231.984375 L 295.703125 234.304688 L 298.238281 231.542969 L 300.773438 228.777344 L 297.496094 226.464844 C 295.695312 225.191406 288.074219 219.886719 280.566406 214.671875 C 272.882812 209.339844 265.203125 204 257.53125 198.652344 C 231.046875 180.191406 203.171875 160.785156 193.539062 154.101562 C 187.59375 149.976562 178.378906 143.566406 173.0625 139.859375 C 149.96875 123.753906 146.515625 121.394531 146.042969 121.394531 C 145.769531 121.394531 141.820312 126.449219 137.273438 132.625 M 648.59375 180.808594 C 635.460938 186.199219 605.449219 198.421875 581.472656 208.140625 C 575.878906 210.410156 570.285156 212.683594 564.691406 214.964844 C 557.171875 218.039062 546.480469 222.390625 526.296875 230.589844 C 513.300781 235.871094 494.109375 243.691406 488.925781 245.820312 L 486.820312 246.6875 L 488.285156 249.597656 C 489.085938 251.199219 489.835938 252.609375 489.949219 252.730469 C 490.148438 252.953125 492.53125 252.144531 502.40625 248.503906 C 505.222656 247.464844 513.667969 244.398438 521.179688 241.691406 C 555.175781 229.425781 568.203125 224.703125 573.226562 222.824219 C 576.816406 221.492188 580.417969 220.195312 584.03125 218.933594 C 587.003906 217.902344 594.683594 215.140625 601.097656 212.789062 C 607.511719 210.441406 618.902344 206.304688 626.410156 203.59375 C 652.332031 194.246094 658.832031 191.835938 659.203125 191.457031 C 659.714844 190.929688 657.167969 178.09375 656.515625 177.914062 C 656.226562 177.835938 652.660156 179.140625 648.59375 180.808594 M 115.9375 192.414062 C 115.339844 193.535156 108.757812 208.875 105.09375 217.699219 C 104.078125 220.136719 103.34375 222.214844 103.457031 222.3125 C 103.570312 222.414062 107.25 223.441406 111.628906 224.601562 C 116.007812 225.761719 123.304688 227.699219 127.839844 228.90625 C 132.375 230.117188 142.488281 232.800781 150.308594 234.878906 C 158.128906 236.953125 170.160156 240.15625 177.042969 241.992188 C 183.925781 243.832031 195.445312 246.902344 202.640625 248.816406 C 209.835938 250.730469 219.433594 253.289062 223.96875 254.5 C 231.460938 256.496094 238.949219 258.488281 246.4375 260.476562 C 254.257812 262.554688 264.875 265.378906 270.027344 266.757812 C 275.179688 268.136719 279.574219 269.078125 279.792969 268.851562 C 280.265625 268.355469 283.300781 257.320312 283.03125 257.074219 C 282.839844 256.898438 279.125 255.425781 249.28125 243.691406 C 239.898438 240 226.585938 234.753906 219.703125 232.03125 C 188.285156 219.605469 182.703125 217.398438 173.628906 213.828125 C 168.3125 211.738281 159.222656 208.152344 153.4375 205.859375 C 147.648438 203.570312 137.28125 199.46875 130.398438 196.75 C 123.515625 194.03125 117.585938 191.683594 117.21875 191.539062 C 116.851562 191.390625 116.273438 191.785156 115.9375 192.414062 M 381.816406 191.707031 C 356.375 195.457031 331.773438 208.9375 310.6875 230.6875 C 289.972656 252.046875 281.851562 289.152344 291.46875 318.492188 C 297.25 336.140625 309.511719 350.753906 327.496094 361.425781 C 341.554688 369.773438 360.105469 375.984375 380.457031 379.160156 C 391.320312 380.855469 412.371094 381.015625 420.78125 379.464844 C 459.195312 372.382812 483.25 343.628906 486.78125 300.574219 C 487.902344 286.941406 486.652344 275.742188 482.75 264.421875 C 473.453125 237.457031 452.007812 212.40625 427.871094 200.3125 C 415.925781 194.332031 406.242188 191.929688 392.910156 191.652344 C 387.746094 191.542969 382.757812 191.570312 381.816406 191.707031 M 493.449219 266.753906 C 492.691406 267.550781 492.945312 276.125 493.734375 276.378906 C 494.125 276.503906 504.042969 277.519531 515.773438 278.632812 C 551.027344 281.984375 577.5 284.535156 598.820312 286.636719 C 639.304688 290.625 661.59375 292.652344 662.242188 292.40625 C 662.722656 292.222656 662.5625 290.1875 661.644531 284.84375 C 660.957031 280.824219 660.222656 276.355469 660.015625 274.917969 L 659.640625 272.296875 L 648.714844 271.910156 C 624.820312 271.070312 574.21875 269.21875 546.207031 268.160156 C 501.027344 266.457031 493.910156 266.265625 493.449219 266.753906 M 72.597656 275.339844 C 72.5625 275.609375 72.59375 276.339844 72.667969 276.96875 C 72.742188 277.59375 73.347656 284.886719 74.011719 293.179688 L 75.222656 308.253906 L 82.617188 308.109375 C 86.683594 308.035156 106.652344 307.074219 126.984375 305.984375 C 147.320312 304.890625 179.316406 303.222656 198.089844 302.277344 C 245.5625 299.886719 273.613281 298.320312 274.453125 298.019531 C 274.878906 297.867188 275.164062 296.734375 275.164062 295.199219 C 275.164062 292.117188 275.796875 292.328125 264.070312 291.476562 C 259.378906 291.132812 245.429688 289.960938 233.070312 288.867188 C 220.714844 287.773438 198.570312 285.863281 183.867188 284.617188 C 169.164062 283.375 153.167969 281.984375 148.316406 281.527344 C 143.46875 281.066406 125.550781 279.53125 108.5 278.109375 C 91.449219 276.691406 76.410156 275.375 75.082031 275.1875 C 73.753906 275 72.632812 275.070312 72.597656 275.339844 M 497.003906 297.332031 L 497.003906 302.054688 L 531.273438 310.488281 C 634.636719 335.914062 667.308594 343.835938 667.898438 343.609375 C 668.78125 343.273438 671.792969 322.070312 671.027344 321.597656 C 670.714844 321.40625 639.945312 316.183594 602.644531 309.992188 C 573.921875 305.214844 545.1875 300.441406 516.4375 295.671875 C 506.324219 293.988281 497.8125 292.609375 497.527344 292.609375 C 497.238281 292.609375 497.003906 294.734375 497.003906 297.332031 M 268.621094 306.605469 C 266.433594 307.050781 256.578125 308.820312 246.722656 310.539062 C 216.386719 315.828125 167.972656 324.328125 128.410156 331.3125 C 118.582031 333.042969 108.753906 334.761719 98.921875 336.460938 C 90.054688 337.996094 82.574219 339.390625 82.292969 339.5625 C 82.015625 339.734375 82.382812 340.824219 83.109375 341.980469 C 83.839844 343.140625 86.796875 348.246094 89.6875 353.332031 C 92.574219 358.414062 95.0625 362.574219 95.210938 362.574219 C 95.539062 362.574219 113.101562 357.917969 119.875 356.035156 C 122.535156 355.292969 131.496094 352.863281 139.785156 350.632812 C 148.074219 348.398438 159.53125 345.308594 165.238281 343.765625 L 186 338.152344 C 191.710938 336.609375 203.164062 333.519531 211.457031 331.289062 C 219.746094 329.058594 231.136719 325.984375 236.769531 324.460938 C 255.558594 319.378906 270.292969 315.449219 274.027344 314.523438 C 279.523438 313.160156 279.296875 313.363281 277.8125 311.171875 C 277.082031 310.097656 276.15625 308.425781 275.757812 307.457031 C 274.921875 305.445312 274.566406 305.402344 268.621094 306.605469 M 493.378906 312.917969 C 493.183594 313.113281 493.023438 314.875 493.023438 316.832031 L 493.023438 320.382812 L 500.84375 324.621094 C 505.144531 326.953125 511.351562 330.273438 514.636719 332 C 517.921875 333.730469 530.847656 340.574219 543.363281 347.214844 C 555.875 353.855469 574.816406 363.902344 585.453125 369.542969 C 596.089844 375.179688 610.425781 382.800781 617.308594 386.472656 C 646.4375 402.007812 651.84375 404.769531 652.226562 404.304688 C 654.753906 401.238281 665.976562 383.441406 665.597656 383.109375 C 665.316406 382.863281 655.746094 378.863281 644.328125 374.222656 C 634.65625 370.292969 624.988281 366.355469 615.316406 362.417969 C 610.78125 360.5625 603.742188 357.695312 599.675781 356.039062 C 595.609375 354.382812 588.824219 351.621094 584.601562 349.898438 C 580.378906 348.175781 558.71875 339.339844 536.464844 330.269531 C 514.214844 321.195312 495.5 313.5 494.875 313.164062 C 494.25 312.832031 493.578125 312.71875 493.378906 312.917969 M 195.285156 351.976562 C 149.632812 367.675781 112.203125 380.773438 112.113281 381.078125 C 112.019531 381.382812 112.910156 387.261719 114.097656 394.144531 C 115.792969 403.984375 116.425781 406.617188 117.066406 406.46875 C 117.515625 406.363281 125.945312 402.546875 135.800781 397.988281 C 149.445312 391.667969 163.097656 385.363281 176.757812 379.070312 C 184.75 375.386719 191.367188 372.320312 219.136719 359.441406 C 229.773438 354.507812 241.417969 349.125 245.015625 347.480469 C 250.332031 345.039062 255.640625 342.589844 260.941406 340.128906 C 266.589844 337.511719 272.242188 334.90625 277.898438 332.304688 L 285.46875 328.835938 L 282.753906 326.082031 C 281.261719 324.566406 279.648438 323.347656 279.167969 323.375 C 278.6875 323.402344 240.941406 336.273438 195.285156 351.976562 M 488.605469 332.957031 L 486.863281 336.902344 L 507.710938 356.136719 C 520.53125 367.960938 533.359375 379.769531 546.199219 391.5625 C 556.929688 401.414062 567.644531 411.28125 578.34375 421.160156 C 589.082031 431.078125 599.828125 440.984375 610.582031 450.878906 L 628.316406 467.191406 L 637.742188 457.183594 C 642.929688 451.679688 647.171875 446.96875 647.171875 446.714844 C 647.171875 446.460938 642.117188 442.445312 635.9375 437.789062 C 614.339844 421.523438 571.496094 389.292969 533.691406 360.878906 C 512.730469 345.125 494.691406 331.511719 493.601562 330.625 C 492.515625 329.738281 491.335938 329.015625 490.984375 329.015625 C 490.632812 329.015625 489.5625 330.789062 488.605469 332.957031 M 282.558594 339.441406 C 278.433594 341.800781 276.652344 342.800781 260.660156 351.761719 C 256.769531 353.941406 252.878906 356.125 249 358.316406 C 239.09375 363.925781 230.355469 368.835938 208.042969 381.332031 C 195.058594 388.601562 182.515625 395.640625 180.171875 396.972656 C 176.382812 399.117188 172.589844 401.25 168.792969 403.378906 C 164.050781 406.039062 159.3125 408.699219 154.574219 411.367188 C 148.796875 414.617188 143.015625 417.851562 137.226562 421.074219 C 131.59375 424.210938 126.507812 427.121094 125.921875 427.542969 C 124.902344 428.28125 124.941406 428.480469 126.929688 432.429688 L 129.003906 436.546875 L 151.316406 425.230469 C 186.136719 407.578125 288.058594 356.253906 292.652344 354.0625 C 294.921875 352.980469 296.777344 351.828125 296.773438 351.503906 C 296.769531 351.179688 294.851562 347.976562 292.507812 344.386719 C 290.164062 340.800781 288.246094 337.664062 288.246094 337.421875 C 288.246094 336.515625 286.714844 337.0625 282.558594 339.441406 M 486.097656 350.714844 C 484.351562 353.378906 482.152344 358.132812 482.324219 358.871094 C 482.46875 359.496094 523.871094 403.574219 545.910156 426.566406 C 549.210938 430.007812 560.609375 442.03125 571.242188 453.285156 C 604.894531 488.898438 606.484375 490.558594 606.996094 490.558594 C 607.457031 490.558594 610.796875 487 613.226562 483.910156 L 614.261719 482.59375 L 603.28125 471.078125 C 544.707031 409.628906 496.917969 359.578125 492.433594 354.980469 L 486.972656 349.375 Z M 297.347656 369.480469 C 283.332031 376.980469 246.773438 396.351562 214.300781 413.492188 C 202.882812 419.519531 189.046875 426.847656 183.554688 429.777344 C 178.0625 432.703125 165.332031 439.449219 155.257812 444.769531 C 145.1875 450.085938 136.945312 454.671875 136.941406 454.957031 C 136.941406 455.246094 139.910156 460.042969 143.542969 465.621094 C 147.671875 471.96875 150.386719 475.621094 150.792969 475.382812 C 151.996094 474.683594 174.25 460.28125 187.566406 451.589844 C 191.476562 449.035156 221.296875 429.71875 253.832031 408.660156 C 286.371094 387.605469 313.195312 370.191406 313.449219 369.96875 C 313.988281 369.492188 311.503906 363.011719 310.695312 362.789062 C 310.394531 362.703125 304.386719 365.714844 297.347656 369.480469 M 307.585938 391.425781 C 302.113281 397.246094 289.183594 410.875 278.859375 421.710938 C 268.535156 432.546875 255.484375 446.269531 249.851562 452.207031 C 244.21875 458.144531 229.914062 473.1875 218.058594 485.636719 C 199.949219 504.65625 196.632812 508.394531 197.296875 509.015625 C 199.390625 510.980469 214.410156 522.980469 214.757812 522.964844 C 214.976562 522.957031 217.585938 519.847656 220.558594 516.054688 C 226.507812 508.460938 233.820312 499.203125 251.933594 476.339844 C 255.527344 471.800781 264.320312 460.667969 271.476562 451.59375 C 290.355469 427.65625 303.546875 410.9375 312.960938 399.03125 C 317.511719 393.269531 321.238281 388.359375 321.238281 388.117188 C 321.238281 387.304688 318.25 380.777344 317.894531 380.808594 C 317.699219 380.828125 313.0625 385.605469 307.585938 391.425781 M 445.117188 383.140625 L 441.867188 385.472656 L 446.527344 391.515625 C 449.089844 394.839844 456.953125 404.988281 464 414.070312 C 471.042969 423.152344 481.035156 436.03125 486.195312 442.695312 C 499.609375 460.003906 514.835938 479.613281 523.738281 491.042969 C 527.960938 496.464844 531.929688 501.59375 532.554688 502.4375 C 533.179688 503.28125 536.371094 507.417969 539.640625 511.628906 C 542.914062 515.839844 551.453125 526.835938 558.617188 536.066406 C 565.78125 545.292969 571.804688 552.902344 572.007812 552.976562 C 572.207031 553.046875 573.667969 551.257812 575.253906 548.996094 C 576.839844 546.730469 580.246094 541.972656 582.824219 538.421875 C 587.425781 532.074219 587.492188 531.9375 586.480469 530.765625 C 584.957031 528.996094 553.136719 494.160156 518.589844 456.429688 C 501.828125 438.128906 479.46875 413.683594 468.898438 402.109375 C 458.328125 390.53125 449.382812 381.003906 449.023438 380.933594 C 448.664062 380.863281 446.90625 381.855469 445.117188 383.140625 M 329.964844 391.441406 C 329.480469 392.617188 327.734375 396.519531 326.082031 400.117188 C 323.792969 405.132812 321.519531 410.15625 319.269531 415.191406 C 317.1875 419.84375 315.09375 424.488281 312.988281 429.125 C 310.496094 434.578125 308.054688 439.988281 301.039062 455.578125 C 298.929688 460.269531 295.984375 466.796875 294.5 470.082031 C 292.316406 474.914062 290.144531 479.746094 287.976562 484.585938 C 285.804688 489.429688 283.621094 494.261719 281.421875 499.089844 C 279.921875 502.375 276.851562 509.160156 274.605469 514.164062 C 268.1875 528.46875 266.128906 533.015625 262.773438 540.332031 C 257.535156 551.75 255.765625 556.144531 256.230469 556.570312 C 256.769531 557.058594 268.4375 560.523438 269.546875 560.523438 C 269.976562 560.523438 270.882812 559.050781 271.558594 557.253906 C 272.238281 555.453125 274.628906 549.503906 276.871094 544.027344 C 279.113281 538.554688 283.582031 527.546875 286.800781 519.570312 C 290.398438 510.652344 294.003906 501.742188 297.613281 492.835938 C 301.457031 483.355469 305.292969 473.875 309.125 464.394531 C 322.480469 431.339844 337.351562 394.648438 338.121094 392.859375 C 338.402344 392.203125 332.953125 389.308594 331.429688 389.308594 C 331.113281 389.308594 330.453125 390.269531 329.964844 391.441406 M 352.898438 398.269531 C 352.640625 398.691406 350.988281 406.175781 344.839844 434.816406 C 342.765625 444.488281 340.679688 454.15625 338.589844 463.824219 C 334.308594 483.636719 330.035156 503.449219 325.777344 523.265625 C 323.894531 532.027344 320.972656 545.59375 319.28125 553.414062 C 314.011719 577.796875 313.621094 579.867188 314.171875 580.402344 C 314.585938 580.804688 341.03125 586.910156 344.558594 587.417969 C 345.644531 587.578125 344.972656 593.457031 352.25 520.421875 C 353.546875 507.429688 354.867188 494.445312 356.203125 481.457031 C 357.472656 469.136719 358.710938 456.8125 359.917969 444.484375 C 360.878906 434.628906 362.296875 420.734375 363.066406 413.605469 C 363.835938 406.472656 364.46875 400.011719 364.46875 399.242188 C 364.46875 397.847656 364.441406 397.839844 358.8125 397.839844 C 355.703125 397.839844 353.042969 398.03125 352.898438 398.269531 M 419.859375 403.265625 C 420.042969 403.746094 421.5 408.289062 423.097656 413.363281 C 424.78125 418.714844 426.476562 424.066406 428.179688 429.410156 C 429.378906 433.164062 432.195312 442.125 434.433594 449.320312 C 436.671875 456.515625 439.488281 465.472656 440.691406 469.226562 C 441.890625 472.984375 444.707031 481.941406 446.945312 489.136719 C 449.1875 496.332031 452.003906 505.292969 453.207031 509.046875 C 454.410156 512.800781 457.222656 521.757812 459.457031 528.953125 C 461.691406 536.148438 465.320312 547.796875 467.519531 554.835938 L 474.636719 577.589844 C 477.625 587.144531 481.730469 599.957031 481.863281 600.148438 C 482.023438 600.378906 509.074219 596.992188 509.359375 596.707031 C 509.699219 596.367188 507.925781 591.785156 500.644531 574.175781 C 498.253906 568.386719 495.210938 560.964844 493.882812 557.679688 C 492.558594 554.394531 488.203125 543.773438 484.207031 534.074219 C 480.210938 524.375 475.859375 513.753906 474.539062 510.46875 C 473.214844 507.183594 470.277344 500.015625 468.003906 494.539062 C 465.730469 489.066406 462.78125 481.898438 461.449219 478.613281 C 460.117188 475.328125 456.027344 465.347656 452.355469 456.429688 C 449.117188 448.566406 445.886719 440.695312 442.667969 432.824219 C 440.226562 426.84375 437.765625 420.871094 435.292969 414.90625 C 432.890625 409.117188 430.792969 403.933594 430.625 403.386719 C 430.359375 402.53125 429.566406 402.390625 424.921875 402.390625 C 420.296875 402.390625 419.570312 402.519531 419.859375 403.265625 M 374.492188 417.324219 C 374.304688 424.285156 374.015625 438.9375 373.851562 449.886719 C 373.429688 477.9375 372.476562 534.285156 371.878906 566.496094 C 371.601562 581.511719 371.546875 593.953125 371.761719 594.144531 C 372.316406 594.636719 386.726562 597.046875 387.070312 596.703125 C 387.226562 596.542969 386.679688 553.847656 385.855469 501.820312 C 385.027344 449.792969 384.359375 406.652344 384.363281 405.945312 C 384.375 404.71875 384.179688 404.667969 379.605469 404.667969 L 374.835938 404.667969 Z M 397.726562 405.945312 C 398.007812 407.175781 399.746094 420.003906 405.183594 460.980469 C 406.574219 471.460938 408.597656 486.433594 409.675781 494.257812 C 410.753906 502.078125 412.558594 515.386719 413.6875 523.835938 C 418.488281 559.789062 420.195312 572.507812 422.265625 587.683594 L 424.457031 603.753906 L 433.046875 603.753906 C 437.773438 603.753906 441.769531 603.621094 441.929688 603.460938 C 442.089844 603.300781 441.746094 600.421875 441.160156 597.0625 C 440.039062 590.636719 427.984375 520.03125 424.1875 497.667969 C 422.964844 490.472656 420.019531 473.195312 417.640625 459.273438 C 415.261719 445.351562 412.3125 427.945312 411.085938 420.59375 C 409.863281 413.242188 408.722656 406.652344 408.554688 405.945312 C 408.261719 404.730469 407.976562 404.667969 402.84375 404.667969 C 397.53125 404.667969 397.445312 404.6875 397.726562 405.945312 " fill-opacity="1" fill-rule="evenodd"/><g fill="#000000" fill-opacity="1"><g transform="translate(25.946344, 725.357255)"><g><path d="M 7.75 -106.578125 L 46.640625 -106.578125 C 57.492188 -106.578125 66.273438 -103.773438 72.984375 -98.171875 C 79.703125 -92.578125 83.0625 -84.441406 83.0625 -73.765625 C 83.0625 -63.085938 79.660156 -54.710938 72.859375 -48.640625 C 66.054688 -42.566406 57.316406 -39.53125 46.640625 -39.53125 L 32.03125 -39.53125 L 32.03125 0 L 7.75 0 Z M 32.03125 -58.90625 L 38.890625 -58.90625 C 44.316406 -58.90625 48.769531 -60.003906 52.25 -62.203125 C 55.738281 -64.398438 57.484375 -67.992188 57.484375 -72.984375 C 57.484375 -78.066406 55.738281 -81.707031 52.25 -83.90625 C 48.769531 -86.101562 44.316406 -87.203125 38.890625 -87.203125 L 32.03125 -87.203125 Z M 32.03125 -58.90625 "/></g></g></g><g fill="#000000" fill-opacity="1"><g transform="translate(111.976763, 725.357255)"><g><path d="M 74.796875 -29.96875 L 26.734375 -29.96875 C 26.734375 -25.320312 28.238281 -21.878906 31.25 -19.640625 C 34.269531 -17.398438 37.546875 -16.28125 41.078125 -16.28125 C 44.785156 -16.28125 47.710938 -16.773438 49.859375 -17.765625 C 52.015625 -18.753906 54.472656 -20.710938 57.234375 -23.640625 L 73.765625 -15.375 C 66.878906 -3.832031 55.425781 1.9375 39.40625 1.9375 C 29.414062 1.9375 20.84375 -1.484375 13.6875 -8.328125 C 6.539062 -15.179688 2.96875 -23.429688 2.96875 -33.078125 C 2.96875 -42.722656 6.539062 -50.988281 13.6875 -57.875 C 20.84375 -64.769531 29.414062 -68.21875 39.40625 -68.21875 C 49.90625 -68.21875 58.445312 -65.179688 65.03125 -59.109375 C 71.625 -53.035156 74.921875 -44.359375 74.921875 -33.078125 C 74.921875 -31.523438 74.878906 -30.488281 74.796875 -29.96875 Z M 27.390625 -42.625 L 52.578125 -42.625 C 52.054688 -46.070312 50.695312 -48.722656 48.5 -50.578125 C 46.3125 -52.429688 43.492188 -53.359375 40.046875 -53.359375 C 36.253906 -53.359375 33.238281 -52.363281 31 -50.375 C 28.757812 -48.394531 27.554688 -45.8125 27.390625 -42.625 Z M 27.390625 -42.625 "/></g></g></g><g fill="#000000" fill-opacity="1"><g transform="translate(189.869167, 725.357255)"><g><path d="M 7.75 0 L 7.75 -66.265625 L 30.625 -66.265625 L 30.625 -56.71875 L 30.875 -56.71875 C 31.050781 -57.0625 31.332031 -57.488281 31.71875 -58 C 32.101562 -58.519531 32.941406 -59.425781 34.234375 -60.71875 C 35.523438 -62.007812 36.898438 -63.171875 38.359375 -64.203125 C 39.828125 -65.234375 41.722656 -66.160156 44.046875 -66.984375 C 46.378906 -67.804688 48.75 -68.21875 51.15625 -68.21875 C 53.65625 -68.21875 56.109375 -67.867188 58.515625 -67.171875 C 60.929688 -66.484375 62.695312 -65.796875 63.8125 -65.109375 L 65.625 -64.078125 L 56.0625 -44.703125 C 53.21875 -47.109375 49.257812 -48.3125 44.1875 -48.3125 C 41.425781 -48.3125 39.054688 -47.707031 37.078125 -46.5 C 35.097656 -45.300781 33.695312 -43.835938 32.875 -42.109375 C 32.0625 -40.390625 31.484375 -38.925781 31.140625 -37.71875 C 30.796875 -36.519531 30.625 -35.570312 30.625 -34.875 L 30.625 0 Z M 7.75 0 "/></g></g></g><g fill="#000000" fill-opacity="1"><g transform="translate(254.198214, 725.357255)"><g><path d="M 7.75 0 L 7.75 -66.265625 L 30.625 -66.265625 L 30.625 -59.296875 L 30.875 -59.296875 C 36.820312 -65.242188 43.148438 -68.21875 49.859375 -68.21875 C 54.679688 -68.21875 59.203125 -67.222656 63.421875 -65.234375 C 67.648438 -63.253906 70.835938 -60.195312 72.984375 -56.0625 C 79.703125 -64.164062 87.023438 -68.21875 94.953125 -68.21875 C 102.015625 -68.21875 108.085938 -66.234375 113.171875 -62.265625 C 118.253906 -58.304688 120.796875 -52.109375 120.796875 -43.671875 L 120.796875 0 L 97.921875 0 L 97.921875 -37.46875 C 97.921875 -41 96.953125 -43.945312 95.015625 -46.3125 C 93.078125 -48.675781 90.171875 -49.859375 86.296875 -49.859375 C 82.941406 -49.859375 80.378906 -48.847656 78.609375 -46.828125 C 76.847656 -44.804688 75.878906 -42.375 75.703125 -39.53125 L 75.703125 0 L 52.84375 0 L 52.84375 -37.46875 C 52.84375 -41 51.875 -43.945312 49.9375 -46.3125 C 48 -48.675781 45.085938 -49.859375 41.203125 -49.859375 C 37.679688 -49.859375 35.035156 -48.757812 33.265625 -46.5625 C 31.503906 -44.375 30.625 -41.769531 30.625 -38.75 L 30.625 0 Z M 7.75 0 "/></g></g></g><g fill="#000000" fill-opacity="1"><g transform="translate(381.435416, 725.357255)"><g><path d="M 12.265625 -8.203125 C 6.066406 -14.960938 2.96875 -23.25 2.96875 -33.0625 C 2.96875 -42.882812 6.066406 -51.195312 12.265625 -58 C 18.472656 -64.8125 26.359375 -68.21875 35.921875 -68.21875 C 44.703125 -68.21875 51.9375 -65.457031 57.625 -59.9375 L 57.625 -66.265625 L 80.484375 -66.265625 L 80.484375 0 L 57.875 0 L 57.875 -7.5 L 57.625 -7.5 C 51.9375 -1.207031 44.703125 1.9375 35.921875 1.9375 C 26.359375 1.9375 18.472656 -1.441406 12.265625 -8.203125 Z M 31.71875 -44.3125 C 28.75 -41.382812 27.265625 -37.632812 27.265625 -33.0625 C 27.265625 -28.5 28.679688 -24.773438 31.515625 -21.890625 C 34.359375 -19.003906 38.109375 -17.5625 42.765625 -17.5625 C 47.242188 -17.5625 50.925781 -19.023438 53.8125 -21.953125 C 56.695312 -24.890625 58.140625 -28.597656 58.140625 -33.078125 C 58.140625 -37.640625 56.648438 -41.382812 53.671875 -44.3125 C 50.703125 -47.238281 47.066406 -48.703125 42.765625 -48.703125 C 38.367188 -48.703125 34.6875 -47.238281 31.71875 -44.3125 Z M 31.71875 -44.3125 "/></g></g></g><g fill="#000000" fill-opacity="1"><g transform="translate(469.6618, 725.357255)"><g><path d="M 64.46875 -21.96875 C 68.164062 -21.96875 71.757812 -22.523438 75.25 -23.640625 C 78.738281 -24.765625 81.300781 -25.84375 82.9375 -26.875 L 85.390625 -28.546875 L 95.734375 -7.875 C 95.390625 -7.625 94.914062 -7.28125 94.3125 -6.84375 C 93.707031 -6.414062 92.304688 -5.617188 90.109375 -4.453125 C 87.910156 -3.296875 85.5625 -2.285156 83.0625 -1.421875 C 80.570312 -0.554688 77.300781 0.21875 73.25 0.90625 C 69.195312 1.59375 65.019531 1.9375 60.71875 1.9375 C 50.8125 1.9375 41.421875 -0.492188 32.546875 -5.359375 C 23.679688 -10.222656 16.535156 -16.914062 11.109375 -25.4375 C 5.679688 -33.96875 2.96875 -43.1875 2.96875 -53.09375 C 2.96875 -60.582031 4.5625 -67.769531 7.75 -74.65625 C 10.9375 -81.550781 15.175781 -87.453125 20.46875 -92.359375 C 25.769531 -97.273438 31.953125 -101.195312 39.015625 -104.125 C 46.078125 -107.050781 53.3125 -108.515625 60.71875 -108.515625 C 67.601562 -108.515625 73.953125 -107.695312 79.765625 -106.0625 C 85.585938 -104.425781 89.703125 -102.789062 92.109375 -101.15625 L 95.734375 -98.703125 L 85.390625 -78.03125 C 84.785156 -78.539062 83.878906 -79.160156 82.671875 -79.890625 C 81.472656 -80.628906 79.0625 -81.601562 75.4375 -82.8125 C 71.820312 -84.019531 68.164062 -84.625 64.46875 -84.625 C 58.613281 -84.625 53.359375 -83.675781 48.703125 -81.78125 C 44.054688 -79.882812 40.375 -77.382812 37.65625 -74.28125 C 34.945312 -71.175781 32.878906 -67.835938 31.453125 -64.265625 C 30.035156 -60.691406 29.328125 -57.054688 29.328125 -53.359375 C 29.328125 -45.253906 32.363281 -37.992188 38.4375 -31.578125 C 44.507812 -25.171875 53.1875 -21.96875 64.46875 -21.96875 Z M 64.46875 -21.96875 "/></g></g></g><g fill="#000000" fill-opacity="1"><g transform="translate(566.93041, 725.357255)"><g><path d="M 29.328125 -66.265625 L 29.328125 -34.75 C 29.328125 -28.207031 30.316406 -23.554688 32.296875 -20.796875 C 34.273438 -18.046875 37.632812 -16.671875 42.375 -16.671875 C 47.113281 -16.671875 50.472656 -18.046875 52.453125 -20.796875 C 54.429688 -23.554688 55.421875 -28.207031 55.421875 -34.75 L 55.421875 -66.265625 L 78.28125 -66.265625 L 78.28125 -29.203125 C 78.28125 -18.171875 75.414062 -10.222656 69.6875 -5.359375 C 63.96875 -0.492188 54.863281 1.9375 42.375 1.9375 C 29.882812 1.9375 20.773438 -0.492188 15.046875 -5.359375 C 9.316406 -10.222656 6.453125 -18.171875 6.453125 -29.203125 L 6.453125 -66.265625 Z M 29.328125 -66.265625 "/></g></g></g><g fill="#000000" fill-opacity="1"><g transform="translate(651.669044, 725.357255)"><g><path d="M 7.75 0 L 7.75 -111.09375 L 30.625 -111.09375 L 30.625 0 Z M 7.75 0 "/></g></g></g><g fill="#000000" fill-opacity="1"><g transform="translate(690.03393, 725.357255)"><g><path d="M 11.625 -66.265625 L 11.625 -90.953125 L 34.5 -90.953125 L 34.5 -66.265625 L 48.453125 -66.265625 L 48.453125 -48.828125 L 34.5 -48.828125 L 34.5 -27.78125 C 34.5 -21.664062 36.21875 -18.609375 39.65625 -18.609375 C 40.519531 -18.609375 41.425781 -18.78125 42.375 -19.125 C 43.320312 -19.46875 44.050781 -19.8125 44.5625 -20.15625 L 45.34375 -20.671875 L 51.03125 -2.203125 C 46.125 0.554688 40.523438 1.9375 34.234375 1.9375 C 29.929688 1.9375 26.226562 1.1875 23.125 -0.3125 C 20.019531 -1.820312 17.671875 -3.847656 16.078125 -6.390625 C 14.484375 -8.929688 13.34375 -11.601562 12.65625 -14.40625 C 11.96875 -17.207031 11.625 -20.203125 11.625 -23.390625 L 11.625 -48.828125 L 2.0625 -48.828125 L 2.0625 -66.265625 Z M 11.625 -66.265625 "/></g></g></g></svg>