<svg xmlns="http://www.w3.org/2000/svg" xmlns:xlink="http://www.w3.org/1999/xlink" width="1024" zoomAndPan="magnify" viewBox="0 0 768 767.999994" height="1024" preserveAspectRatio="xMidYMid meet" version="1.0"><path fill="#f4b50b" d="M 374.320312 16.496094 C 374.320312 18.402344 374.796875 30.683594 375.378906 43.789062 C 375.960938 56.898438 377.246094 87.789062 378.234375 112.441406 C 379.222656 137.089844 380.664062 171.34375 381.441406 188.558594 C 382.21875 205.773438 382.851562 220.898438 382.855469 222.171875 L 382.855469 224.484375 L 409.066406 224.484375 L 409.464844 222.527344 C 409.683594 221.453125 411.320312 210.007812 413.097656 197.09375 C 414.878906 184.183594 418.078125 160.976562 420.207031 145.519531 C 422.339844 130.066406 426 103.492188 428.34375 86.472656 C 430.6875 69.453125 433.714844 47.523438 435.066406 37.742188 C 436.421875 27.960938 437.316406 19.765625 437.050781 19.527344 C 436.785156 19.289062 431.925781 18.699219 426.25 18.214844 C 400.945312 16.0625 378.074219 13.898438 376.277344 13.484375 C 374.347656 13.042969 374.320312 13.085938 374.320312 16.496094 M 324.132812 20.210938 C 323.761719 20.546875 313.53125 26.027344 301.402344 32.386719 C 289.273438 38.75 278.957031 44.273438 278.476562 44.660156 C 277.921875 45.105469 277.824219 45.789062 278.210938 46.53125 C 278.542969 47.175781 280.164062 52.34375 281.808594 58.019531 C 283.453125 63.691406 285.871094 71.855469 287.179688 76.160156 C 288.492188 80.460938 291.507812 90.464844 293.882812 98.390625 C 304.171875 132.714844 307.042969 142.257812 310.308594 152.988281 C 316.371094 172.910156 335.332031 236.117188 336.074219 238.890625 C 336.46875 240.359375 337.109375 241.558594 337.496094 241.558594 C 339.25 241.558594 357.246094 236.289062 357.246094 235.777344 C 357.246094 235.460938 350.363281 187.027344 341.953125 128.148438 C 333.539062 69.269531 326.65625 20.757812 326.65625 20.347656 C 326.65625 19.449219 325.074219 19.363281 324.132812 20.210938 M 512.332031 22.832031 C 502.261719 24.425781 492.1875 26.011719 482.117188 27.597656 L 471.46875 29.269531 L 470.574219 32.363281 C 470.082031 34.0625 467.765625 43.972656 465.421875 54.382812 C 462.691406 66.503906 459.953125 78.625 457.199219 90.742188 C 455.019531 100.328125 451.496094 115.855469 449.371094 125.246094 C 446.769531 136.746094 444.15625 148.25 441.535156 159.746094 C 437.644531 176.78125 431.238281 205.070312 429.71875 211.90625 C 429.300781 213.792969 429.070312 215.4375 429.207031 215.566406 C 430.902344 217.164062 443.664062 224.414062 444.03125 223.988281 C 444.304688 223.675781 445.996094 220.054688 447.789062 215.949219 C 449.578125 211.839844 454.628906 200.476562 459.011719 190.691406 C 463.394531 180.910156 469.054688 168.265625 471.59375 162.59375 C 474.136719 156.917969 477.582031 149.238281 479.257812 145.519531 C 482.226562 138.925781 486.617188 129.132812 496.320312 107.460938 C 498.949219 101.589844 502.542969 93.589844 504.308594 89.675781 C 506.070312 85.761719 509.363281 78.398438 511.625 73.3125 C 515.507812 64.585938 530.398438 31.460938 534.089844 23.335938 L 535.789062 19.601562 L 533.839844 19.667969 C 532.769531 19.707031 523.089844 21.128906 512.332031 22.832031 M 547.898438 62.78125 C 536.742188 84.890625 525.585938 107 514.429688 129.113281 C 502.234375 153.25 490.054688 177.390625 477.882812 201.53125 L 460.933594 235.136719 L 464.898438 239.980469 C 467.078125 242.648438 469.457031 245.363281 470.179688 246.019531 C 471.671875 247.371094 468.023438 252 505.910156 200.652344 C 508.507812 197.132812 514.1875 189.449219 518.527344 183.578125 L 534.140625 162.484375 C 539.660156 155.015625 545.179688 147.546875 550.695312 140.074219 C 555.554688 133.484375 562.136719 124.570312 565.320312 120.265625 L 577.289062 104.082031 C 585.464844 93.015625 593.648438 81.957031 601.839844 70.90625 C 605.429688 66.0625 608.367188 61.847656 608.367188 61.546875 C 608.367188 60.898438 601.363281 56.824219 566.664062 37.304688 C 564.660156 36.175781 562.742188 35.257812 562.398438 35.261719 C 562.054688 35.261719 555.53125 47.648438 547.898438 62.78125 M 225.640625 81.652344 C 225.640625 82.128906 229.285156 90.210938 233.746094 99.613281 C 238.203125 109.015625 249.207031 132.234375 258.203125 151.210938 C 267.195312 170.1875 281.765625 200.917969 290.578125 219.503906 C 299.390625 238.089844 307.414062 255.136719 308.410156 257.386719 C 309.402344 259.636719 310.472656 261.460938 310.789062 261.441406 C 311.105469 261.425781 313.425781 259.511719 315.953125 257.191406 L 320.539062 252.976562 L 317.664062 246.734375 C 308.402344 226.625 238.734375 81.761719 238.117188 81.328125 C 236.796875 80.394531 225.640625 80.683594 225.640625 81.652344 M 634.199219 89.851562 C 621.507812 104.9375 587.421875 145.769531 585.605469 148.070312 C 584.625 149.308594 562.925781 175.351562 537.382812 205.945312 L 490.9375 261.566406 L 492.832031 263.832031 C 498.6875 270.835938 499.5625 271.578125 500.804688 270.597656 C 502.261719 269.449219 562.902344 213.574219 576.710938 200.660156 C 583.210938 194.589844 589.730469 188.542969 596.273438 182.519531 C 647.457031 135.492188 678.082031 106.832031 677.601562 106.417969 C 676.308594 105.304688 641.886719 81.496094 641.574219 81.496094 C 641.386719 81.496094 638.066406 85.253906 634.199219 89.851562 M 162.902344 102.226562 C 160.621094 105.324219 158.339844 108.421875 156.0625 111.519531 C 154.421875 113.753906 153.078125 115.832031 153.082031 116.144531 C 153.089844 116.453125 156.527344 120.414062 160.730469 124.945312 C 164.933594 129.472656 178.132812 143.71875 190.058594 156.601562 C 206.53125 174.382812 223.011719 192.148438 239.5 209.90625 C 254.765625 226.339844 274.425781 247.550781 283.191406 257.035156 C 291.957031 266.519531 299.394531 274.28125 299.71875 274.28125 C 300.046875 274.28125 301.15625 272.617188 302.183594 270.582031 C 304.414062 266.1875 304.960938 267.375 295.070312 255.171875 C 286.75 244.910156 251.582031 201.4375 239.238281 186.15625 C 234.691406 180.535156 225.851562 169.609375 219.59375 161.886719 C 213.332031 154.160156 204.527344 143.273438 200.027344 137.691406 C 180.195312 113.089844 169.179688 99.539062 168.015625 98.316406 C 166.800781 97.039062 166.628906 97.171875 162.902344 102.226562 M 679.507812 143.898438 C 669.921875 152.742188 647.84375 172.972656 630.441406 188.851562 C 544.804688 267.011719 514.800781 294.492188 514.613281 294.941406 C 514.3125 295.667969 521.585938 302.414062 522.425781 302.179688 C 522.820312 302.070312 529.753906 296.804688 537.832031 290.476562 C 560.96875 272.371094 584.125 254.285156 607.296875 236.222656 C 631.148438 217.632812 654.980469 199.015625 678.796875 180.375 C 687.992188 173.175781 699.195312 164.429688 703.695312 160.945312 C 708.195312 157.457031 711.964844 154.242188 712.066406 153.796875 C 712.175781 153.351562 710.878906 150.589844 709.191406 147.652344 C 706.773438 143.445312 704.355469 139.234375 701.9375 135.027344 C 699.636719 131.015625 697.570312 127.753906 697.34375 127.777344 C 697.121094 127.796875 689.09375 135.054688 679.507812 143.898438 M 90.179688 168.097656 C 82.179688 178.964844 80.035156 182.324219 80.710938 182.953125 C 81.191406 183.398438 86.0625 186.164062 91.542969 189.09375 C 97.019531 192.023438 107.261719 197.542969 114.304688 201.359375 C 121.347656 205.171875 131.273438 210.542969 136.359375 213.289062 C 141.445312 216.035156 151.210938 221.320312 158.054688 225.03125 C 164.902344 228.742188 174.507812 233.9375 179.398438 236.574219 C 206.613281 251.25 216.746094 256.71875 223.148438 260.199219 C 244.917969 272.027344 277.957031 289.851562 282.765625 292.367188 L 288.316406 295.269531 L 294.660156 288.355469 L 290.5625 285.460938 C 288.308594 283.871094 278.78125 277.234375 269.390625 270.714844 C 259.78125 264.042969 250.175781 257.363281 240.578125 250.679688 C 207.453125 227.589844 172.59375 203.316406 160.546875 194.960938 C 153.113281 189.800781 141.585938 181.785156 134.9375 177.148438 C 106.054688 157.007812 101.738281 154.054688 101.148438 154.054688 C 100.804688 154.054688 95.867188 160.375 90.179688 168.097656 M 729.660156 228.359375 C 713.238281 235.101562 675.703125 250.386719 645.714844 262.546875 C 638.71875 265.382812 631.722656 268.226562 624.730469 271.082031 C 615.324219 274.921875 601.953125 280.363281 576.710938 290.621094 C 560.457031 297.226562 536.457031 307.007812 529.972656 309.671875 L 527.339844 310.75 L 529.167969 314.390625 C 530.175781 316.394531 531.113281 318.160156 531.25 318.3125 C 531.5 318.589844 534.480469 317.578125 546.832031 313.023438 C 550.355469 311.726562 560.917969 307.890625 570.308594 304.503906 C 612.828125 289.164062 629.121094 283.257812 635.402344 280.910156 C 639.890625 279.242188 644.394531 277.617188 648.917969 276.042969 C 652.636719 274.753906 662.238281 271.296875 670.261719 268.359375 C 678.28125 265.421875 692.527344 260.246094 701.917969 256.859375 C 734.335938 245.164062 742.46875 242.15625 742.929688 241.679688 C 743.570312 241.019531 740.382812 224.964844 739.566406 224.742188 C 739.207031 224.644531 734.746094 226.273438 729.660156 228.359375 M 63.496094 242.878906 C 62.75 244.277344 54.519531 263.460938 49.933594 274.496094 C 48.664062 277.550781 47.742188 280.148438 47.886719 280.269531 C 48.03125 280.394531 52.628906 281.683594 58.105469 283.132812 C 63.582031 284.582031 72.707031 287.003906 78.378906 288.515625 C 84.054688 290.027344 96.699219 293.386719 106.480469 295.984375 C 116.261719 298.582031 131.308594 302.585938 139.917969 304.882812 C 148.523438 307.179688 162.929688 311.019531 171.929688 313.414062 C 180.929688 315.808594 192.933594 319.007812 198.605469 320.523438 C 207.972656 323.019531 217.339844 325.511719 226.707031 327.996094 C 236.488281 330.59375 249.761719 334.132812 256.207031 335.855469 C 262.652344 337.582031 268.148438 338.757812 268.421875 338.472656 C 269.011719 337.851562 272.808594 324.050781 272.46875 323.742188 C 272.230469 323.523438 267.585938 321.683594 230.261719 307.003906 C 218.523438 302.390625 201.878906 295.828125 193.269531 292.421875 C 153.976562 276.882812 146.996094 274.121094 135.648438 269.660156 C 128.996094 267.042969 117.632812 262.558594 110.394531 259.691406 C 103.15625 256.828125 90.191406 251.699219 81.582031 248.296875 C 72.972656 244.898438 65.554688 241.964844 65.097656 241.78125 C 64.636719 241.597656 63.917969 242.089844 63.496094 242.878906 M 396.019531 241.992188 C 364.195312 246.683594 333.433594 263.542969 307.058594 290.742188 C 281.152344 317.457031 270.996094 363.859375 283.023438 400.554688 C 290.253906 422.628906 305.589844 440.902344 328.078125 454.253906 C 345.664062 464.691406 368.863281 472.457031 394.316406 476.429688 C 407.902344 478.550781 434.226562 478.75 444.746094 476.808594 C 492.789062 467.953125 522.871094 431.992188 527.292969 378.144531 C 528.691406 361.097656 527.128906 347.089844 522.246094 332.933594 C 510.621094 299.210938 483.800781 267.882812 453.613281 252.757812 C 438.675781 245.273438 426.5625 242.273438 409.890625 241.921875 C 403.433594 241.789062 397.191406 241.820312 396.019531 241.992188 M 535.628906 335.847656 C 534.679688 336.84375 535 347.570312 535.984375 347.882812 C 536.472656 348.042969 548.878906 349.3125 563.550781 350.707031 C 607.640625 354.898438 640.75 358.089844 667.414062 360.714844 C 718.042969 365.703125 745.921875 368.242188 746.726562 367.929688 C 747.332031 367.699219 747.128906 365.15625 745.984375 358.472656 C 745.121094 353.445312 744.203125 347.859375 743.945312 346.058594 L 743.476562 342.78125 L 729.808594 342.300781 C 699.929688 341.246094 636.644531 338.933594 601.609375 337.609375 C 545.105469 335.476562 536.207031 335.242188 535.628906 335.847656 M 9.292969 346.585938 C 9.25 346.921875 9.289062 347.839844 9.378906 348.621094 C 9.472656 349.40625 10.230469 358.527344 11.0625 368.898438 L 12.578125 387.75 L 21.824219 387.570312 C 26.910156 387.476562 51.882812 386.277344 77.3125 384.910156 C 102.746094 383.546875 142.761719 381.460938 166.238281 380.277344 C 225.609375 377.285156 260.695312 375.328125 261.742188 374.953125 C 262.273438 374.761719 262.632812 373.347656 262.632812 371.421875 C 262.632812 367.570312 263.421875 367.835938 248.757812 366.765625 C 242.890625 366.339844 225.441406 364.871094 209.988281 363.503906 C 194.53125 362.136719 166.84375 359.746094 148.453125 358.191406 C 130.0625 356.636719 110.054688 354.894531 103.992188 354.324219 C 97.925781 353.75 75.515625 351.828125 54.191406 350.054688 C 32.867188 348.277344 14.0625 346.632812 12.398438 346.398438 C 10.734375 346.164062 9.339844 346.246094 9.292969 346.585938 M 540.074219 374.09375 L 540.074219 380 L 582.9375 390.542969 C 712.207031 422.347656 753.070312 432.253906 753.804688 431.96875 C 754.910156 431.546875 758.675781 405.03125 757.71875 404.441406 C 757.328125 404.199219 718.84375 397.667969 672.195312 389.921875 C 636.273438 383.949219 600.335938 377.980469 564.382812 372.015625 C 551.730469 369.910156 541.085938 368.1875 540.730469 368.1875 C 540.371094 368.1875 540.074219 370.84375 540.074219 374.09375 M 254.449219 385.691406 C 251.710938 386.246094 239.386719 388.457031 227.0625 390.605469 C 189.121094 397.222656 128.574219 407.855469 79.09375 416.589844 C 66.800781 418.753906 54.507812 420.902344 42.214844 423.027344 C 31.125 424.945312 21.765625 426.691406 21.417969 426.90625 C 21.070312 427.125 21.527344 428.484375 22.441406 429.933594 C 23.351562 431.382812 27.054688 437.769531 30.664062 444.128906 C 34.277344 450.484375 37.386719 455.6875 37.574219 455.6875 C 37.980469 455.6875 59.945312 449.863281 68.421875 447.507812 C 71.746094 446.582031 82.953125 443.542969 93.320312 440.75 C 103.6875 437.957031 118.015625 434.09375 125.15625 432.164062 L 151.121094 425.144531 C 158.261719 423.214844 172.585938 419.351562 182.957031 416.558594 C 193.324219 413.769531 207.570312 409.925781 214.613281 408.023438 C 238.109375 401.664062 256.539062 396.75 261.207031 395.589844 C 268.085938 393.890625 267.800781 394.140625 265.945312 391.402344 C 265.03125 390.058594 263.875 387.96875 263.371094 386.753906 C 262.328125 384.238281 261.886719 384.183594 254.449219 385.691406 M 535.542969 393.582031 C 535.296875 393.832031 535.09375 396.03125 535.09375 398.476562 L 535.09375 402.921875 L 544.875 408.21875 C 550.257812 411.136719 558.019531 415.289062 562.128906 417.449219 C 566.234375 419.609375 582.402344 428.175781 598.054688 436.480469 C 613.703125 444.785156 637.394531 457.347656 650.695312 464.402344 C 664 471.453125 681.925781 480.980469 690.535156 485.574219 C 726.964844 505.007812 733.726562 508.457031 734.203125 507.875 C 737.363281 504.039062 751.402344 481.785156 750.925781 481.367188 C 750.578125 481.0625 738.605469 476.0625 724.324219 470.253906 C 712.230469 465.339844 700.136719 460.417969 688.042969 455.488281 C 682.371094 453.171875 673.566406 449.585938 668.480469 447.515625 C 663.394531 445.445312 654.910156 441.988281 649.628906 439.832031 C 644.347656 437.675781 617.257812 426.628906 589.429688 415.285156 C 561.597656 403.9375 538.191406 394.3125 537.410156 393.894531 C 536.632812 393.476562 535.792969 393.335938 535.542969 393.582031 M 162.734375 442.429688 C 105.636719 462.070312 58.828125 478.449219 58.710938 478.828125 C 58.59375 479.207031 59.710938 486.5625 61.195312 495.167969 C 63.3125 507.472656 64.105469 510.769531 64.90625 510.582031 C 65.46875 510.453125 76.011719 505.679688 88.335938 499.976562 C 105.402344 492.074219 122.476562 484.1875 139.558594 476.316406 C 149.554688 471.710938 157.832031 467.878906 192.558594 451.769531 C 205.863281 445.601562 220.429688 438.867188 224.925781 436.808594 C 231.574219 433.757812 238.214844 430.695312 244.847656 427.617188 C 251.910156 424.34375 258.976562 421.082031 266.050781 417.832031 L 275.519531 413.492188 L 272.125 410.046875 C 270.257812 408.152344 268.238281 406.628906 267.636719 406.664062 C 267.035156 406.695312 219.828125 422.792969 162.734375 442.429688 M 529.570312 418.648438 L 527.390625 423.582031 L 553.46875 447.636719 C 569.496094 462.421875 585.542969 477.191406 601.605469 491.941406 C 615.023438 504.261719 628.421875 516.601562 641.804688 528.960938 C 655.230469 541.359375 668.671875 553.75 682.121094 566.125 L 704.300781 586.523438 L 716.089844 574.011719 C 722.578125 567.128906 727.882812 561.238281 727.882812 560.917969 C 727.882812 560.597656 721.558594 555.578125 713.832031 549.757812 C 686.820312 529.410156 633.238281 489.105469 585.960938 453.570312 C 559.746094 433.863281 537.183594 416.835938 535.820312 415.730469 C 534.460938 414.621094 532.988281 413.714844 532.550781 413.714844 C 532.109375 413.714844 530.769531 415.933594 529.570312 418.648438 M 271.878906 426.753906 C 266.722656 429.703125 264.492188 430.960938 244.492188 442.164062 C 239.625 444.886719 234.761719 447.621094 229.90625 450.363281 C 217.519531 457.378906 206.589844 463.519531 178.6875 479.144531 C 162.449219 488.238281 146.761719 497.039062 143.828125 498.707031 C 139.09375 501.386719 134.347656 504.058594 129.601562 506.71875 C 123.667969 510.042969 117.742188 513.375 111.816406 516.710938 C 104.589844 520.773438 97.359375 524.820312 90.117188 528.851562 C 83.074219 532.769531 76.714844 536.410156 75.984375 536.941406 C 74.707031 537.863281 74.757812 538.113281 77.242188 543.050781 L 79.835938 548.199219 L 107.742188 534.050781 C 151.289062 511.972656 278.757812 447.785156 284.503906 445.042969 C 287.339844 443.6875 289.660156 442.25 289.65625 441.84375 C 289.652344 441.4375 287.253906 437.429688 284.320312 432.941406 C 281.390625 428.453125 278.992188 424.53125 278.992188 424.226562 C 278.992188 423.097656 277.078125 423.78125 271.878906 426.753906 M 526.433594 440.851562 C 524.25 444.1875 521.5 450.132812 521.714844 451.054688 C 521.894531 451.835938 573.675781 506.960938 601.242188 535.71875 C 605.367188 540.023438 619.625 555.058594 632.921875 569.132812 C 675.007812 613.675781 676.996094 615.75 677.636719 615.75 C 678.214844 615.75 682.390625 611.296875 685.429688 607.4375 L 686.726562 605.789062 L 672.992188 591.386719 C 599.734375 514.539062 539.964844 451.9375 534.359375 446.1875 L 527.527344 439.179688 Z M 290.375 464.328125 C 272.847656 473.703125 227.125 497.933594 186.511719 519.367188 C 172.230469 526.90625 154.929688 536.070312 148.0625 539.730469 C 141.195312 543.394531 125.269531 551.832031 112.671875 558.484375 C 100.074219 565.136719 89.769531 570.871094 89.765625 571.226562 C 89.765625 571.585938 93.476562 577.585938 98.019531 584.5625 C 103.183594 592.5 106.578125 597.070312 107.089844 596.773438 C 108.59375 595.894531 136.425781 577.886719 153.078125 567.011719 C 157.96875 563.820312 195.261719 539.660156 235.953125 513.324219 C 276.644531 486.992188 310.195312 465.214844 310.511719 464.9375 C 311.1875 464.339844 308.082031 456.234375 307.070312 455.957031 C 306.691406 455.851562 299.179688 459.617188 290.375 464.328125 M 303.179688 491.769531 C 296.332031 499.046875 280.167969 516.09375 267.253906 529.644531 C 254.34375 543.199219 238.015625 560.363281 230.972656 567.785156 C 223.929688 575.210938 206.039062 594.023438 191.214844 609.59375 C 168.566406 633.378906 164.414062 638.054688 165.246094 638.835938 C 167.863281 641.289062 186.652344 656.296875 187.085938 656.28125 C 187.355469 656.269531 190.621094 652.378906 194.335938 647.636719 C 201.78125 638.140625 210.925781 626.5625 233.578125 597.964844 C 238.074219 592.292969 249.070312 578.367188 258.019531 567.019531 C 281.628906 537.078125 298.128906 516.171875 309.902344 501.28125 C 315.59375 494.078125 320.253906 487.9375 320.253906 487.632812 C 320.253906 486.617188 316.515625 478.449219 316.070312 478.492188 C 315.828125 478.515625 310.027344 484.492188 303.179688 491.769531 M 475.183594 481.40625 L 471.117188 484.324219 L 476.945312 491.882812 C 480.152344 496.039062 489.984375 508.730469 498.796875 520.089844 C 507.609375 531.449219 520.101562 547.558594 526.558594 555.886719 C 543.332031 577.535156 562.378906 602.0625 573.511719 616.355469 C 578.792969 623.136719 583.753906 629.546875 584.535156 630.605469 C 585.320312 631.664062 589.308594 636.835938 593.398438 642.101562 C 597.492188 647.367188 608.171875 661.121094 617.132812 672.660156 C 626.089844 684.203125 633.628906 693.722656 633.878906 693.8125 C 634.128906 693.902344 635.957031 691.660156 637.941406 688.832031 C 639.925781 686.003906 644.183594 680.050781 647.40625 675.609375 C 653.160156 667.667969 653.242188 667.5 651.980469 666.035156 C 650.074219 663.820312 610.28125 620.253906 567.070312 573.066406 C 546.109375 550.179688 518.144531 519.605469 504.925781 505.128906 C 491.703125 490.652344 480.519531 478.734375 480.070312 478.648438 C 479.617188 478.558594 477.421875 479.800781 475.183594 481.40625 M 331.171875 491.789062 C 330.5625 493.257812 328.378906 498.140625 326.316406 502.640625 C 323.449219 508.910156 320.609375 515.195312 317.792969 521.492188 C 315.191406 527.308594 312.570312 533.117188 309.933594 538.921875 C 306.820312 545.738281 303.765625 552.503906 294.992188 572 C 292.351562 577.867188 288.671875 586.03125 286.8125 590.140625 C 284.085938 596.183594 281.363281 602.230469 278.652344 608.28125 C 275.941406 614.335938 273.210938 620.382812 270.460938 626.421875 C 268.582031 630.53125 264.746094 639.011719 261.933594 645.273438 C 253.90625 663.160156 251.332031 668.847656 247.136719 677.996094 C 240.582031 692.277344 238.371094 697.773438 238.953125 698.304688 C 239.625 698.917969 254.21875 703.25 255.605469 703.25 C 256.144531 703.25 257.277344 701.410156 258.125 699.160156 C 258.972656 696.910156 261.960938 689.46875 264.765625 682.621094 C 267.574219 675.773438 273.160156 662.007812 277.1875 652.03125 C 281.683594 640.882812 286.191406 629.738281 290.710938 618.597656 C 295.515625 606.742188 300.3125 594.886719 305.105469 583.027344 C 321.804688 541.6875 340.40625 495.800781 341.367188 493.5625 C 341.722656 492.742188 334.90625 489.121094 333.003906 489.121094 C 332.601562 489.121094 331.777344 490.324219 331.171875 491.789062 M 359.851562 500.328125 C 359.527344 500.859375 357.460938 510.21875 349.773438 546.035156 C 347.175781 558.128906 344.570312 570.222656 341.957031 582.316406 C 336.597656 607.09375 331.257812 631.871094 325.933594 656.65625 C 323.578125 667.609375 319.921875 684.578125 317.808594 694.359375 C 311.214844 724.855469 310.726562 727.445312 311.417969 728.113281 C 311.933594 728.617188 345.007812 736.253906 349.421875 736.890625 C 350.78125 737.085938 349.9375 744.441406 359.039062 653.097656 C 360.664062 636.851562 362.3125 620.609375 363.984375 604.367188 C 365.570312 588.957031 367.117188 573.542969 368.628906 558.128906 C 369.832031 545.804688 371.601562 528.421875 372.566406 519.507812 C 373.53125 510.589844 374.320312 502.507812 374.320312 501.542969 C 374.320312 499.800781 374.289062 499.792969 367.25 499.792969 C 363.359375 499.792969 360.03125 500.03125 359.851562 500.328125 M 443.59375 506.578125 C 443.824219 507.179688 445.644531 512.863281 447.644531 519.207031 C 449.75 525.898438 451.871094 532.589844 454 539.277344 C 455.503906 543.972656 459.019531 555.175781 461.820312 564.175781 C 464.621094 573.171875 468.144531 584.378906 469.648438 589.074219 C 471.148438 593.769531 474.671875 604.972656 477.472656 613.972656 C 480.273438 622.972656 483.796875 634.175781 485.300781 638.871094 C 486.804688 643.566406 490.320312 654.769531 493.117188 663.769531 C 495.910156 672.769531 500.449219 687.335938 503.203125 696.136719 L 512.101562 724.59375 C 515.839844 736.546875 520.972656 752.566406 521.140625 752.808594 C 521.34375 753.097656 555.171875 748.859375 555.53125 748.503906 C 555.949219 748.082031 553.734375 742.347656 544.628906 720.324219 C 541.636719 713.085938 537.832031 703.804688 536.171875 699.695312 C 534.515625 695.585938 529.066406 682.300781 524.070312 670.171875 C 519.074219 658.042969 513.632812 644.757812 511.980469 640.648438 C 510.324219 636.539062 506.648438 627.578125 503.804688 620.730469 C 500.964844 613.882812 497.277344 604.917969 495.609375 600.8125 C 493.945312 596.703125 488.824219 584.21875 484.234375 573.066406 C 480.183594 563.230469 476.144531 553.390625 472.121094 543.542969 C 469.066406 536.066406 465.992188 528.597656 462.894531 521.136719 C 459.894531 513.898438 457.265625 507.414062 457.058594 506.730469 C 456.730469 505.65625 455.734375 505.484375 449.925781 505.484375 C 444.144531 505.484375 443.234375 505.640625 443.59375 506.578125 M 386.855469 524.160156 C 386.621094 532.863281 386.261719 551.191406 386.054688 564.886719 C 385.527344 599.964844 384.335938 670.433594 383.589844 710.722656 C 383.242188 729.503906 383.175781 745.0625 383.441406 745.296875 C 384.132812 745.917969 402.15625 748.925781 402.585938 748.496094 C 402.78125 748.300781 402.097656 694.902344 401.066406 629.835938 C 400.035156 564.769531 399.195312 510.8125 399.203125 509.929688 C 399.21875 508.398438 398.96875 508.328125 393.25 508.328125 L 387.285156 508.328125 Z M 415.917969 509.929688 C 416.265625 511.46875 418.4375 527.511719 425.242188 578.757812 C 426.980469 591.867188 429.507812 610.59375 430.859375 620.375 C 432.207031 630.15625 434.464844 646.804688 435.875 657.367188 C 441.878906 702.332031 444.015625 718.238281 446.605469 737.222656 L 449.347656 757.316406 L 460.089844 757.316406 C 466 757.316406 470.996094 757.152344 471.199219 756.953125 C 471.398438 756.75 470.964844 753.148438 470.234375 748.949219 C 468.835938 740.914062 453.757812 652.609375 449.007812 624.644531 C 447.480469 615.644531 443.792969 594.035156 440.820312 576.625 C 437.84375 559.210938 434.15625 537.445312 432.625 528.25 C 431.089844 519.054688 429.664062 510.8125 429.453125 509.929688 C 429.089844 508.410156 428.734375 508.328125 422.3125 508.328125 C 415.671875 508.328125 415.558594 508.359375 415.917969 509.929688 " fill-opacity="1" fill-rule="evenodd"/></svg>