<svg xmlns="http://www.w3.org/2000/svg" xmlns:xlink="http://www.w3.org/1999/xlink" width="1024" zoomAndPan="magnify" viewBox="0 0 768 116.999995" height="156" preserveAspectRatio="xMidYMid meet" version="1.0"><defs><g/></defs><g fill="#000000" fill-opacity="1"><g transform="translate(43.237594, 44.867433)"><g><path d="M 2.71875 -37.390625 L 13.546875 -37.390625 C 18.742188 -37.390625 23.1875 -35.613281 26.875 -32.0625 C 30.5625 -28.519531 32.40625 -24.070312 32.40625 -18.71875 C 32.40625 -13.34375 30.566406 -8.878906 26.890625 -5.328125 C 23.222656 -1.773438 18.773438 0 13.546875 0 L 2.71875 0 Z M 11.234375 -7.609375 L 12.5625 -7.609375 C 15.664062 -7.609375 18.207031 -8.660156 20.1875 -10.765625 C 22.164062 -12.867188 23.171875 -15.503906 23.203125 -18.671875 C 23.203125 -21.847656 22.210938 -24.492188 20.234375 -26.609375 C 18.253906 -28.722656 15.695312 -29.78125 12.5625 -29.78125 L 11.234375 -29.78125 Z M 11.234375 -7.609375 "/></g></g></g><g fill="#000000" fill-opacity="1"><g transform="translate(76.689713, 44.867433)"><g><path d="M 11.234375 -37.390625 L 11.234375 0 L 2.71875 0 L 2.71875 -37.390625 Z M 11.234375 -37.390625 "/></g></g></g><g fill="#000000" fill-opacity="1"><g transform="translate(90.65076, 44.867433)"><g><path d="M 36.53125 -20.9375 L 36.53125 -12.828125 C 35.5625 -8.390625 33.445312 -5.023438 30.1875 -2.734375 C 26.925781 -0.453125 23.285156 0.6875 19.265625 0.6875 C 14.210938 0.6875 9.910156 -1.203125 6.359375 -4.984375 C 2.816406 -8.765625 1.046875 -13.328125 1.046875 -18.671875 C 1.046875 -24.109375 2.78125 -28.703125 6.25 -32.453125 C 9.726562 -36.203125 14.066406 -38.078125 19.265625 -38.078125 C 25.335938 -38.078125 30.140625 -35.945312 33.671875 -31.6875 L 28.109375 -25.5625 C 26.109375 -28.769531 23.328125 -30.375 19.765625 -30.375 C 17.128906 -30.375 14.882812 -29.234375 13.03125 -26.953125 C 11.175781 -24.671875 10.25 -21.910156 10.25 -18.671875 C 10.25 -15.503906 11.175781 -12.789062 13.03125 -10.53125 C 14.882812 -8.28125 17.128906 -7.15625 19.765625 -7.15625 C 21.941406 -7.15625 23.835938 -7.8125 25.453125 -9.125 C 27.066406 -10.445312 27.875 -12.195312 27.875 -14.375 L 19.265625 -14.375 L 19.265625 -20.9375 Z M 36.53125 -20.9375 "/></g></g></g><g fill="#000000" fill-opacity="1"><g transform="translate(128.227742, 44.867433)"><g><path d="M 11.234375 -37.390625 L 11.234375 0 L 2.71875 0 L 2.71875 -37.390625 Z M 11.234375 -37.390625 "/></g></g></g><g fill="#000000" fill-opacity="1"><g transform="translate(142.188789, 44.867433)"><g><path d="M 0.359375 -29.921875 L 0.359375 -37.390625 L 26.65625 -37.390625 L 26.65625 -29.921875 L 17.765625 -29.921875 L 17.765625 0 L 9.25 0 L 9.25 -29.921875 Z M 0.359375 -29.921875 "/></g></g></g><g fill="#000000" fill-opacity="1"><g transform="translate(169.204327, 44.867433)"><g><path d="M 21.71875 -37.390625 L 36.8125 0 L 27.65625 0 L 24.890625 -7.484375 L 10.65625 -7.484375 L 7.890625 0 L -1.265625 0 L 13.828125 -37.390625 Z M 21.984375 -14.953125 L 17.8125 -25.84375 L 17.71875 -25.84375 L 13.546875 -14.953125 Z M 21.984375 -14.953125 "/></g></g></g><g fill="#000000" fill-opacity="1"><g transform="translate(204.741537, 44.867433)"><g><path d="M 11.234375 -37.390625 L 11.234375 -7.484375 L 24.109375 -7.484375 L 24.109375 0 L 2.71875 0 L 2.71875 -37.390625 Z M 11.234375 -37.390625 "/></g></g></g><g fill="#000000" fill-opacity="1"><g transform="translate(230.351902, 44.867433)"><g/></g></g><g fill="#000000" fill-opacity="1"><g transform="translate(242.726454, 44.867433)"><g><path d="M 22.625 -7.703125 C 23.914062 -7.703125 25.171875 -7.898438 26.390625 -8.296875 C 27.617188 -8.691406 28.519531 -9.066406 29.09375 -9.421875 L 29.96875 -10.015625 L 33.59375 -2.765625 C 33.46875 -2.671875 33.296875 -2.546875 33.078125 -2.390625 C 32.867188 -2.242188 32.378906 -1.96875 31.609375 -1.5625 C 30.835938 -1.15625 30.015625 -0.800781 29.140625 -0.5 C 28.265625 -0.195312 27.117188 0.0703125 25.703125 0.3125 C 24.285156 0.5625 22.816406 0.6875 21.296875 0.6875 C 17.828125 0.6875 14.535156 -0.164062 11.421875 -1.875 C 8.304688 -3.582031 5.796875 -5.929688 3.890625 -8.921875 C 1.992188 -11.921875 1.046875 -15.15625 1.046875 -18.625 C 1.046875 -21.257812 1.601562 -23.785156 2.71875 -26.203125 C 3.832031 -28.617188 5.316406 -30.6875 7.171875 -32.40625 C 9.035156 -34.132812 11.207031 -35.507812 13.6875 -36.53125 C 16.164062 -37.5625 18.703125 -38.078125 21.296875 -38.078125 C 23.722656 -38.078125 25.953125 -37.789062 27.984375 -37.21875 C 30.023438 -36.644531 31.46875 -36.066406 32.3125 -35.484375 L 33.59375 -34.625 L 29.96875 -27.375 C 29.75 -27.5625 29.425781 -27.78125 29 -28.03125 C 28.582031 -28.289062 27.738281 -28.628906 26.46875 -29.046875 C 25.195312 -29.472656 23.914062 -29.6875 22.625 -29.6875 C 20.5625 -29.6875 18.710938 -29.351562 17.078125 -28.6875 C 15.453125 -28.03125 14.160156 -27.15625 13.203125 -26.0625 C 12.253906 -24.976562 11.53125 -23.804688 11.03125 -22.546875 C 10.539062 -21.296875 10.296875 -20.019531 10.296875 -18.71875 C 10.296875 -15.875 11.359375 -13.328125 13.484375 -11.078125 C 15.617188 -8.828125 18.664062 -7.703125 22.625 -7.703125 Z M 22.625 -7.703125 "/></g></g></g><g fill="#000000" fill-opacity="1"><g transform="translate(276.858501, 44.867433)"><g><path d="M 1.046875 -18.71875 C 1.046875 -24.125 2.890625 -28.703125 6.578125 -32.453125 C 10.265625 -36.203125 14.707031 -38.078125 19.90625 -38.078125 C 25.125 -38.078125 29.5625 -36.207031 33.21875 -32.46875 C 36.875 -28.738281 38.703125 -24.15625 38.703125 -18.71875 C 38.703125 -13.25 36.90625 -8.644531 33.3125 -4.90625 C 29.71875 -1.175781 25.25 0.6875 19.90625 0.6875 C 14.425781 0.6875 9.910156 -1.160156 6.359375 -4.859375 C 2.816406 -8.566406 1.046875 -13.1875 1.046875 -18.71875 Z M 10.25 -18.71875 C 10.25 -16.757812 10.550781 -14.96875 11.15625 -13.34375 C 11.757812 -11.726562 12.816406 -10.359375 14.328125 -9.234375 C 15.835938 -8.117188 17.695312 -7.5625 19.90625 -7.5625 C 23.070312 -7.5625 25.460938 -8.648438 27.078125 -10.828125 C 28.703125 -13.003906 29.515625 -15.632812 29.515625 -18.71875 C 29.515625 -21.769531 28.6875 -24.390625 27.03125 -26.578125 C 25.382812 -28.773438 23.007812 -29.875 19.90625 -29.875 C 16.820312 -29.875 14.441406 -28.773438 12.765625 -26.578125 C 11.085938 -24.390625 10.25 -21.769531 10.25 -18.71875 Z M 10.25 -18.71875 "/></g></g></g><g fill="#000000" fill-opacity="1"><g transform="translate(316.611221, 44.867433)"><g><path d="M 11.234375 -23.203125 L 11.234375 0 L 2.71875 0 L 2.71875 -37.390625 L 11.234375 -37.390625 L 26.109375 -14.1875 L 26.203125 -14.1875 L 26.203125 -37.390625 L 34.71875 -37.390625 L 34.71875 0 L 26.203125 0 L 11.328125 -23.203125 Z M 11.234375 -23.203125 "/></g></g></g><g fill="#000000" fill-opacity="1"><g transform="translate(354.052213, 44.867433)"><g><path d="M 16.5 -38.078125 C 18.519531 -38.078125 20.5 -37.78125 22.4375 -37.1875 C 24.375 -36.601562 25.8125 -36.023438 26.75 -35.453125 L 28.109375 -34.546875 L 24.65625 -27.734375 C 24.382812 -27.921875 24.003906 -28.15625 23.515625 -28.4375 C 23.035156 -28.726562 22.128906 -29.113281 20.796875 -29.59375 C 19.472656 -30.082031 18.238281 -30.328125 17.09375 -30.328125 C 15.664062 -30.328125 14.566406 -30.023438 13.796875 -29.421875 C 13.023438 -28.816406 12.640625 -28 12.640625 -26.96875 C 12.640625 -26.457031 12.820312 -25.984375 13.1875 -25.546875 C 13.550781 -25.109375 14.171875 -24.640625 15.046875 -24.140625 C 15.921875 -23.640625 16.691406 -23.238281 17.359375 -22.9375 C 18.023438 -22.632812 19.050781 -22.179688 20.4375 -21.578125 C 22.851562 -20.546875 24.914062 -19.144531 26.625 -17.375 C 28.332031 -15.613281 29.1875 -13.613281 29.1875 -11.375 C 29.1875 -9.226562 28.800781 -7.351562 28.03125 -5.75 C 27.257812 -4.15625 26.203125 -2.90625 24.859375 -2 C 23.515625 -1.09375 22.023438 -0.421875 20.390625 0.015625 C 18.765625 0.460938 17 0.6875 15.09375 0.6875 C 13.457031 0.6875 11.851562 0.519531 10.28125 0.1875 C 8.71875 -0.144531 7.40625 -0.5625 6.34375 -1.0625 C 5.289062 -1.5625 4.335938 -2.050781 3.484375 -2.53125 C 2.640625 -3.019531 2.019531 -3.429688 1.625 -3.765625 L 1.046875 -4.265625 L 5.296875 -11.421875 C 5.660156 -11.117188 6.160156 -10.734375 6.796875 -10.265625 C 7.429688 -9.796875 8.554688 -9.164062 10.171875 -8.375 C 11.785156 -7.59375 13.210938 -7.203125 14.453125 -7.203125 C 18.054688 -7.203125 19.859375 -8.425781 19.859375 -10.875 C 19.859375 -11.394531 19.726562 -11.875 19.46875 -12.3125 C 19.207031 -12.75 18.753906 -13.1875 18.109375 -13.625 C 17.460938 -14.0625 16.890625 -14.40625 16.390625 -14.65625 C 15.890625 -14.914062 15.070312 -15.3125 13.9375 -15.84375 C 12.800781 -16.375 11.960938 -16.773438 11.421875 -17.046875 C 9.148438 -18.160156 7.394531 -19.554688 6.15625 -21.234375 C 4.925781 -22.910156 4.3125 -24.71875 4.3125 -26.65625 C 4.3125 -30.007812 5.546875 -32.75 8.015625 -34.875 C 10.492188 -37.007812 13.320312 -38.078125 16.5 -38.078125 Z M 16.5 -38.078125 "/></g></g></g><g fill="#000000" fill-opacity="1"><g transform="translate(384.512697, 44.867433)"><g><path d="M 24.109375 -37.390625 L 24.109375 -29.921875 L 11.234375 -29.921875 L 11.234375 -22.484375 L 23.578125 -22.484375 L 23.578125 -15 L 11.234375 -15 L 11.234375 -7.484375 L 24.109375 -7.484375 L 24.109375 0 L 2.71875 0 L 2.71875 -37.390625 Z M 24.109375 -37.390625 "/></g></g></g><g fill="#000000" fill-opacity="1"><g transform="translate(410.802978, 44.867433)"><g><path d="M 2.71875 -37.390625 L 16.09375 -37.390625 C 19.6875 -37.390625 22.613281 -36.429688 24.875 -34.515625 C 27.144531 -32.597656 28.28125 -29.859375 28.28125 -26.296875 C 28.28125 -23.546875 27.59375 -21.238281 26.21875 -19.375 C 24.84375 -17.519531 22.976562 -16.210938 20.625 -15.453125 L 33.5 0 L 22.671875 0 L 11.234375 -14.78125 L 11.234375 0 L 2.71875 0 Z M 11.234375 -20.8125 L 12.234375 -20.8125 C 13.023438 -20.8125 13.691406 -20.820312 14.234375 -20.84375 C 14.773438 -20.875 15.394531 -20.976562 16.09375 -21.15625 C 16.789062 -21.34375 17.347656 -21.601562 17.765625 -21.9375 C 18.191406 -22.269531 18.554688 -22.753906 18.859375 -23.390625 C 19.160156 -24.023438 19.3125 -24.796875 19.3125 -25.703125 C 19.3125 -26.609375 19.160156 -27.378906 18.859375 -28.015625 C 18.554688 -28.648438 18.191406 -29.132812 17.765625 -29.46875 C 17.347656 -29.800781 16.789062 -30.054688 16.09375 -30.234375 C 15.394531 -30.410156 14.773438 -30.515625 14.234375 -30.546875 C 13.691406 -30.578125 13.023438 -30.59375 12.234375 -30.59375 L 11.234375 -30.59375 Z M 11.234375 -20.8125 "/></g></g></g><g fill="#000000" fill-opacity="1"><g transform="translate(443.25787, 44.867433)"><g><path d="M 14.421875 0 L -1.265625 -37.390625 L 8.34375 -37.390625 L 17.765625 -12.828125 L 27.203125 -37.390625 L 36.8125 -37.390625 L 21.125 0 Z M 14.421875 0 "/></g></g></g><g fill="#000000" fill-opacity="1"><g transform="translate(478.795069, 44.867433)"><g><path d="M 21.71875 -37.390625 L 36.8125 0 L 27.65625 0 L 24.890625 -7.484375 L 10.65625 -7.484375 L 7.890625 0 L -1.265625 0 L 13.828125 -37.390625 Z M 21.984375 -14.953125 L 17.8125 -25.84375 L 17.71875 -25.84375 L 13.546875 -14.953125 Z M 21.984375 -14.953125 "/></g></g></g><g fill="#000000" fill-opacity="1"><g transform="translate(514.332267, 44.867433)"><g><path d="M 0.359375 -29.921875 L 0.359375 -37.390625 L 26.65625 -37.390625 L 26.65625 -29.921875 L 17.765625 -29.921875 L 17.765625 0 L 9.25 0 L 9.25 -29.921875 Z M 0.359375 -29.921875 "/></g></g></g><g fill="#000000" fill-opacity="1"><g transform="translate(541.347783, 44.867433)"><g><path d="M 1.046875 -18.71875 C 1.046875 -24.125 2.890625 -28.703125 6.578125 -32.453125 C 10.265625 -36.203125 14.707031 -38.078125 19.90625 -38.078125 C 25.125 -38.078125 29.5625 -36.207031 33.21875 -32.46875 C 36.875 -28.738281 38.703125 -24.15625 38.703125 -18.71875 C 38.703125 -13.25 36.90625 -8.644531 33.3125 -4.90625 C 29.71875 -1.175781 25.25 0.6875 19.90625 0.6875 C 14.425781 0.6875 9.910156 -1.160156 6.359375 -4.859375 C 2.816406 -8.566406 1.046875 -13.1875 1.046875 -18.71875 Z M 10.25 -18.71875 C 10.25 -16.757812 10.550781 -14.96875 11.15625 -13.34375 C 11.757812 -11.726562 12.816406 -10.359375 14.328125 -9.234375 C 15.835938 -8.117188 17.695312 -7.5625 19.90625 -7.5625 C 23.070312 -7.5625 25.460938 -8.648438 27.078125 -10.828125 C 28.703125 -13.003906 29.515625 -15.632812 29.515625 -18.71875 C 29.515625 -21.769531 28.6875 -24.390625 27.03125 -26.578125 C 25.382812 -28.773438 23.007812 -29.875 19.90625 -29.875 C 16.820312 -29.875 14.441406 -28.773438 12.765625 -26.578125 C 11.085938 -24.390625 10.25 -21.769531 10.25 -18.71875 Z M 10.25 -18.71875 "/></g></g></g><g fill="#000000" fill-opacity="1"><g transform="translate(581.100526, 44.867433)"><g><path d="M 2.71875 -37.390625 L 16.09375 -37.390625 C 19.6875 -37.390625 22.613281 -36.429688 24.875 -34.515625 C 27.144531 -32.597656 28.28125 -29.859375 28.28125 -26.296875 C 28.28125 -23.546875 27.59375 -21.238281 26.21875 -19.375 C 24.84375 -17.519531 22.976562 -16.210938 20.625 -15.453125 L 33.5 0 L 22.671875 0 L 11.234375 -14.78125 L 11.234375 0 L 2.71875 0 Z M 11.234375 -20.8125 L 12.234375 -20.8125 C 13.023438 -20.8125 13.691406 -20.820312 14.234375 -20.84375 C 14.773438 -20.875 15.394531 -20.976562 16.09375 -21.15625 C 16.789062 -21.34375 17.347656 -21.601562 17.765625 -21.9375 C 18.191406 -22.269531 18.554688 -22.753906 18.859375 -23.390625 C 19.160156 -24.023438 19.3125 -24.796875 19.3125 -25.703125 C 19.3125 -26.609375 19.160156 -27.378906 18.859375 -28.015625 C 18.554688 -28.648438 18.191406 -29.132812 17.765625 -29.46875 C 17.347656 -29.800781 16.789062 -30.054688 16.09375 -30.234375 C 15.394531 -30.410156 14.773438 -30.515625 14.234375 -30.546875 C 13.691406 -30.578125 13.023438 -30.59375 12.234375 -30.59375 L 11.234375 -30.59375 Z M 11.234375 -20.8125 "/></g></g></g><g fill="#000000" fill-opacity="1"><g transform="translate(613.555418, 44.867433)"><g><path d="M -1.359375 -37.390625 L 8.890625 -37.390625 L 16.6875 -25.421875 L 24.484375 -37.390625 L 34.71875 -37.390625 L 20.9375 -16.765625 L 20.9375 0 L 12.421875 0 L 12.421875 -16.765625 Z M -1.359375 -37.390625 "/></g></g></g><g fill="#000000" fill-opacity="1"><g transform="translate(646.916866, 44.867433)"><g/></g></g><g fill="#000000" fill-opacity="1"><g transform="translate(659.291407, 44.867433)"><g><path d="M 1.046875 -18.71875 C 1.046875 -24.125 2.890625 -28.703125 6.578125 -32.453125 C 10.265625 -36.203125 14.707031 -38.078125 19.90625 -38.078125 C 25.125 -38.078125 29.5625 -36.207031 33.21875 -32.46875 C 36.875 -28.738281 38.703125 -24.15625 38.703125 -18.71875 C 38.703125 -13.25 36.90625 -8.644531 33.3125 -4.90625 C 29.71875 -1.175781 25.25 0.6875 19.90625 0.6875 C 14.425781 0.6875 9.910156 -1.160156 6.359375 -4.859375 C 2.816406 -8.566406 1.046875 -13.1875 1.046875 -18.71875 Z M 10.25 -18.71875 C 10.25 -16.757812 10.550781 -14.96875 11.15625 -13.34375 C 11.757812 -11.726562 12.816406 -10.359375 14.328125 -9.234375 C 15.835938 -8.117188 17.695312 -7.5625 19.90625 -7.5625 C 23.070312 -7.5625 25.460938 -8.648438 27.078125 -10.828125 C 28.703125 -13.003906 29.515625 -15.632812 29.515625 -18.71875 C 29.515625 -21.769531 28.6875 -24.390625 27.03125 -26.578125 C 25.382812 -28.773438 23.007812 -29.875 19.90625 -29.875 C 16.820312 -29.875 14.441406 -28.773438 12.765625 -26.578125 C 11.085938 -24.390625 10.25 -21.769531 10.25 -18.71875 Z M 10.25 -18.71875 "/></g></g></g><g fill="#000000" fill-opacity="1"><g transform="translate(699.04415, 44.867433)"><g><path d="M 24.34375 -37.390625 L 24.34375 -29.921875 L 11.234375 -29.921875 L 11.234375 -22.484375 L 23.34375 -22.484375 L 23.34375 -15 L 11.234375 -15 L 11.234375 0 L 2.71875 0 L 2.71875 -37.390625 Z M 24.34375 -37.390625 "/></g></g></g><g fill="#000000" fill-opacity="1"><g transform="translate(4.87041, 107.867427)"><g><path d="M 11.234375 -15 L 11.234375 0 L 2.71875 0 L 2.71875 -37.390625 L 11.234375 -37.390625 L 11.234375 -22.484375 L 23.296875 -22.484375 L 23.296875 -37.390625 L 31.828125 -37.390625 L 31.828125 0 L 23.296875 0 L 23.296875 -15 Z M 11.234375 -15 "/></g></g></g><g fill="#000000" fill-opacity="1"><g transform="translate(39.410404, 107.867427)"><g><path d="M 31.453125 -37.390625 L 31.453125 -13.28125 C 31.453125 -8.6875 30.210938 -5.207031 27.734375 -2.84375 C 25.265625 -0.488281 21.640625 0.6875 16.859375 0.6875 C 12.085938 0.6875 8.460938 -0.488281 5.984375 -2.84375 C 3.503906 -5.207031 2.265625 -8.6875 2.265625 -13.28125 L 2.265625 -37.390625 L 10.78125 -37.390625 L 10.78125 -15.78125 C 10.78125 -12.75 11.253906 -10.644531 12.203125 -9.46875 C 13.160156 -8.289062 14.710938 -7.703125 16.859375 -7.703125 C 19.003906 -7.703125 20.550781 -8.289062 21.5 -9.46875 C 22.457031 -10.644531 22.9375 -12.75 22.9375 -15.78125 L 22.9375 -37.390625 Z M 31.453125 -37.390625 "/></g></g></g><g fill="#000000" fill-opacity="1"><g transform="translate(73.134492, 107.867427)"><g><path d="M 33.640625 0 L 31.859375 -22.171875 L 31.640625 -22.171875 L 23.984375 -0.234375 L 18.90625 -0.234375 L 11.234375 -22.171875 L 11.015625 -22.171875 L 9.25 0 L 0.71875 0 L 4.078125 -37.390625 L 13.140625 -37.390625 L 21.4375 -15.8125 L 29.734375 -37.390625 L 38.796875 -37.390625 L 42.15625 0 Z M 33.640625 0 "/></g></g></g><g fill="#000000" fill-opacity="1"><g transform="translate(116.014848, 107.867427)"><g><path d="M 21.71875 -37.390625 L 36.8125 0 L 27.65625 0 L 24.890625 -7.484375 L 10.65625 -7.484375 L 7.890625 0 L -1.265625 0 L 13.828125 -37.390625 Z M 21.984375 -14.953125 L 17.8125 -25.84375 L 17.71875 -25.84375 L 13.546875 -14.953125 Z M 21.984375 -14.953125 "/></g></g></g><g fill="#000000" fill-opacity="1"><g transform="translate(151.552057, 107.867427)"><g><path d="M 11.234375 -23.203125 L 11.234375 0 L 2.71875 0 L 2.71875 -37.390625 L 11.234375 -37.390625 L 26.109375 -14.1875 L 26.203125 -14.1875 L 26.203125 -37.390625 L 34.71875 -37.390625 L 34.71875 0 L 26.203125 0 L 11.328125 -23.203125 Z M 11.234375 -23.203125 "/></g></g></g><g fill="#000000" fill-opacity="1"><g transform="translate(188.993049, 107.867427)"><g/></g></g><g fill="#000000" fill-opacity="1"><g transform="translate(201.367601, 107.867427)"><g><path d="M 33.640625 0 L 31.859375 -22.171875 L 31.640625 -22.171875 L 23.984375 -0.234375 L 18.90625 -0.234375 L 11.234375 -22.171875 L 11.015625 -22.171875 L 9.25 0 L 0.71875 0 L 4.078125 -37.390625 L 13.140625 -37.390625 L 21.4375 -15.8125 L 29.734375 -37.390625 L 38.796875 -37.390625 L 42.15625 0 Z M 33.640625 0 "/></g></g></g><g fill="#000000" fill-opacity="1"><g transform="translate(244.247969, 107.867427)"><g><path d="M 24.109375 -37.390625 L 24.109375 -29.921875 L 11.234375 -29.921875 L 11.234375 -22.484375 L 23.578125 -22.484375 L 23.578125 -15 L 11.234375 -15 L 11.234375 -7.484375 L 24.109375 -7.484375 L 24.109375 0 L 2.71875 0 L 2.71875 -37.390625 Z M 24.109375 -37.390625 "/></g></g></g><g fill="#000000" fill-opacity="1"><g transform="translate(270.53825, 107.867427)"><g><path d="M 33.640625 0 L 31.859375 -22.171875 L 31.640625 -22.171875 L 23.984375 -0.234375 L 18.90625 -0.234375 L 11.234375 -22.171875 L 11.015625 -22.171875 L 9.25 0 L 0.71875 0 L 4.078125 -37.390625 L 13.140625 -37.390625 L 21.4375 -15.8125 L 29.734375 -37.390625 L 38.796875 -37.390625 L 42.15625 0 Z M 33.640625 0 "/></g></g></g><g fill="#000000" fill-opacity="1"><g transform="translate(313.418617, 107.867427)"><g><path d="M 1.046875 -18.71875 C 1.046875 -24.125 2.890625 -28.703125 6.578125 -32.453125 C 10.265625 -36.203125 14.707031 -38.078125 19.90625 -38.078125 C 25.125 -38.078125 29.5625 -36.207031 33.21875 -32.46875 C 36.875 -28.738281 38.703125 -24.15625 38.703125 -18.71875 C 38.703125 -13.25 36.90625 -8.644531 33.3125 -4.90625 C 29.71875 -1.175781 25.25 0.6875 19.90625 0.6875 C 14.425781 0.6875 9.910156 -1.160156 6.359375 -4.859375 C 2.816406 -8.566406 1.046875 -13.1875 1.046875 -18.71875 Z M 10.25 -18.71875 C 10.25 -16.757812 10.550781 -14.96875 11.15625 -13.34375 C 11.757812 -11.726562 12.816406 -10.359375 14.328125 -9.234375 C 15.835938 -8.117188 17.695312 -7.5625 19.90625 -7.5625 C 23.070312 -7.5625 25.460938 -8.648438 27.078125 -10.828125 C 28.703125 -13.003906 29.515625 -15.632812 29.515625 -18.71875 C 29.515625 -21.769531 28.6875 -24.390625 27.03125 -26.578125 C 25.382812 -28.773438 23.007812 -29.875 19.90625 -29.875 C 16.820312 -29.875 14.441406 -28.773438 12.765625 -26.578125 C 11.085938 -24.390625 10.25 -21.769531 10.25 -18.71875 Z M 10.25 -18.71875 "/></g></g></g><g fill="#000000" fill-opacity="1"><g transform="translate(353.171338, 107.867427)"><g><path d="M 2.71875 -37.390625 L 16.09375 -37.390625 C 19.6875 -37.390625 22.613281 -36.429688 24.875 -34.515625 C 27.144531 -32.597656 28.28125 -29.859375 28.28125 -26.296875 C 28.28125 -23.546875 27.59375 -21.238281 26.21875 -19.375 C 24.84375 -17.519531 22.976562 -16.210938 20.625 -15.453125 L 33.5 0 L 22.671875 0 L 11.234375 -14.78125 L 11.234375 0 L 2.71875 0 Z M 11.234375 -20.8125 L 12.234375 -20.8125 C 13.023438 -20.8125 13.691406 -20.820312 14.234375 -20.84375 C 14.773438 -20.875 15.394531 -20.976562 16.09375 -21.15625 C 16.789062 -21.34375 17.347656 -21.601562 17.765625 -21.9375 C 18.191406 -22.269531 18.554688 -22.753906 18.859375 -23.390625 C 19.160156 -24.023438 19.3125 -24.796875 19.3125 -25.703125 C 19.3125 -26.609375 19.160156 -27.378906 18.859375 -28.015625 C 18.554688 -28.648438 18.191406 -29.132812 17.765625 -29.46875 C 17.347656 -29.800781 16.789062 -30.054688 16.09375 -30.234375 C 15.394531 -30.410156 14.773438 -30.515625 14.234375 -30.546875 C 13.691406 -30.578125 13.023438 -30.59375 12.234375 -30.59375 L 11.234375 -30.59375 Z M 11.234375 -20.8125 "/></g></g></g><g fill="#000000" fill-opacity="1"><g transform="translate(385.626253, 107.867427)"><g><path d="M -1.359375 -37.390625 L 8.890625 -37.390625 L 16.6875 -25.421875 L 24.484375 -37.390625 L 34.71875 -37.390625 L 20.9375 -16.765625 L 20.9375 0 L 12.421875 0 L 12.421875 -16.765625 Z M -1.359375 -37.390625 "/></g></g></g><g fill="#000000" fill-opacity="1"><g transform="translate(418.987746, 107.867427)"><g/></g></g><g fill="#000000" fill-opacity="1"><g transform="translate(431.362287, 107.867427)"><g><path d="M 21.71875 -37.390625 L 36.8125 0 L 27.65625 0 L 24.890625 -7.484375 L 10.65625 -7.484375 L 7.890625 0 L -1.265625 0 L 13.828125 -37.390625 Z M 21.984375 -14.953125 L 17.8125 -25.84375 L 17.71875 -25.84375 L 13.546875 -14.953125 Z M 21.984375 -14.953125 "/></g></g></g><g fill="#000000" fill-opacity="1"><g transform="translate(466.899486, 107.867427)"><g><path d="M 11.234375 -23.203125 L 11.234375 0 L 2.71875 0 L 2.71875 -37.390625 L 11.234375 -37.390625 L 26.109375 -14.1875 L 26.203125 -14.1875 L 26.203125 -37.390625 L 34.71875 -37.390625 L 34.71875 0 L 26.203125 0 L 11.328125 -23.203125 Z M 11.234375 -23.203125 "/></g></g></g><g fill="#000000" fill-opacity="1"><g transform="translate(504.340477, 107.867427)"><g><path d="M 2.71875 -37.390625 L 13.546875 -37.390625 C 18.742188 -37.390625 23.1875 -35.613281 26.875 -32.0625 C 30.5625 -28.519531 32.40625 -24.070312 32.40625 -18.71875 C 32.40625 -13.34375 30.566406 -8.878906 26.890625 -5.328125 C 23.222656 -1.773438 18.773438 0 13.546875 0 L 2.71875 0 Z M 11.234375 -7.609375 L 12.5625 -7.609375 C 15.664062 -7.609375 18.207031 -8.660156 20.1875 -10.765625 C 22.164062 -12.867188 23.171875 -15.503906 23.203125 -18.671875 C 23.203125 -21.847656 22.210938 -24.492188 20.234375 -26.609375 C 18.253906 -28.722656 15.695312 -29.78125 12.5625 -29.78125 L 11.234375 -29.78125 Z M 11.234375 -7.609375 "/></g></g></g><g fill="#000000" fill-opacity="1"><g transform="translate(537.792607, 107.867427)"><g/></g></g><g fill="#000000" fill-opacity="1"><g transform="translate(550.167148, 107.867427)"><g><path d="M 22.625 -7.703125 C 23.914062 -7.703125 25.171875 -7.898438 26.390625 -8.296875 C 27.617188 -8.691406 28.519531 -9.066406 29.09375 -9.421875 L 29.96875 -10.015625 L 33.59375 -2.765625 C 33.46875 -2.671875 33.296875 -2.546875 33.078125 -2.390625 C 32.867188 -2.242188 32.378906 -1.96875 31.609375 -1.5625 C 30.835938 -1.15625 30.015625 -0.800781 29.140625 -0.5 C 28.265625 -0.195312 27.117188 0.0703125 25.703125 0.3125 C 24.285156 0.5625 22.816406 0.6875 21.296875 0.6875 C 17.828125 0.6875 14.535156 -0.164062 11.421875 -1.875 C 8.304688 -3.582031 5.796875 -5.929688 3.890625 -8.921875 C 1.992188 -11.921875 1.046875 -15.15625 1.046875 -18.625 C 1.046875 -21.257812 1.601562 -23.785156 2.71875 -26.203125 C 3.832031 -28.617188 5.316406 -30.6875 7.171875 -32.40625 C 9.035156 -34.132812 11.207031 -35.507812 13.6875 -36.53125 C 16.164062 -37.5625 18.703125 -38.078125 21.296875 -38.078125 C 23.722656 -38.078125 25.953125 -37.789062 27.984375 -37.21875 C 30.023438 -36.644531 31.46875 -36.066406 32.3125 -35.484375 L 33.59375 -34.625 L 29.96875 -27.375 C 29.75 -27.5625 29.425781 -27.78125 29 -28.03125 C 28.582031 -28.289062 27.738281 -28.628906 26.46875 -29.046875 C 25.195312 -29.472656 23.914062 -29.6875 22.625 -29.6875 C 20.5625 -29.6875 18.710938 -29.351562 17.078125 -28.6875 C 15.453125 -28.03125 14.160156 -27.15625 13.203125 -26.0625 C 12.253906 -24.976562 11.53125 -23.804688 11.03125 -22.546875 C 10.539062 -21.296875 10.296875 -20.019531 10.296875 -18.71875 C 10.296875 -15.875 11.359375 -13.328125 13.484375 -11.078125 C 15.617188 -8.828125 18.664062 -7.703125 22.625 -7.703125 Z M 22.625 -7.703125 "/></g></g></g><g fill="#000000" fill-opacity="1"><g transform="translate(584.299195, 107.867427)"><g><path d="M 31.453125 -37.390625 L 31.453125 -13.28125 C 31.453125 -8.6875 30.210938 -5.207031 27.734375 -2.84375 C 25.265625 -0.488281 21.640625 0.6875 16.859375 0.6875 C 12.085938 0.6875 8.460938 -0.488281 5.984375 -2.84375 C 3.503906 -5.207031 2.265625 -8.6875 2.265625 -13.28125 L 2.265625 -37.390625 L 10.78125 -37.390625 L 10.78125 -15.78125 C 10.78125 -12.75 11.253906 -10.644531 12.203125 -9.46875 C 13.160156 -8.289062 14.710938 -7.703125 16.859375 -7.703125 C 19.003906 -7.703125 20.550781 -8.289062 21.5 -9.46875 C 22.457031 -10.644531 22.9375 -12.75 22.9375 -15.78125 L 22.9375 -37.390625 Z M 31.453125 -37.390625 "/></g></g></g><g fill="#000000" fill-opacity="1"><g transform="translate(618.023282, 107.867427)"><g><path d="M 11.234375 -37.390625 L 11.234375 -7.484375 L 24.109375 -7.484375 L 24.109375 0 L 2.71875 0 L 2.71875 -37.390625 Z M 11.234375 -37.390625 "/></g></g></g><g fill="#000000" fill-opacity="1"><g transform="translate(643.633647, 107.867427)"><g><path d="M 0.359375 -29.921875 L 0.359375 -37.390625 L 26.65625 -37.390625 L 26.65625 -29.921875 L 17.765625 -29.921875 L 17.765625 0 L 9.25 0 L 9.25 -29.921875 Z M 0.359375 -29.921875 "/></g></g></g><g fill="#000000" fill-opacity="1"><g transform="translate(670.649163, 107.867427)"><g><path d="M 31.453125 -37.390625 L 31.453125 -13.28125 C 31.453125 -8.6875 30.210938 -5.207031 27.734375 -2.84375 C 25.265625 -0.488281 21.640625 0.6875 16.859375 0.6875 C 12.085938 0.6875 8.460938 -0.488281 5.984375 -2.84375 C 3.503906 -5.207031 2.265625 -8.6875 2.265625 -13.28125 L 2.265625 -37.390625 L 10.78125 -37.390625 L 10.78125 -15.78125 C 10.78125 -12.75 11.253906 -10.644531 12.203125 -9.46875 C 13.160156 -8.289062 14.710938 -7.703125 16.859375 -7.703125 C 19.003906 -7.703125 20.550781 -8.289062 21.5 -9.46875 C 22.457031 -10.644531 22.9375 -12.75 22.9375 -15.78125 L 22.9375 -37.390625 Z M 31.453125 -37.390625 "/></g></g></g><g fill="#000000" fill-opacity="1"><g transform="translate(704.373251, 107.867427)"><g><path d="M 2.71875 -37.390625 L 16.09375 -37.390625 C 19.6875 -37.390625 22.613281 -36.429688 24.875 -34.515625 C 27.144531 -32.597656 28.28125 -29.859375 28.28125 -26.296875 C 28.28125 -23.546875 27.59375 -21.238281 26.21875 -19.375 C 24.84375 -17.519531 22.976562 -16.210938 20.625 -15.453125 L 33.5 0 L 22.671875 0 L 11.234375 -14.78125 L 11.234375 0 L 2.71875 0 Z M 11.234375 -20.8125 L 12.234375 -20.8125 C 13.023438 -20.8125 13.691406 -20.820312 14.234375 -20.84375 C 14.773438 -20.875 15.394531 -20.976562 16.09375 -21.15625 C 16.789062 -21.34375 17.347656 -21.601562 17.765625 -21.9375 C 18.191406 -22.269531 18.554688 -22.753906 18.859375 -23.390625 C 19.160156 -24.023438 19.3125 -24.796875 19.3125 -25.703125 C 19.3125 -26.609375 19.160156 -27.378906 18.859375 -28.015625 C 18.554688 -28.648438 18.191406 -29.132812 17.765625 -29.46875 C 17.347656 -29.800781 16.789062 -30.054688 16.09375 -30.234375 C 15.394531 -30.410156 14.773438 -30.515625 14.234375 -30.546875 C 13.691406 -30.578125 13.023438 -30.59375 12.234375 -30.59375 L 11.234375 -30.59375 Z M 11.234375 -20.8125 "/></g></g></g><g fill="#000000" fill-opacity="1"><g transform="translate(736.828143, 107.867427)"><g><path d="M 24.109375 -37.390625 L 24.109375 -29.921875 L 11.234375 -29.921875 L 11.234375 -22.484375 L 23.578125 -22.484375 L 23.578125 -15 L 11.234375 -15 L 11.234375 -7.484375 L 24.109375 -7.484375 L 24.109375 0 L 2.71875 0 L 2.71875 -37.390625 Z M 24.109375 -37.390625 "/></g></g></g></svg>