<svg xmlns="http://www.w3.org/2000/svg" xmlns:xlink="http://www.w3.org/1999/xlink" width="500" zoomAndPan="magnify" viewBox="0 0 375 1079.999946" height="1440" preserveAspectRatio="xMidYMid meet" version="1.0"><defs><clipPath id="50381c1d8a"><path d="M 36.332031 0 L 172 0 L 172 135 L 36.332031 135 Z M 36.332031 0 " clip-rule="nonzero"/></clipPath><clipPath id="28b6f2f9ea"><path d="M 36.332031 270 L 172 270 L 172 405 L 36.332031 405 Z M 36.332031 270 " clip-rule="nonzero"/></clipPath><clipPath id="3c34c16c54"><path d="M 36.332031 405 L 172 405 L 172 540 L 36.332031 540 Z M 36.332031 405 " clip-rule="nonzero"/></clipPath><clipPath id="34c7a581f2"><path d="M 36.332031 135 L 172 135 L 172 270 L 36.332031 270 Z M 36.332031 135 " clip-rule="nonzero"/></clipPath></defs><g clip-path="url(#50381c1d8a)"><path fill="#f4b50b" d="M 36.332031 67.5 C 36.332031 104.78125 66.550781 135 103.832031 135 C 141.113281 135 171.332031 104.78125 171.332031 67.5 C 171.332031 30.21875 141.113281 0 103.832031 0 C 66.550781 0 36.332031 30.21875 36.332031 67.5 " fill-opacity="1" fill-rule="nonzero"/></g><path fill="#c0e189" d="M 171.332031 337.5 C 171.332031 374.78125 201.550781 405 238.832031 405 C 276.113281 405 306.332031 374.78125 306.332031 337.5 C 306.332031 300.21875 276.113281 270 238.832031 270 C 201.550781 270 171.332031 300.21875 171.332031 337.5 " fill-opacity="1" fill-rule="nonzero"/><path fill="#efdbdd" d="M 441.332031 405 C 441.332031 479.558594 380.886719 540 306.332031 540 L 306.332031 405 L 441.332031 405 " fill-opacity="1" fill-rule="nonzero"/><g clip-path="url(#28b6f2f9ea)"><path fill="#f4b50b" d="M 171.332031 405 C 171.332031 330.441406 110.886719 270 36.332031 270 L 36.332031 405 L 171.332031 405 " fill-opacity="1" fill-rule="nonzero"/></g><path fill="#f4b50b" d="M 441.332031 135 C 441.332031 60.441406 380.886719 0 306.332031 0 L 306.332031 135 L 441.332031 135 " fill-opacity="1" fill-rule="nonzero"/><path fill="#02b7d3" d="M 171.332031 135 C 171.332031 209.558594 231.773438 270 306.332031 270 L 306.332031 135 L 171.332031 135 " fill-opacity="1" fill-rule="nonzero"/><g clip-path="url(#3c34c16c54)"><path fill="#02b7d3" d="M 36.332031 405 C 36.332031 479.558594 96.773438 540 171.332031 540 L 171.332031 405 L 36.332031 405 " fill-opacity="1" fill-rule="nonzero"/></g><path fill="#f4b50b" d="M 371.164062 270 L 388.039062 270 C 388.039062 315.054688 351.386719 351.707031 306.332031 351.707031 L 306.332031 334.832031 C 342.082031 334.832031 371.164062 305.75 371.164062 270 " fill-opacity="1" fill-rule="nonzero"/><path fill="#f4b50b" d="M 397.808594 270 L 414.683594 270 C 414.683594 329.746094 366.078125 378.355469 306.332031 378.355469 L 306.332031 361.480469 C 356.773438 361.480469 397.808594 320.445312 397.808594 270 " fill-opacity="1" fill-rule="nonzero"/><path fill="#f4b50b" d="M 424.457031 270 L 441.332031 270 C 441.332031 344.441406 380.769531 405 306.332031 405 L 306.332031 388.125 C 371.464844 388.125 424.457031 335.132812 424.457031 270 " fill-opacity="1" fill-rule="nonzero"/><path fill="#ffffff" d="M 236.164062 0 L 253.039062 0 C 253.039062 45.054688 216.386719 81.707031 171.332031 81.707031 L 171.332031 64.832031 C 207.082031 64.832031 236.164062 35.75 236.164062 0 " fill-opacity="1" fill-rule="nonzero"/><path fill="#ffffff" d="M 262.808594 0 L 279.683594 0 C 279.683594 59.746094 231.078125 108.355469 171.332031 108.355469 L 171.332031 91.480469 C 221.773438 91.480469 262.808594 50.445312 262.808594 0 " fill-opacity="1" fill-rule="nonzero"/><path fill="#ffffff" d="M 289.457031 0 L 306.332031 0 C 306.332031 74.441406 245.769531 135 171.332031 135 L 171.332031 118.125 C 236.464844 118.125 289.457031 65.132812 289.457031 0 " fill-opacity="1" fill-rule="nonzero"/><path fill="#ffffff" d="M 241.496094 405 L 224.621094 405 C 224.621094 450.054688 261.273438 486.707031 306.332031 486.707031 L 306.332031 469.832031 C 270.582031 469.832031 241.496094 440.75 241.496094 405 " fill-opacity="1" fill-rule="nonzero"/><path fill="#ffffff" d="M 214.851562 405 L 197.976562 405 C 197.976562 464.75 246.585938 513.355469 306.332031 513.355469 L 306.332031 496.480469 C 255.886719 496.480469 214.851562 455.445312 214.851562 405 " fill-opacity="1" fill-rule="nonzero"/><path fill="#ffffff" d="M 188.207031 405 L 171.332031 405 C 171.332031 479.441406 231.890625 540 306.332031 540 L 306.332031 523.125 C 241.199219 523.125 188.207031 470.132812 188.207031 405 " fill-opacity="1" fill-rule="nonzero"/><path fill="#efdbdd" d="M 371.164062 270 L 388.039062 270 C 388.039062 224.945312 351.386719 188.292969 306.332031 188.292969 L 306.332031 205.167969 C 342.082031 205.167969 371.164062 234.25 371.164062 270 " fill-opacity="1" fill-rule="nonzero"/><path fill="#efdbdd" d="M 397.808594 270 L 414.683594 270 C 414.683594 210.253906 366.078125 161.644531 306.332031 161.644531 L 306.332031 178.519531 C 356.773438 178.519531 397.808594 219.554688 397.808594 270 " fill-opacity="1" fill-rule="nonzero"/><path fill="#efdbdd" d="M 424.457031 270 L 441.332031 270 C 441.332031 195.558594 380.769531 135 306.332031 135 L 306.332031 151.875 C 371.464844 151.875 424.457031 204.867188 424.457031 270 " fill-opacity="1" fill-rule="nonzero"/><path fill="#c0e189" d="M 106.496094 270 L 89.621094 270 C 89.621094 224.945312 126.273438 188.292969 171.332031 188.292969 L 171.332031 205.167969 C 135.582031 205.167969 106.496094 234.25 106.496094 270 " fill-opacity="1" fill-rule="nonzero"/><path fill="#c0e189" d="M 79.851562 270 L 62.976562 270 C 62.976562 210.253906 111.585938 161.644531 171.332031 161.644531 L 171.332031 178.519531 C 120.886719 178.519531 79.851562 219.554688 79.851562 270 " fill-opacity="1" fill-rule="nonzero"/><g clip-path="url(#34c7a581f2)"><path fill="#c0e189" d="M 53.207031 270 L 36.332031 270 C 36.332031 195.558594 96.890625 135 171.332031 135 L 171.332031 151.875 C 106.199219 151.875 53.207031 204.867188 53.207031 270 " fill-opacity="1" fill-rule="nonzero"/></g><path fill="#008575" d="M 270 675 C 195.441406 675 135 614.558594 135 540 L 270 540 L 270 675 " fill-opacity="1" fill-rule="nonzero"/><path fill="#ffffff" d="M 337.5 675 C 374.78125 675 405 644.78125 405 607.5 C 405 570.21875 374.78125 540 337.5 540 C 300.21875 540 270 570.21875 270 607.5 C 270 644.78125 300.21875 675 337.5 675 " fill-opacity="1" fill-rule="nonzero"/><path fill="#efdbdd" d="M 67.5 675 C 104.78125 675 135 644.78125 135 607.5 C 135 570.21875 104.78125 540 67.5 540 C 30.21875 540 0 570.21875 0 607.5 C 0 644.78125 30.21875 675 67.5 675 " fill-opacity="1" fill-rule="nonzero"/><path fill="#c5dfe1" d="M 67.5 1080 C 104.78125 1080 135 1049.78125 135 1012.5 C 135 975.21875 104.78125 945 67.5 945 C 30.21875 945 0 975.21875 0 1012.5 C 0 1049.78125 30.21875 1080 67.5 1080 " fill-opacity="1" fill-rule="nonzero"/><path fill="#008575" d="M 337.5 945 C 374.78125 945 405 914.78125 405 877.5 C 405 840.21875 374.78125 810 337.5 810 C 300.21875 810 270 840.21875 270 877.5 C 270 914.78125 300.21875 945 337.5 945 " fill-opacity="1" fill-rule="nonzero"/><path fill="#c5dfe1" d="M 405 945 C 330.441406 945 270 1005.441406 270 1080 L 405 1080 L 405 945 " fill-opacity="1" fill-rule="nonzero"/><path fill="#c5dfe1" d="M 135 675 C 60.441406 675 0 735.441406 0 810 L 135 810 L 135 675 " fill-opacity="1" fill-rule="nonzero"/><path fill="#f75b3c" d="M 135 945 C 209.558594 945 270 884.558594 270 810 L 135 810 L 135 945 " fill-opacity="1" fill-rule="nonzero"/><path fill="#c5dfe1" d="M 270 745.167969 L 270 728.292969 C 315.054688 728.292969 351.707031 764.945312 351.707031 810 L 334.832031 810 C 334.832031 774.25 305.75 745.167969 270 745.167969 " fill-opacity="1" fill-rule="nonzero"/><path fill="#c5dfe1" d="M 270 718.519531 L 270 701.644531 C 329.746094 701.644531 378.355469 750.253906 378.355469 810 L 361.480469 810 C 361.480469 759.554688 320.445312 718.519531 270 718.519531 " fill-opacity="1" fill-rule="nonzero"/><path fill="#c5dfe1" d="M 270 691.875 L 270 675 C 344.441406 675 405 735.558594 405 810 L 388.125 810 C 388.125 744.867188 335.132812 691.875 270 691.875 " fill-opacity="1" fill-rule="nonzero"/><path fill="#ffffff" d="M 0 880.167969 L 0 863.292969 C 45.054688 863.292969 81.707031 899.945312 81.707031 945 L 64.832031 945 C 64.832031 909.25 35.75 880.167969 0 880.167969 " fill-opacity="1" fill-rule="nonzero"/><path fill="#ffffff" d="M 0 853.519531 L 0 836.644531 C 59.746094 836.644531 108.355469 885.253906 108.355469 945 L 91.480469 945 C 91.480469 894.554688 50.445312 853.519531 0 853.519531 " fill-opacity="1" fill-rule="nonzero"/><path fill="#ffffff" d="M 0 826.875 L 0 810 C 74.441406 810 135 870.558594 135 945 L 118.125 945 C 118.125 879.867188 65.132812 826.875 0 826.875 " fill-opacity="1" fill-rule="nonzero"/><path fill="#efdbdd" d="M 270 745.167969 L 270 728.292969 C 224.945312 728.292969 188.292969 764.945312 188.292969 810 L 205.167969 810 C 205.167969 774.25 234.25 745.167969 270 745.167969 " fill-opacity="1" fill-rule="nonzero"/><path fill="#efdbdd" d="M 270 718.519531 L 270 701.644531 C 210.253906 701.644531 161.644531 750.253906 161.644531 810 L 178.519531 810 C 178.519531 759.554688 219.554688 718.519531 270 718.519531 " fill-opacity="1" fill-rule="nonzero"/><path fill="#efdbdd" d="M 270 691.875 L 270 675 C 195.558594 675 135 735.558594 135 810 L 151.875 810 C 151.875 744.867188 204.867188 691.875 270 691.875 " fill-opacity="1" fill-rule="nonzero"/><path fill="#008575" d="M 270 1009.832031 L 270 1026.707031 C 224.945312 1026.707031 188.292969 990.054688 188.292969 945 L 205.167969 945 C 205.167969 980.75 234.25 1009.832031 270 1009.832031 " fill-opacity="1" fill-rule="nonzero"/><path fill="#008575" d="M 270 1036.480469 L 270 1053.355469 C 210.253906 1053.355469 161.644531 1004.746094 161.644531 945 L 178.519531 945 C 178.519531 995.445312 219.554688 1036.480469 270 1036.480469 " fill-opacity="1" fill-rule="nonzero"/><path fill="#008575" d="M 270 1063.125 L 270 1080 C 195.558594 1080 135 1019.441406 135 945 L 151.875 945 C 151.875 1010.132812 204.867188 1063.125 270 1063.125 " fill-opacity="1" fill-rule="nonzero"/></svg>