<svg xmlns="http://www.w3.org/2000/svg" xmlns:xlink="http://www.w3.org/1999/xlink" width="80" zoomAndPan="magnify" viewBox="0 0 60 60" height="80" preserveAspectRatio="xMidYMid meet" version="1.0"><path fill="#f4b50b" d="M 29.242188 1.289062 C 29.242188 1.4375 29.28125 2.398438 29.328125 3.421875 C 29.371094 4.445312 29.472656 6.859375 29.550781 8.785156 C 29.625 10.710938 29.738281 13.386719 29.800781 14.730469 C 29.859375 16.074219 29.910156 17.257812 29.910156 17.355469 L 29.910156 17.539062 L 31.957031 17.539062 L 31.988281 17.386719 C 32.007812 17.300781 32.132812 16.40625 32.273438 15.398438 C 32.414062 14.390625 32.664062 12.578125 32.828125 11.367188 C 32.996094 10.160156 33.28125 8.085938 33.464844 6.753906 C 33.648438 5.425781 33.882812 3.710938 33.988281 2.949219 C 34.09375 2.183594 34.164062 1.542969 34.144531 1.527344 C 34.125 1.507812 33.746094 1.460938 33.300781 1.421875 C 31.324219 1.253906 29.535156 1.085938 29.398438 1.054688 C 29.246094 1.019531 29.242188 1.023438 29.242188 1.289062 M 25.324219 1.578125 C 25.292969 1.605469 24.496094 2.035156 23.546875 2.53125 C 22.597656 3.027344 21.792969 3.457031 21.757812 3.488281 C 21.710938 3.523438 21.703125 3.578125 21.734375 3.636719 C 21.761719 3.6875 21.886719 4.089844 22.015625 4.53125 C 22.144531 4.976562 22.332031 5.613281 22.4375 5.949219 C 22.539062 6.285156 22.773438 7.066406 22.960938 7.6875 C 23.761719 10.367188 23.988281 11.113281 24.242188 11.953125 C 24.714844 13.507812 26.199219 18.445312 26.253906 18.664062 C 26.285156 18.777344 26.335938 18.871094 26.367188 18.871094 C 26.503906 18.871094 27.910156 18.460938 27.910156 18.421875 C 27.910156 18.394531 27.371094 14.613281 26.714844 10.011719 C 26.058594 5.410156 25.519531 1.621094 25.519531 1.589844 C 25.519531 1.519531 25.394531 1.511719 25.324219 1.578125 M 40.027344 1.785156 C 39.238281 1.910156 38.453125 2.03125 37.664062 2.15625 L 36.832031 2.285156 L 36.761719 2.527344 C 36.726562 2.660156 36.542969 3.433594 36.359375 4.25 C 36.148438 5.195312 35.933594 6.144531 35.71875 7.089844 C 35.546875 7.839844 35.273438 9.050781 35.105469 9.785156 C 34.902344 10.683594 34.699219 11.582031 34.496094 12.480469 C 34.191406 13.8125 33.691406 16.019531 33.570312 16.554688 C 33.539062 16.703125 33.519531 16.832031 33.53125 16.839844 C 33.664062 16.964844 34.660156 17.53125 34.691406 17.5 C 34.710938 17.476562 34.84375 17.191406 34.984375 16.871094 C 35.125 16.550781 35.519531 15.664062 35.859375 14.898438 C 36.203125 14.132812 36.644531 13.144531 36.84375 12.703125 C 37.042969 12.257812 37.3125 11.660156 37.441406 11.367188 C 37.675781 10.855469 38.015625 10.089844 38.773438 8.394531 C 38.980469 7.9375 39.261719 7.3125 39.398438 7.007812 C 39.535156 6.699219 39.792969 6.125 39.96875 5.726562 C 40.273438 5.046875 41.4375 2.457031 41.726562 1.824219 L 41.859375 1.53125 L 41.707031 1.535156 C 41.621094 1.539062 40.867188 1.652344 40.027344 1.785156 M 42.804688 4.90625 C 41.933594 6.632812 41.0625 8.359375 40.191406 10.085938 C 39.238281 11.972656 38.285156 13.859375 37.335938 15.746094 L 36.011719 18.371094 L 36.320312 18.75 C 36.492188 18.957031 36.675781 19.167969 36.734375 19.21875 C 36.847656 19.324219 36.5625 19.6875 39.523438 15.675781 C 39.726562 15.402344 40.171875 14.800781 40.511719 14.34375 L 41.730469 12.695312 C 42.160156 12.109375 42.59375 11.527344 43.023438 10.941406 C 43.402344 10.429688 43.917969 9.730469 44.164062 9.394531 L 45.101562 8.132812 C 45.738281 7.265625 46.378906 6.402344 47.019531 5.539062 C 47.300781 5.160156 47.527344 4.832031 47.527344 4.808594 C 47.527344 4.757812 46.980469 4.4375 44.269531 2.914062 C 44.113281 2.828125 43.964844 2.753906 43.9375 2.753906 C 43.910156 2.753906 43.402344 3.722656 42.804688 4.90625 M 17.628906 6.378906 C 17.628906 6.417969 17.914062 7.046875 18.261719 7.78125 C 18.609375 8.515625 19.46875 10.332031 20.171875 11.8125 C 20.875 13.296875 22.011719 15.695312 22.703125 17.148438 C 23.390625 18.601562 24.015625 19.933594 24.09375 20.109375 C 24.171875 20.285156 24.253906 20.425781 24.28125 20.425781 C 24.304688 20.425781 24.488281 20.273438 24.683594 20.09375 L 25.042969 19.765625 L 24.816406 19.277344 C 24.09375 17.703125 18.652344 6.386719 18.601562 6.355469 C 18.5 6.28125 17.628906 6.304688 17.628906 6.378906 M 49.546875 7.019531 C 48.554688 8.199219 45.890625 11.386719 45.75 11.566406 C 45.671875 11.664062 43.980469 13.699219 41.984375 16.089844 L 38.355469 20.433594 L 38.503906 20.613281 C 38.960938 21.160156 39.027344 21.21875 39.125 21.140625 C 39.238281 21.050781 43.976562 16.683594 45.054688 15.675781 C 45.5625 15.203125 46.074219 14.730469 46.582031 14.257812 C 50.582031 10.585938 52.976562 8.347656 52.9375 8.3125 C 52.835938 8.226562 50.148438 6.367188 50.121094 6.367188 C 50.109375 6.367188 49.847656 6.660156 49.546875 7.019531 M 12.726562 7.988281 C 12.546875 8.226562 12.371094 8.46875 12.191406 8.710938 C 12.0625 8.886719 11.960938 9.050781 11.960938 9.074219 C 11.960938 9.097656 12.230469 9.40625 12.558594 9.761719 C 12.886719 10.113281 13.917969 11.226562 14.847656 12.234375 C 16.136719 13.625 17.421875 15.011719 18.710938 16.398438 C 19.902344 17.683594 21.441406 19.339844 22.125 20.082031 C 22.808594 20.820312 23.390625 21.429688 23.414062 21.429688 C 23.441406 21.429688 23.527344 21.296875 23.609375 21.140625 C 23.78125 20.796875 23.824219 20.886719 23.050781 19.933594 C 22.402344 19.132812 19.65625 15.738281 18.691406 14.542969 C 18.335938 14.105469 17.644531 13.25 17.15625 12.648438 C 16.667969 12.042969 15.980469 11.191406 15.628906 10.757812 C 14.078125 8.835938 13.21875 7.777344 13.125 7.679688 C 13.03125 7.582031 13.019531 7.589844 12.726562 7.988281 M 53.085938 11.242188 C 52.335938 11.933594 50.613281 13.511719 49.253906 14.753906 C 42.5625 20.859375 40.21875 23.007812 40.203125 23.042969 C 40.179688 23.097656 40.75 23.625 40.816406 23.609375 C 40.84375 23.597656 41.386719 23.1875 42.019531 22.695312 C 43.824219 21.277344 45.632812 19.867188 47.445312 18.453125 C 49.308594 17.003906 51.171875 15.546875 53.03125 14.09375 C 53.75 13.53125 54.625 12.847656 54.976562 12.574219 C 55.328125 12.300781 55.621094 12.050781 55.628906 12.015625 C 55.640625 11.980469 55.539062 11.765625 55.40625 11.535156 C 55.214844 11.207031 55.027344 10.878906 54.839844 10.550781 C 54.660156 10.234375 54.496094 9.980469 54.480469 9.984375 C 54.460938 9.984375 53.835938 10.550781 53.085938 11.242188 M 7.046875 13.132812 C 6.421875 13.980469 6.253906 14.242188 6.304688 14.292969 C 6.34375 14.328125 6.722656 14.542969 7.152344 14.773438 C 7.578125 15 8.378906 15.433594 8.929688 15.730469 C 9.480469 16.027344 10.253906 16.449219 10.652344 16.664062 C 11.050781 16.878906 11.8125 17.289062 12.347656 17.582031 C 12.882812 17.871094 13.632812 18.277344 14.015625 18.480469 C 16.140625 19.628906 16.933594 20.054688 17.433594 20.328125 C 19.132812 21.253906 21.714844 22.644531 22.089844 22.839844 L 22.523438 23.066406 L 23.019531 22.527344 L 22.699219 22.300781 C 22.523438 22.175781 21.78125 21.660156 21.046875 21.148438 C 20.296875 20.628906 19.546875 20.105469 18.796875 19.585938 C 16.207031 17.78125 13.484375 15.882812 12.542969 15.230469 C 11.960938 14.828125 11.0625 14.203125 10.542969 13.839844 C 8.285156 12.265625 7.949219 12.035156 7.902344 12.035156 C 7.875 12.035156 7.488281 12.53125 7.046875 13.132812 M 57.003906 17.839844 C 55.722656 18.367188 52.789062 19.5625 50.445312 20.511719 C 49.898438 20.734375 49.351562 20.957031 48.808594 21.179688 C 48.070312 21.476562 47.027344 21.902344 45.054688 22.703125 C 43.785156 23.222656 41.910156 23.984375 41.402344 24.191406 L 41.199219 24.277344 L 41.339844 24.5625 C 41.421875 24.71875 41.492188 24.855469 41.503906 24.867188 C 41.523438 24.890625 41.757812 24.8125 42.722656 24.453125 C 42.996094 24.355469 43.820312 24.054688 44.554688 23.789062 C 47.878906 22.589844 49.148438 22.128906 49.640625 21.945312 C 49.992188 21.816406 50.34375 21.6875 50.695312 21.566406 C 50.988281 21.464844 51.738281 21.195312 52.363281 20.964844 C 52.992188 20.734375 54.105469 20.332031 54.835938 20.066406 C 57.371094 19.152344 58.003906 18.917969 58.042969 18.882812 C 58.089844 18.828125 57.84375 17.574219 57.777344 17.558594 C 57.75 17.550781 57.402344 17.675781 57.003906 17.839844 M 4.960938 18.976562 C 4.902344 19.085938 4.257812 20.582031 3.902344 21.445312 C 3.800781 21.683594 3.730469 21.886719 3.742188 21.894531 C 3.753906 21.90625 4.113281 22.007812 4.539062 22.121094 C 4.96875 22.234375 5.679688 22.421875 6.125 22.539062 C 6.566406 22.660156 7.554688 22.921875 8.320312 23.125 C 9.082031 23.328125 10.257812 23.640625 10.929688 23.820312 C 11.601562 24 12.730469 24.296875 13.433594 24.484375 C 14.136719 24.671875 15.074219 24.921875 15.515625 25.039062 C 16.246094 25.234375 16.980469 25.429688 17.710938 25.625 C 18.476562 25.828125 19.511719 26.105469 20.015625 26.238281 C 20.519531 26.375 20.949219 26.464844 20.96875 26.441406 C 21.015625 26.394531 21.3125 25.316406 21.285156 25.292969 C 21.269531 25.273438 20.90625 25.132812 17.988281 23.984375 C 17.070312 23.625 15.773438 23.113281 15.097656 22.84375 C 12.03125 21.632812 11.484375 21.414062 10.597656 21.066406 C 10.078125 20.863281 9.191406 20.511719 8.625 20.289062 C 8.058594 20.066406 7.046875 19.664062 6.375 19.398438 C 5.699219 19.132812 5.121094 18.902344 5.085938 18.890625 C 5.050781 18.875 4.992188 18.914062 4.960938 18.976562 M 30.9375 18.90625 C 28.453125 19.273438 26.050781 20.589844 23.988281 22.714844 C 21.964844 24.800781 21.171875 28.425781 22.109375 31.292969 C 22.675781 33.019531 23.875 34.445312 25.632812 35.488281 C 27.003906 36.304688 28.816406 36.910156 30.804688 37.222656 C 31.867188 37.386719 33.925781 37.402344 34.746094 37.25 C 38.5 36.558594 40.847656 33.75 41.195312 29.542969 C 41.304688 28.210938 41.183594 27.117188 40.800781 26.011719 C 39.890625 23.375 37.796875 20.929688 35.4375 19.746094 C 34.273438 19.160156 33.324219 18.925781 32.023438 18.898438 C 31.519531 18.890625 31.03125 18.890625 30.9375 18.90625 M 41.847656 26.238281 C 41.773438 26.316406 41.796875 27.152344 41.875 27.179688 C 41.910156 27.191406 42.882812 27.289062 44.027344 27.398438 C 47.472656 27.726562 50.058594 27.976562 52.140625 28.179688 C 56.097656 28.570312 58.273438 28.769531 58.339844 28.746094 C 58.386719 28.726562 58.371094 28.527344 58.28125 28.003906 C 58.210938 27.613281 58.140625 27.175781 58.121094 27.035156 L 58.085938 26.78125 L 57.015625 26.742188 C 54.683594 26.660156 49.738281 26.480469 47 26.375 C 42.585938 26.210938 41.890625 26.191406 41.847656 26.238281 M 0.726562 27.078125 C 0.722656 27.101562 0.726562 27.175781 0.734375 27.234375 C 0.738281 27.296875 0.800781 28.011719 0.863281 28.820312 L 0.984375 30.292969 L 1.703125 30.277344 C 2.101562 30.273438 4.054688 30.179688 6.039062 30.070312 C 8.027344 29.964844 11.152344 29.800781 12.988281 29.710938 C 17.625 29.476562 20.367188 29.324219 20.449219 29.292969 C 20.488281 29.277344 20.519531 29.167969 20.519531 29.015625 C 20.519531 28.714844 20.578125 28.738281 19.433594 28.652344 C 18.976562 28.621094 17.613281 28.503906 16.40625 28.398438 C 15.199219 28.292969 13.035156 28.105469 11.597656 27.984375 C 10.160156 27.863281 8.597656 27.726562 8.125 27.679688 C 7.652344 27.636719 5.898438 27.488281 4.234375 27.347656 C 2.566406 27.210938 1.097656 27.082031 0.96875 27.0625 C 0.839844 27.042969 0.730469 27.050781 0.726562 27.078125 M 42.191406 29.226562 L 42.191406 29.6875 L 45.542969 30.511719 C 55.640625 32.996094 58.832031 33.769531 58.890625 33.746094 C 58.976562 33.714844 59.273438 31.644531 59.195312 31.597656 C 59.167969 31.578125 56.160156 31.066406 52.515625 30.460938 C 49.707031 29.996094 46.902344 29.53125 44.09375 29.0625 C 43.105469 28.898438 42.273438 28.765625 42.246094 28.765625 C 42.214844 28.765625 42.191406 28.972656 42.191406 29.226562 M 19.878906 30.132812 C 19.664062 30.175781 18.703125 30.347656 17.738281 30.515625 C 14.773438 31.03125 10.042969 31.863281 6.179688 32.546875 C 5.21875 32.714844 4.257812 32.882812 3.296875 33.050781 C 2.429688 33.199219 1.699219 33.335938 1.671875 33.351562 C 1.644531 33.367188 1.683594 33.476562 1.753906 33.589844 C 1.824219 33.703125 2.113281 34.199219 2.394531 34.699219 C 2.679688 35.195312 2.921875 35.601562 2.933594 35.601562 C 2.96875 35.601562 4.683594 35.144531 5.34375 34.960938 C 5.605469 34.890625 6.480469 34.652344 7.289062 34.433594 C 8.101562 34.214844 9.21875 33.914062 9.777344 33.761719 L 11.804688 33.214844 C 12.363281 33.0625 13.484375 32.761719 14.292969 32.542969 C 15.101562 32.324219 16.214844 32.027344 16.765625 31.875 C 18.601562 31.378906 20.042969 30.996094 20.40625 30.90625 C 20.945312 30.773438 20.921875 30.792969 20.777344 30.578125 C 20.707031 30.472656 20.613281 30.308594 20.574219 30.214844 C 20.496094 30.019531 20.460938 30.015625 19.878906 30.132812 M 41.839844 30.75 C 41.820312 30.769531 41.804688 30.941406 41.804688 31.132812 L 41.804688 31.476562 L 42.566406 31.890625 C 42.988281 32.121094 43.59375 32.445312 43.917969 32.613281 C 44.238281 32.78125 45.5 33.453125 46.722656 34.101562 C 47.945312 34.75 49.796875 35.730469 50.835938 36.28125 C 51.875 36.832031 53.277344 37.578125 53.949219 37.933594 C 56.792969 39.453125 57.324219 39.722656 57.359375 39.675781 C 57.605469 39.378906 58.703125 37.640625 58.667969 37.605469 C 58.640625 37.582031 57.703125 37.191406 56.585938 36.738281 C 55.644531 36.355469 54.699219 35.96875 53.753906 35.585938 C 53.308594 35.402344 52.621094 35.125 52.226562 34.960938 C 51.828125 34.800781 51.164062 34.53125 50.753906 34.363281 C 50.339844 34.195312 48.222656 33.332031 46.050781 32.445312 C 43.875 31.558594 42.046875 30.804688 41.984375 30.773438 C 41.925781 30.742188 41.859375 30.730469 41.839844 30.75 M 12.714844 34.566406 C 8.253906 36.097656 4.597656 37.378906 4.585938 37.410156 C 4.578125 37.4375 4.664062 38.011719 4.78125 38.683594 C 4.945312 39.644531 5.007812 39.902344 5.070312 39.890625 C 5.113281 39.878906 5.9375 39.507812 6.902344 39.0625 C 8.234375 38.441406 9.570312 37.828125 10.902344 37.210938 C 11.683594 36.851562 12.332031 36.554688 15.042969 35.292969 C 16.082031 34.8125 17.222656 34.285156 17.574219 34.125 C 18.089844 33.886719 18.609375 33.648438 19.128906 33.40625 C 19.679688 33.152344 20.234375 32.898438 20.785156 32.644531 L 21.523438 32.304688 L 21.257812 32.035156 C 21.113281 31.886719 20.957031 31.769531 20.910156 31.769531 C 20.863281 31.773438 17.175781 33.03125 12.714844 34.566406 M 41.371094 32.707031 L 41.203125 33.09375 L 43.238281 34.972656 C 44.492188 36.125 45.746094 37.28125 47 38.433594 C 48.046875 39.394531 49.09375 40.359375 50.140625 41.324219 C 51.191406 42.292969 52.238281 43.261719 53.289062 44.226562 L 55.023438 45.820312 L 55.945312 44.84375 C 56.453125 44.308594 56.867188 43.847656 56.867188 43.820312 C 56.867188 43.796875 56.371094 43.40625 55.769531 42.949219 C 53.65625 41.359375 49.472656 38.210938 45.777344 35.433594 C 43.730469 33.894531 41.96875 32.566406 41.859375 32.480469 C 41.753906 32.390625 41.640625 32.320312 41.605469 32.320312 C 41.570312 32.320312 41.464844 32.496094 41.371094 32.707031 M 21.242188 33.339844 C 20.835938 33.570312 20.664062 33.667969 19.101562 34.542969 C 18.71875 34.757812 18.339844 34.96875 17.960938 35.183594 C 16.992188 35.734375 16.140625 36.210938 13.960938 37.433594 C 12.691406 38.144531 11.464844 38.832031 11.238281 38.960938 C 10.867188 39.171875 10.496094 39.378906 10.125 39.585938 C 9.660156 39.847656 9.199219 40.105469 8.734375 40.367188 C 8.171875 40.683594 7.605469 41 7.039062 41.316406 C 6.488281 41.621094 5.992188 41.90625 5.9375 41.949219 C 5.835938 42.019531 5.839844 42.039062 6.035156 42.425781 L 6.238281 42.828125 L 8.417969 41.722656 C 11.820312 39.996094 21.777344 34.984375 22.226562 34.769531 C 22.449219 34.664062 22.628906 34.550781 22.628906 34.519531 C 22.628906 34.488281 22.441406 34.175781 22.210938 33.824219 C 21.984375 33.472656 21.796875 33.167969 21.796875 33.144531 C 21.796875 33.054688 21.648438 33.109375 21.242188 33.339844 M 41.128906 34.441406 C 40.957031 34.703125 40.742188 35.167969 40.757812 35.238281 C 40.773438 35.300781 44.820312 39.605469 46.972656 41.851562 C 47.292969 42.1875 48.40625 43.363281 49.445312 44.464844 C 52.734375 47.945312 52.890625 48.105469 52.941406 48.105469 C 52.984375 48.105469 53.3125 47.757812 53.550781 47.457031 L 53.652344 47.328125 L 52.578125 46.203125 C 46.855469 40.199219 42.183594 35.308594 41.746094 34.859375 L 41.214844 34.3125 Z M 22.683594 36.277344 C 21.316406 37.007812 17.742188 38.902344 14.570312 40.574219 C 13.457031 41.164062 12.105469 41.878906 11.566406 42.167969 C 11.03125 42.453125 9.785156 43.113281 8.800781 43.632812 C 7.816406 44.152344 7.011719 44.597656 7.011719 44.628906 C 7.011719 44.65625 7.304688 45.125 7.65625 45.667969 C 8.0625 46.289062 8.328125 46.644531 8.367188 46.621094 C 8.484375 46.554688 10.660156 45.148438 11.960938 44.296875 C 12.339844 44.046875 15.253906 42.160156 18.433594 40.101562 C 21.613281 38.046875 24.234375 36.34375 24.257812 36.324219 C 24.3125 36.277344 24.070312 35.644531 23.988281 35.621094 C 23.960938 35.613281 23.375 35.90625 22.683594 36.277344 M 23.6875 38.417969 C 23.152344 38.988281 21.886719 40.320312 20.878906 41.378906 C 19.871094 42.4375 18.59375 43.777344 18.042969 44.359375 C 17.496094 44.9375 16.097656 46.40625 14.9375 47.625 C 13.167969 49.484375 12.84375 49.847656 12.910156 49.910156 C 13.113281 50.101562 14.582031 51.273438 14.617188 51.273438 C 14.636719 51.269531 14.890625 50.96875 15.183594 50.597656 C 15.765625 49.855469 16.480469 48.949219 18.25 46.714844 C 18.597656 46.273438 19.457031 45.183594 20.15625 44.296875 C 22.003906 41.960938 23.292969 40.324219 24.210938 39.164062 C 24.65625 38.601562 25.019531 38.121094 25.019531 38.097656 C 25.019531 38.015625 24.726562 37.378906 24.691406 37.382812 C 24.675781 37.382812 24.222656 37.851562 23.6875 38.417969 M 37.125 37.609375 L 36.804688 37.835938 L 37.261719 38.429688 C 37.511719 38.753906 38.28125 39.746094 38.96875 40.632812 C 39.65625 41.519531 40.632812 42.777344 41.136719 43.429688 C 42.449219 45.121094 43.9375 47.035156 44.804688 48.152344 C 45.21875 48.683594 45.605469 49.183594 45.667969 49.265625 C 45.726562 49.347656 46.039062 49.753906 46.359375 50.164062 C 46.679688 50.574219 47.511719 51.648438 48.214844 52.550781 C 48.914062 53.453125 49.503906 54.195312 49.523438 54.203125 C 49.542969 54.210938 49.683594 54.035156 49.839844 53.816406 C 49.996094 53.59375 50.328125 53.128906 50.578125 52.78125 C 51.027344 52.160156 51.035156 52.148438 50.9375 52.035156 C 50.785156 51.859375 47.679688 48.457031 44.300781 44.769531 C 42.664062 42.984375 40.480469 40.59375 39.449219 39.464844 C 38.414062 38.332031 37.539062 37.402344 37.503906 37.394531 C 37.46875 37.386719 37.296875 37.484375 37.125 37.609375 M 25.871094 38.421875 C 25.824219 38.535156 25.65625 38.917969 25.492188 39.269531 C 25.269531 39.757812 25.046875 40.25 24.828125 40.742188 C 24.625 41.195312 24.417969 41.648438 24.214844 42.101562 C 23.96875 42.636719 23.730469 43.164062 23.046875 44.6875 C 22.839844 45.144531 22.550781 45.785156 22.40625 46.105469 C 22.195312 46.578125 21.980469 47.050781 21.769531 47.523438 C 21.558594 47.996094 21.34375 48.46875 21.128906 48.9375 C 20.984375 49.261719 20.683594 49.921875 20.464844 50.410156 C 19.835938 51.808594 19.636719 52.253906 19.308594 52.96875 C 18.796875 54.085938 18.621094 54.511719 18.667969 54.554688 C 18.71875 54.601562 19.859375 54.941406 19.96875 54.941406 C 20.011719 54.941406 20.101562 54.796875 20.164062 54.621094 C 20.230469 54.445312 20.464844 53.863281 20.683594 53.328125 C 20.902344 52.792969 21.339844 51.71875 21.65625 50.941406 C 22.007812 50.070312 22.359375 49.199219 22.710938 48.328125 C 23.085938 47.402344 23.460938 46.476562 23.835938 45.550781 C 25.140625 42.320312 26.59375 38.734375 26.667969 38.558594 C 26.695312 38.496094 26.164062 38.210938 26.015625 38.210938 C 25.984375 38.210938 25.921875 38.304688 25.871094 38.421875 M 28.113281 39.089844 C 28.089844 39.128906 27.925781 39.859375 27.324219 42.660156 C 27.125 43.605469 26.917969 44.546875 26.714844 45.492188 C 26.296875 47.429688 25.878906 49.363281 25.464844 51.300781 C 25.28125 52.15625 24.992188 53.484375 24.828125 54.246094 C 24.3125 56.628906 24.277344 56.832031 24.328125 56.882812 C 24.371094 56.921875 26.953125 57.519531 27.296875 57.570312 C 27.40625 57.585938 27.339844 58.160156 28.050781 51.023438 C 28.175781 49.753906 28.304688 48.484375 28.4375 47.214844 C 28.558594 46.011719 28.679688 44.808594 28.800781 43.605469 C 28.894531 42.640625 29.03125 41.28125 29.105469 40.585938 C 29.183594 39.890625 29.242188 39.257812 29.242188 39.183594 C 29.242188 39.046875 29.242188 39.046875 28.691406 39.046875 C 28.386719 39.046875 28.128906 39.066406 28.113281 39.089844 M 34.65625 39.578125 C 34.671875 39.625 34.816406 40.066406 34.972656 40.5625 C 35.136719 41.085938 35.300781 41.609375 35.46875 42.132812 C 35.585938 42.496094 35.859375 43.375 36.078125 44.078125 C 36.296875 44.777344 36.574219 45.65625 36.691406 46.019531 C 36.808594 46.386719 37.082031 47.261719 37.300781 47.964844 C 37.519531 48.667969 37.796875 49.546875 37.914062 49.910156 C 38.03125 50.277344 38.304688 51.152344 38.523438 51.855469 C 38.742188 52.558594 39.097656 53.699219 39.3125 54.386719 L 40.007812 56.609375 C 40.300781 57.542969 40.699219 58.792969 40.714844 58.8125 C 40.730469 58.835938 43.371094 58.503906 43.402344 58.476562 C 43.433594 58.445312 43.261719 57.996094 42.550781 56.273438 C 42.316406 55.710938 42.019531 54.984375 41.886719 54.664062 C 41.757812 54.34375 41.332031 53.304688 40.941406 52.355469 C 40.550781 51.410156 40.128906 50.371094 40 50.050781 C 39.867188 49.730469 39.582031 49.03125 39.359375 48.496094 C 39.136719 47.960938 38.851562 47.257812 38.71875 46.9375 C 38.589844 46.617188 38.1875 45.640625 37.832031 44.769531 C 37.515625 44.003906 37.199219 43.234375 36.882812 42.464844 C 36.644531 41.878906 36.40625 41.296875 36.164062 40.714844 C 35.929688 40.148438 35.722656 39.640625 35.707031 39.589844 C 35.683594 39.503906 35.605469 39.492188 35.152344 39.492188 C 34.699219 39.492188 34.628906 39.503906 34.65625 39.578125 M 30.222656 40.949219 C 30.203125 41.628906 30.175781 43.0625 30.160156 44.132812 C 30.121094 46.871094 30.027344 52.378906 29.96875 55.523438 C 29.941406 56.992188 29.9375 58.207031 29.957031 58.226562 C 30.011719 58.273438 31.417969 58.511719 31.453125 58.476562 C 31.46875 58.460938 31.414062 54.289062 31.332031 49.207031 C 31.253906 44.121094 31.1875 39.90625 31.1875 39.839844 C 31.1875 39.71875 31.167969 39.714844 30.722656 39.714844 L 30.257812 39.714844 Z M 32.492188 39.839844 C 32.519531 39.957031 32.691406 41.210938 33.222656 45.214844 C 33.359375 46.238281 33.554688 47.703125 33.660156 48.464844 C 33.765625 49.230469 33.941406 50.53125 34.050781 51.355469 C 34.523438 54.871094 34.6875 56.113281 34.890625 57.59375 L 35.105469 59.164062 L 35.945312 59.164062 C 36.40625 59.164062 36.796875 59.152344 36.8125 59.136719 C 36.828125 59.121094 36.792969 58.839844 36.738281 58.511719 C 36.628906 57.882812 35.449219 50.984375 35.078125 48.800781 C 34.960938 48.097656 34.671875 46.410156 34.4375 45.046875 C 34.207031 43.6875 33.917969 41.988281 33.796875 41.269531 C 33.679688 40.550781 33.566406 39.90625 33.550781 39.839844 C 33.523438 39.71875 33.496094 39.714844 32.992188 39.714844 C 32.472656 39.714844 32.464844 39.714844 32.492188 39.839844 " fill-opacity="1" fill-rule="evenodd"/></svg>