<svg xmlns="http://www.w3.org/2000/svg" xmlns:xlink="http://www.w3.org/1999/xlink" width="1024" zoomAndPan="magnify" viewBox="0 0 768 767.999994" height="1024" preserveAspectRatio="xMidYMid meet" version="1.0"><defs><g/></defs><path fill="#f4b50b" d="M 367.371094 9.949219 C 367.371094 11.277344 367.703125 19.847656 368.109375 28.992188 C 368.515625 38.136719 369.410156 59.691406 370.101562 76.886719 C 370.789062 94.085938 371.796875 117.984375 372.339844 129.992188 C 372.878906 142.003906 373.324219 152.558594 373.324219 153.445312 L 373.324219 155.058594 L 391.609375 155.058594 L 391.890625 153.695312 C 392.042969 152.941406 393.183594 144.957031 394.425781 135.949219 C 395.664062 126.941406 397.898438 110.75 399.386719 99.964844 C 400.871094 89.183594 403.425781 70.648438 405.0625 58.773438 C 406.695312 46.898438 408.808594 31.597656 409.753906 24.773438 C 410.699219 17.949219 411.320312 12.230469 411.132812 12.066406 C 410.949219 11.898438 407.558594 11.488281 403.601562 11.148438 C 385.945312 9.648438 369.988281 8.136719 368.734375 7.847656 C 367.390625 7.539062 367.371094 7.570312 367.371094 9.949219 M 332.355469 12.542969 C 332.09375 12.777344 324.960938 16.597656 316.496094 21.039062 C 308.035156 25.476562 300.835938 29.328125 300.5 29.597656 C 300.113281 29.910156 300.046875 30.386719 300.316406 30.90625 C 300.550781 31.355469 301.679688 34.960938 302.828125 38.917969 C 303.972656 42.878906 305.660156 48.574219 306.574219 51.574219 C 307.488281 54.578125 309.59375 61.558594 311.25 67.085938 C 318.429688 91.035156 320.433594 97.691406 322.710938 105.179688 C 326.941406 119.074219 340.167969 163.175781 340.6875 165.109375 C 340.960938 166.132812 341.410156 166.96875 341.679688 166.96875 C 342.902344 166.96875 355.457031 163.292969 355.457031 162.9375 C 355.457031 162.714844 350.65625 128.925781 344.789062 87.847656 C 338.917969 46.769531 334.117188 12.925781 334.117188 12.636719 C 334.117188 12.011719 333.011719 11.953125 332.355469 12.542969 M 463.65625 14.371094 C 456.628906 15.480469 449.605469 16.589844 442.578125 17.695312 L 435.148438 18.863281 L 434.523438 21.019531 C 434.179688 22.207031 432.5625 29.121094 430.929688 36.382812 C 429.027344 44.839844 427.113281 53.296875 425.191406 61.75 C 423.671875 68.4375 421.214844 79.269531 419.730469 85.820312 C 417.914062 93.847656 416.09375 101.871094 414.261719 109.894531 C 411.550781 121.777344 407.078125 141.515625 406.019531 146.28125 C 405.730469 147.597656 405.566406 148.746094 405.664062 148.835938 C 406.847656 149.949219 415.75 155.007812 416.003906 154.710938 C 416.195312 154.492188 417.375 151.96875 418.625 149.101562 C 419.875 146.234375 423.402344 138.308594 426.457031 131.484375 C 429.515625 124.660156 433.464844 115.835938 435.238281 111.878906 C 437.007812 107.921875 439.414062 102.558594 440.582031 99.964844 C 442.652344 95.367188 445.714844 88.535156 452.488281 73.414062 C 454.320312 69.320312 456.828125 63.734375 458.058594 61.003906 C 459.289062 58.277344 461.585938 53.140625 463.164062 49.589844 C 465.871094 43.503906 476.261719 20.390625 478.835938 14.722656 L 480.023438 12.117188 L 478.664062 12.164062 C 477.917969 12.191406 471.164062 13.183594 463.65625 14.371094 M 488.472656 42.242188 C 480.6875 57.667969 472.90625 73.09375 465.121094 88.519531 C 456.613281 105.359375 448.113281 122.199219 439.621094 139.046875 L 427.796875 162.488281 L 430.5625 165.871094 C 432.085938 167.730469 433.742188 169.625 434.25 170.082031 C 435.289062 171.023438 432.746094 174.253906 459.175781 138.429688 C 460.988281 135.976562 464.949219 130.613281 467.980469 126.519531 L 478.871094 111.800781 C 482.722656 106.59375 486.574219 101.382812 490.421875 96.167969 C 493.8125 91.570312 498.40625 85.351562 500.628906 82.347656 L 508.976562 71.054688 C 514.679688 63.335938 520.390625 55.621094 526.105469 47.910156 C 528.609375 44.53125 530.660156 41.59375 530.660156 41.382812 C 530.660156 40.925781 525.773438 38.085938 501.5625 24.46875 C 500.164062 23.679688 498.824219 23.039062 498.585938 23.042969 C 498.347656 23.042969 493.796875 31.683594 488.472656 42.242188 M 263.640625 55.40625 C 263.640625 55.738281 266.183594 61.378906 269.292969 67.9375 C 272.402344 74.5 280.082031 90.699219 286.359375 103.9375 C 292.632812 117.175781 302.796875 138.617188 308.945312 151.585938 C 315.09375 164.550781 320.691406 176.441406 321.386719 178.011719 C 322.078125 179.582031 322.828125 180.855469 323.046875 180.84375 C 323.265625 180.832031 324.886719 179.496094 326.648438 177.878906 L 329.851562 174.933594 L 327.84375 170.582031 C 321.382812 156.550781 272.773438 55.484375 272.347656 55.179688 C 271.421875 54.53125 263.640625 54.734375 263.640625 55.40625 M 548.679688 61.128906 C 539.824219 71.652344 516.046875 100.140625 514.777344 101.746094 C 514.09375 102.609375 498.953125 120.78125 481.132812 142.125 L 448.730469 180.929688 L 450.054688 182.511719 C 454.136719 187.398438 454.746094 187.914062 455.613281 187.230469 C 456.628906 186.429688 498.9375 147.445312 508.574219 138.4375 C 513.105469 134.203125 517.65625 129.984375 522.222656 125.78125 C 557.929688 92.972656 579.296875 72.976562 578.960938 72.683594 C 578.058594 71.910156 554.046875 55.296875 553.824219 55.296875 C 553.695312 55.296875 551.378906 57.921875 548.679688 61.128906 M 219.871094 69.761719 C 218.277344 71.921875 216.6875 74.085938 215.097656 76.246094 C 213.953125 77.804688 213.015625 79.253906 213.019531 79.472656 C 213.023438 79.6875 215.421875 82.453125 218.355469 85.613281 C 221.285156 88.773438 230.496094 98.710938 238.816406 107.699219 C 250.308594 120.101562 261.804688 132.5 273.308594 144.886719 C 283.960938 156.355469 297.675781 171.148438 303.792969 177.769531 C 309.90625 184.386719 315.097656 189.800781 315.324219 189.800781 C 315.550781 189.800781 316.324219 188.640625 317.042969 187.222656 C 318.597656 184.152344 318.980469 184.984375 312.078125 176.46875 C 306.277344 169.308594 281.738281 138.980469 273.125 128.320312 C 269.957031 124.394531 263.789062 116.773438 259.421875 111.382812 C 255.054688 105.996094 248.910156 98.398438 245.773438 94.503906 C 231.933594 77.339844 224.25 67.886719 223.4375 67.035156 C 222.589844 66.144531 222.46875 66.234375 219.871094 69.761719 M 580.292969 98.835938 C 573.601562 105.007812 558.199219 119.121094 546.058594 130.199219 C 486.3125 184.730469 465.382812 203.898438 465.25 204.214844 C 465.039062 204.722656 470.113281 209.429688 470.699219 209.265625 C 470.976562 209.1875 475.8125 205.511719 481.449219 201.101562 C 497.589844 188.46875 513.746094 175.851562 529.910156 163.246094 C 546.550781 150.277344 563.179688 137.289062 579.796875 124.285156 C 586.210938 119.261719 594.027344 113.160156 597.167969 110.726562 C 600.304688 108.296875 602.933594 106.050781 603.007812 105.742188 C 603.082031 105.433594 602.179688 103.503906 601 101.457031 C 599.3125 98.519531 597.625 95.582031 595.941406 92.644531 C 594.332031 89.847656 592.890625 87.570312 592.734375 87.585938 C 592.578125 87.601562 586.980469 92.664062 580.292969 98.835938 M 169.132812 115.71875 C 163.550781 123.300781 162.054688 125.644531 162.527344 126.082031 C 162.859375 126.394531 166.261719 128.320312 170.082031 130.367188 C 173.90625 132.410156 181.050781 136.261719 185.964844 138.921875 C 190.878906 141.585938 197.800781 145.332031 201.351562 147.246094 C 204.898438 149.164062 211.710938 152.851562 216.488281 155.441406 C 221.265625 158.03125 227.964844 161.652344 231.378906 163.492188 C 250.367188 173.730469 257.4375 177.546875 261.902344 179.972656 C 277.089844 188.226562 300.140625 200.664062 303.496094 202.417969 L 307.367188 204.441406 L 309.582031 202.03125 L 311.792969 199.621094 L 308.933594 197.601562 C 307.359375 196.492188 300.714844 191.859375 294.164062 187.3125 C 287.457031 182.65625 280.757812 177.996094 274.0625 173.332031 C 250.953125 157.222656 226.628906 140.292969 218.226562 134.460938 C 213.039062 130.863281 205 125.269531 200.359375 122.03125 C 180.210938 107.980469 177.195312 105.921875 176.785156 105.921875 C 176.542969 105.921875 173.101562 110.332031 169.132812 115.71875 M 615.28125 157.761719 C 603.824219 162.464844 577.636719 173.128906 556.714844 181.613281 C 551.832031 183.59375 546.953125 185.578125 542.074219 187.566406 C 535.511719 190.246094 526.183594 194.042969 508.574219 201.199219 C 497.234375 205.808594 480.488281 212.632812 475.964844 214.488281 L 474.128906 215.242188 L 475.402344 217.785156 C 476.105469 219.179688 476.757812 220.414062 476.855469 220.519531 C 477.03125 220.710938 479.109375 220.007812 487.726562 216.832031 C 490.183594 215.925781 497.554688 213.25 504.105469 210.886719 C 533.769531 200.183594 545.136719 196.0625 549.519531 194.425781 C 552.652344 193.261719 555.792969 192.128906 558.949219 191.027344 C 561.542969 190.128906 568.242188 187.71875 573.839844 185.667969 C 579.433594 183.617188 589.375 180.007812 595.925781 177.644531 C 618.542969 169.488281 624.214844 167.386719 624.539062 167.054688 C 624.988281 166.597656 622.761719 155.394531 622.191406 155.238281 C 621.941406 155.171875 618.832031 156.304688 615.28125 157.761719 M 150.515625 167.890625 C 149.996094 168.867188 144.253906 182.25 141.054688 189.949219 C 140.167969 192.082031 139.527344 193.894531 139.625 193.980469 C 139.726562 194.066406 142.933594 194.964844 146.753906 195.976562 C 150.578125 196.988281 156.941406 198.679688 160.902344 199.730469 C 164.859375 200.785156 173.679688 203.128906 180.503906 204.941406 C 187.328125 206.753906 197.828125 209.546875 203.832031 211.152344 C 209.839844 212.753906 219.886719 215.433594 226.167969 217.101562 C 232.445312 218.773438 240.820312 221.003906 244.777344 222.0625 C 251.3125 223.804688 257.847656 225.542969 264.382812 227.277344 C 271.207031 229.089844 280.46875 231.554688 284.964844 232.757812 C 289.460938 233.960938 293.296875 234.785156 293.484375 234.585938 C 293.898438 234.152344 296.546875 224.523438 296.3125 224.308594 C 296.144531 224.15625 292.90625 222.871094 266.863281 212.632812 C 258.675781 209.410156 247.0625 204.832031 241.054688 202.457031 C 213.644531 191.613281 208.773438 189.691406 200.855469 186.574219 C 196.214844 184.75 188.285156 181.621094 183.234375 179.621094 C 178.183594 177.621094 169.140625 174.046875 163.132812 171.671875 C 157.128906 169.300781 151.953125 167.253906 151.632812 167.125 C 151.3125 166.996094 150.808594 167.34375 150.515625 167.890625 M 382.507812 167.273438 C 360.308594 170.546875 338.84375 182.308594 320.445312 201.285156 C 302.371094 219.921875 295.285156 252.296875 303.671875 277.898438 C 308.71875 293.296875 319.417969 306.046875 335.109375 315.359375 C 347.375 322.644531 363.5625 328.0625 381.320312 330.835938 C 390.800781 332.3125 409.164062 332.453125 416.503906 331.097656 C 450.023438 324.921875 471.011719 299.832031 474.09375 262.261719 C 475.070312 250.367188 473.980469 240.597656 470.574219 230.71875 C 462.464844 207.191406 443.753906 185.335938 422.691406 174.78125 C 412.269531 169.5625 403.816406 167.46875 392.1875 167.226562 C 387.683594 167.128906 383.328125 167.152344 382.507812 167.273438 M 479.910156 232.753906 C 479.25 233.449219 479.472656 240.929688 480.160156 241.152344 C 480.5 241.261719 489.15625 242.148438 499.390625 243.121094 C 530.152344 246.042969 553.25 248.269531 571.855469 250.105469 C 607.175781 253.582031 626.625 255.351562 627.1875 255.136719 C 627.609375 254.976562 627.46875 253.203125 626.671875 248.539062 C 626.066406 245.03125 625.429688 241.132812 625.246094 239.875 L 624.921875 237.589844 L 615.386719 237.253906 C 594.539062 236.519531 550.386719 234.90625 525.945312 233.984375 C 486.523438 232.496094 480.3125 232.328125 479.910156 232.753906 M 112.699219 240.246094 C 112.667969 240.480469 112.695312 241.121094 112.761719 241.667969 C 112.824219 242.210938 113.355469 248.578125 113.933594 255.8125 L 114.992188 268.964844 L 121.441406 268.839844 C 124.992188 268.773438 142.414062 267.9375 160.15625 266.984375 C 177.898438 266.03125 205.816406 264.578125 222.195312 263.75 C 263.617188 261.664062 288.097656 260.296875 288.828125 260.035156 C 289.199219 259.902344 289.449219 258.914062 289.449219 257.574219 C 289.449219 254.886719 290 255.070312 279.769531 254.324219 C 275.675781 254.027344 263.503906 253.003906 252.71875 252.046875 C 241.9375 251.09375 222.617188 249.425781 209.789062 248.34375 C 196.957031 247.257812 183 246.042969 178.769531 245.644531 C 174.535156 245.246094 158.902344 243.902344 144.027344 242.664062 C 129.148438 241.425781 116.027344 240.277344 114.867188 240.113281 C 113.707031 239.949219 112.730469 240.007812 112.699219 240.246094 M 483.011719 259.4375 L 483.011719 263.558594 L 512.914062 270.914062 C 603.105469 293.101562 631.613281 300.011719 632.128906 299.816406 C 632.894531 299.519531 635.523438 281.019531 634.855469 280.609375 C 634.585938 280.441406 607.734375 275.882812 575.191406 270.480469 C 550.128906 266.3125 525.054688 262.148438 499.972656 257.988281 C 491.144531 256.515625 483.71875 255.316406 483.46875 255.316406 C 483.21875 255.316406 483.011719 257.167969 483.011719 259.4375 M 283.738281 267.527344 C 281.828125 267.914062 273.230469 269.457031 264.632812 270.957031 C 238.160156 275.574219 195.917969 282.992188 161.398438 289.085938 C 152.824219 290.597656 144.246094 292.09375 135.667969 293.578125 C 127.933594 294.914062 121.402344 296.132812 121.160156 296.285156 C 120.914062 296.433594 121.238281 297.382812 121.871094 298.394531 C 122.507812 299.40625 125.089844 303.863281 127.609375 308.296875 C 130.132812 312.734375 132.300781 316.363281 132.429688 316.363281 C 132.714844 316.363281 148.039062 312.300781 153.953125 310.65625 C 156.273438 310.011719 164.089844 307.890625 171.324219 305.941406 C 178.558594 303.992188 188.550781 301.296875 193.535156 299.949219 L 211.648438 295.054688 C 216.632812 293.707031 226.625 291.011719 233.859375 289.066406 C 241.09375 287.117188 251.03125 284.4375 255.945312 283.109375 C 272.339844 278.671875 285.195312 275.242188 288.457031 274.433594 C 293.253906 273.246094 293.054688 273.421875 291.757812 271.511719 C 291.121094 270.574219 290.316406 269.117188 289.964844 268.269531 C 289.238281 266.511719 288.925781 266.476562 283.738281 267.527344 M 479.851562 273.035156 C 479.679688 273.207031 479.539062 274.742188 479.539062 276.449219 L 479.539062 279.546875 L 486.363281 283.246094 C 490.117188 285.28125 495.53125 288.175781 498.398438 289.683594 C 501.265625 291.191406 512.542969 297.167969 523.460938 302.960938 C 534.382812 308.753906 550.910156 317.519531 560.191406 322.441406 C 569.472656 327.363281 581.980469 334.007812 587.984375 337.210938 C 613.402344 350.769531 618.117188 353.179688 618.453125 352.773438 C 620.65625 350.097656 630.449219 334.570312 630.117188 334.277344 C 629.875 334.066406 621.523438 330.578125 611.558594 326.527344 C 603.121094 323.097656 594.683594 319.664062 586.246094 316.222656 C 582.289062 314.609375 576.148438 312.105469 572.597656 310.660156 C 569.050781 309.214844 563.132812 306.804688 559.445312 305.300781 C 555.761719 303.796875 536.859375 296.089844 517.445312 288.175781 C 498.03125 280.257812 481.699219 273.542969 481.15625 273.25 C 480.609375 272.960938 480.023438 272.863281 479.851562 273.035156 M 219.75 307.113281 C 179.917969 320.816406 147.257812 332.242188 147.175781 332.507812 C 147.097656 332.773438 147.875 337.902344 148.910156 343.90625 C 150.386719 352.492188 150.941406 354.792969 151.5 354.664062 C 151.890625 354.570312 159.246094 351.242188 167.847656 347.261719 C 179.753906 341.746094 191.667969 336.246094 203.585938 330.753906 C 210.558594 327.539062 216.332031 324.867188 240.558594 313.628906 C 249.839844 309.324219 260.003906 304.628906 263.144531 303.191406 C 267.78125 301.0625 272.410156 298.925781 277.039062 296.777344 C 281.96875 294.496094 286.898438 292.21875 291.835938 289.953125 L 298.4375 286.925781 L 296.070312 284.519531 C 294.769531 283.199219 293.359375 282.136719 292.941406 282.160156 C 292.519531 282.183594 259.585938 293.414062 219.75 307.113281 M 475.683594 290.519531 L 474.164062 293.960938 L 492.355469 310.746094 C 503.539062 321.0625 514.734375 331.363281 525.941406 341.65625 C 535.300781 350.25 544.648438 358.859375 553.988281 367.480469 C 563.355469 376.136719 572.730469 384.777344 582.113281 393.414062 L 597.585938 407.644531 L 605.8125 398.914062 C 610.339844 394.113281 614.042969 390 614.042969 389.777344 C 614.042969 389.558594 609.628906 386.050781 604.238281 381.992188 C 585.394531 367.796875 548.011719 339.675781 515.023438 314.882812 C 496.734375 301.136719 480.996094 289.257812 480.046875 288.484375 C 479.097656 287.710938 478.070312 287.078125 477.761719 287.078125 C 477.457031 287.078125 476.519531 288.628906 475.683594 290.519531 M 295.898438 296.175781 C 292.300781 298.234375 290.746094 299.109375 276.792969 306.925781 C 273.394531 308.828125 270.003906 310.734375 266.617188 312.648438 C 257.972656 317.542969 250.351562 321.824219 230.882812 332.726562 C 219.554688 339.070312 208.609375 345.214844 206.5625 346.375 C 203.257812 348.246094 199.949219 350.109375 196.636719 351.964844 C 192.496094 354.285156 188.363281 356.609375 184.226562 358.9375 C 179.1875 361.769531 174.140625 364.59375 169.089844 367.40625 C 164.175781 370.140625 159.738281 372.679688 159.226562 373.050781 C 158.335938 373.695312 158.371094 373.867188 160.109375 377.3125 L 161.917969 380.90625 L 181.386719 371.035156 C 211.765625 355.628906 300.699219 310.847656 304.707031 308.9375 C 306.6875 307.992188 308.304688 306.988281 308.304688 306.703125 C 308.300781 306.417969 306.625 303.625 304.582031 300.492188 C 302.535156 297.363281 300.863281 294.625 300.863281 294.414062 C 300.863281 293.625 299.527344 294.101562 295.898438 296.175781 M 473.496094 306.011719 C 471.972656 308.339844 470.054688 312.488281 470.203125 313.128906 C 470.332031 313.675781 506.457031 352.136719 525.6875 372.199219 C 528.566406 375.199219 538.511719 385.691406 547.789062 395.511719 C 577.152344 426.585938 578.539062 428.035156 578.984375 428.035156 C 579.390625 428.035156 582.300781 424.929688 584.421875 422.234375 L 585.328125 421.085938 L 575.746094 411.035156 C 524.636719 357.421875 482.9375 313.746094 479.027344 309.734375 L 474.261719 304.84375 Z M 308.804688 322.390625 C 296.574219 328.929688 264.675781 345.835938 236.339844 360.792969 C 226.378906 366.050781 214.304688 372.445312 209.515625 375 C 204.722656 377.554688 193.613281 383.441406 184.824219 388.082031 C 176.035156 392.722656 168.84375 396.722656 168.84375 396.972656 C 168.84375 397.222656 171.433594 401.40625 174.601562 406.273438 C 178.203125 411.8125 180.574219 415 180.929688 414.792969 C 181.980469 414.183594 201.398438 401.617188 213.015625 394.03125 C 216.425781 391.804688 242.445312 374.949219 270.835938 356.574219 C 299.226562 338.203125 322.632812 323.011719 322.855469 322.816406 C 323.324219 322.398438 321.15625 316.746094 320.453125 316.550781 C 320.1875 316.476562 314.945312 319.105469 308.804688 322.390625 M 317.738281 341.535156 C 312.960938 346.613281 301.683594 358.503906 292.671875 367.960938 C 283.664062 377.417969 272.273438 389.390625 267.363281 394.570312 C 262.449219 399.75 249.964844 412.875 239.621094 423.738281 C 223.820312 440.332031 220.925781 443.59375 221.503906 444.140625 C 223.332031 445.851562 236.4375 456.324219 236.742188 456.3125 C 236.929688 456.304688 239.207031 453.589844 241.800781 450.28125 C 246.992188 443.65625 253.375 435.578125 269.179688 415.625 C 272.3125 411.667969 279.988281 401.953125 286.230469 394.035156 C 302.703125 373.148438 314.214844 358.5625 322.425781 348.171875 C 326.398438 343.144531 329.648438 338.863281 329.648438 338.648438 C 329.648438 337.941406 327.042969 332.242188 326.730469 332.273438 C 326.5625 332.289062 322.515625 336.457031 317.738281 341.535156 M 437.738281 334.304688 L 434.902344 336.34375 L 438.96875 341.613281 C 441.203125 344.511719 448.066406 353.371094 454.214844 361.292969 C 460.363281 369.21875 469.078125 380.457031 473.582031 386.269531 C 485.285156 401.371094 498.574219 418.484375 506.339844 428.457031 C 510.023438 433.1875 513.488281 437.660156 514.03125 438.398438 C 514.578125 439.136719 517.363281 442.746094 520.214844 446.417969 C 523.070312 450.09375 530.523438 459.6875 536.773438 467.738281 C 543.023438 475.792969 548.28125 482.433594 548.457031 482.496094 C 548.632812 482.558594 549.90625 480.996094 551.292969 479.023438 C 552.675781 477.046875 555.648438 472.894531 557.894531 469.796875 C 561.910156 464.257812 561.96875 464.140625 561.085938 463.117188 C 559.753906 461.574219 531.992188 431.175781 501.847656 398.253906 C 487.222656 382.285156 467.710938 360.957031 458.488281 350.855469 C 449.265625 340.757812 441.464844 332.441406 441.148438 332.382812 C 440.835938 332.320312 439.300781 333.1875 437.738281 334.304688 M 337.265625 341.550781 C 336.84375 342.574219 335.316406 345.980469 333.878906 349.121094 C 331.878906 353.496094 329.898438 357.878906 327.929688 362.273438 C 326.117188 366.332031 324.289062 370.382812 322.449219 374.433594 C 320.277344 379.191406 318.144531 383.910156 312.027344 397.511719 C 310.183594 401.605469 307.613281 407.300781 306.320312 410.167969 C 304.414062 414.382812 302.515625 418.601562 300.625 422.824219 C 298.734375 427.046875 296.828125 431.265625 294.910156 435.480469 C 293.597656 438.34375 290.921875 444.265625 288.960938 448.632812 C 283.359375 461.109375 281.566406 465.078125 278.636719 471.460938 C 274.066406 481.425781 272.519531 485.257812 272.929688 485.632812 C 273.398438 486.058594 283.578125 489.082031 284.546875 489.082031 C 284.921875 489.082031 285.710938 487.796875 286.304688 486.226562 C 286.894531 484.65625 288.980469 479.464844 290.9375 474.6875 C 292.894531 469.910156 296.792969 460.308594 299.601562 453.347656 C 302.742188 445.566406 305.886719 437.792969 309.035156 430.019531 C 312.390625 421.75 315.738281 413.476562 319.082031 405.203125 C 330.730469 376.363281 343.707031 344.347656 344.378906 342.789062 C 344.625 342.214844 339.871094 339.6875 338.542969 339.6875 C 338.265625 339.6875 337.691406 340.527344 337.265625 341.550781 M 357.273438 347.507812 C 357.046875 347.878906 355.609375 354.40625 350.246094 379.394531 C 348.433594 387.835938 346.613281 396.269531 344.789062 404.707031 C 341.054688 421.992188 337.328125 439.28125 333.613281 456.574219 C 331.96875 464.214844 329.417969 476.054688 327.941406 482.878906 C 323.34375 504.152344 323.003906 505.960938 323.484375 506.425781 C 323.84375 506.777344 346.921875 512.105469 350 512.550781 C 350.945312 512.6875 350.359375 517.820312 356.710938 454.089844 C 357.84375 442.757812 358.992188 431.425781 360.160156 420.09375 C 361.265625 409.34375 362.34375 398.589844 363.398438 387.832031 C 364.238281 379.234375 365.472656 367.109375 366.148438 360.886719 C 366.820312 354.667969 367.371094 349.027344 367.371094 348.355469 C 367.371094 347.140625 367.347656 347.132812 362.4375 347.132812 C 359.722656 347.132812 357.398438 347.300781 357.273438 347.507812 M 415.699219 351.867188 C 415.859375 352.289062 417.132812 356.25 418.523438 360.675781 C 419.996094 365.347656 421.472656 370.015625 422.960938 374.679688 C 424.007812 377.957031 426.464844 385.773438 428.417969 392.050781 C 430.371094 398.328125 432.828125 406.148438 433.875 409.421875 C 434.925781 412.699219 437.382812 420.515625 439.335938 426.792969 C 441.289062 433.070312 443.746094 440.890625 444.796875 444.164062 C 445.847656 447.441406 448.300781 455.257812 450.25 461.535156 C 452.199219 467.816406 455.367188 477.976562 457.289062 484.117188 L 463.496094 503.972656 C 466.105469 512.308594 469.6875 523.488281 469.804688 523.65625 C 469.945312 523.859375 493.546875 520.902344 493.796875 520.652344 C 494.089844 520.359375 492.542969 516.359375 486.191406 500.992188 C 484.101562 495.945312 481.449219 489.464844 480.289062 486.601562 C 479.132812 483.734375 475.332031 474.464844 471.847656 466.003906 C 468.363281 457.539062 464.566406 448.273438 463.410156 445.40625 C 462.257812 442.539062 459.691406 436.285156 457.710938 431.507812 C 455.726562 426.730469 453.152344 420.476562 451.992188 417.613281 C 450.828125 414.746094 447.257812 406.035156 444.054688 398.253906 C 441.230469 391.394531 438.410156 384.527344 435.605469 377.65625 C 433.472656 372.441406 431.324219 367.230469 429.167969 362.023438 C 427.074219 356.972656 425.238281 352.449219 425.09375 351.972656 C 424.863281 351.226562 424.171875 351.105469 420.117188 351.105469 C 416.082031 351.105469 415.449219 351.214844 415.699219 351.867188 M 376.117188 364.132812 C 375.953125 370.207031 375.703125 382.992188 375.558594 392.546875 C 375.1875 417.023438 374.359375 466.1875 373.835938 494.292969 C 373.59375 507.394531 373.546875 518.25 373.734375 518.417969 C 374.21875 518.847656 386.789062 520.949219 387.089844 520.648438 C 387.226562 520.511719 386.75 483.257812 386.03125 437.859375 C 385.308594 392.464844 384.726562 354.820312 384.730469 354.207031 C 384.742188 353.136719 384.566406 353.089844 380.578125 353.089844 L 376.414062 353.089844 Z M 396.390625 354.207031 C 396.632812 355.28125 398.148438 366.472656 402.894531 402.226562 C 404.109375 411.371094 405.875 424.4375 406.816406 431.261719 C 407.757812 438.085938 409.332031 449.699219 410.316406 457.070312 C 414.503906 488.441406 415.996094 499.539062 417.800781 512.78125 L 419.714844 526.800781 L 427.210938 526.800781 C 431.332031 526.800781 434.820312 526.6875 434.957031 526.546875 C 435.097656 526.40625 434.796875 523.894531 434.285156 520.964844 C 433.308594 515.355469 422.789062 453.75 419.476562 434.238281 C 418.410156 427.960938 415.839844 412.882812 413.765625 400.738281 C 411.6875 388.589844 409.113281 373.402344 408.046875 366.988281 C 406.976562 360.570312 405.984375 354.820312 405.835938 354.207031 C 405.582031 353.144531 405.332031 353.089844 400.851562 353.089844 C 396.21875 353.089844 396.140625 353.109375 396.390625 354.207031 " fill-opacity="1" fill-rule="evenodd"/><g fill="#000000" fill-opacity="1"><g transform="translate(71.9958, 632.922243)"><g><path d="M 6.765625 -93 L 40.6875 -93 C 50.15625 -93 57.820312 -90.554688 63.6875 -85.671875 C 69.550781 -80.785156 72.484375 -73.679688 72.484375 -64.359375 C 72.484375 -55.046875 69.515625 -47.738281 63.578125 -42.4375 C 57.640625 -37.132812 50.007812 -34.484375 40.6875 -34.484375 L 27.953125 -34.484375 L 27.953125 0 L 6.765625 0 Z M 27.953125 -51.40625 L 33.921875 -51.40625 C 38.660156 -51.40625 42.550781 -52.363281 45.59375 -54.28125 C 48.632812 -56.195312 50.15625 -59.332031 50.15625 -63.6875 C 50.15625 -68.125 48.632812 -71.296875 45.59375 -73.203125 C 42.550781 -75.117188 38.660156 -76.078125 33.921875 -76.078125 L 27.953125 -76.078125 Z M 27.953125 -51.40625 "/></g></g></g><g fill="#000000" fill-opacity="1"><g transform="translate(147.063044, 632.922243)"><g><path d="M 65.265625 -26.15625 L 23.328125 -26.15625 C 23.328125 -22.09375 24.640625 -19.082031 27.265625 -17.125 C 29.898438 -15.175781 32.757812 -14.203125 35.84375 -14.203125 C 39.070312 -14.203125 41.625 -14.632812 43.5 -15.5 C 45.382812 -16.363281 47.53125 -18.070312 49.9375 -20.625 L 64.359375 -13.40625 C 58.347656 -3.34375 48.351562 1.6875 34.375 1.6875 C 25.65625 1.6875 18.175781 -1.296875 11.9375 -7.265625 C 5.707031 -13.242188 2.59375 -20.441406 2.59375 -28.859375 C 2.59375 -37.273438 5.707031 -44.488281 11.9375 -50.5 C 18.175781 -56.507812 25.65625 -59.515625 34.375 -59.515625 C 43.539062 -59.515625 51 -56.863281 56.75 -51.5625 C 62.5 -46.269531 65.375 -38.703125 65.375 -28.859375 C 65.375 -27.503906 65.335938 -26.601562 65.265625 -26.15625 Z M 23.890625 -37.203125 L 45.875 -37.203125 C 45.425781 -40.203125 44.242188 -42.507812 42.328125 -44.125 C 40.410156 -45.738281 37.945312 -46.546875 34.9375 -46.546875 C 31.632812 -46.546875 29.003906 -45.679688 27.046875 -43.953125 C 25.097656 -42.234375 24.046875 -39.984375 23.890625 -37.203125 Z M 23.890625 -37.203125 "/></g></g></g><g fill="#000000" fill-opacity="1"><g transform="translate(215.029329, 632.922243)"><g><path d="M 6.765625 0 L 6.765625 -57.828125 L 26.71875 -57.828125 L 26.71875 -49.484375 L 26.9375 -49.484375 C 27.09375 -49.785156 27.335938 -50.160156 27.671875 -50.609375 C 28.015625 -51.054688 28.75 -51.84375 29.875 -52.96875 C 31 -54.101562 32.195312 -55.117188 33.46875 -56.015625 C 34.75 -56.921875 36.40625 -57.726562 38.4375 -58.4375 C 40.46875 -59.15625 42.535156 -59.515625 44.640625 -59.515625 C 46.816406 -59.515625 48.957031 -59.210938 51.0625 -58.609375 C 53.164062 -58.015625 54.707031 -57.414062 55.6875 -56.8125 L 57.265625 -55.90625 L 48.921875 -39 C 46.441406 -41.101562 42.984375 -42.15625 38.546875 -42.15625 C 36.140625 -42.15625 34.070312 -41.628906 32.34375 -40.578125 C 30.613281 -39.523438 29.390625 -38.242188 28.671875 -36.734375 C 27.960938 -35.234375 27.457031 -33.957031 27.15625 -32.90625 C 26.863281 -31.851562 26.71875 -31.03125 26.71875 -30.4375 L 26.71875 0 Z M 6.765625 0 "/></g></g></g><g fill="#000000" fill-opacity="1"><g transform="translate(271.160688, 632.922243)"><g><path d="M 6.765625 0 L 6.765625 -57.828125 L 26.71875 -57.828125 L 26.71875 -51.734375 L 26.9375 -51.734375 C 32.125 -56.921875 37.648438 -59.515625 43.515625 -59.515625 C 47.722656 -59.515625 51.664062 -58.648438 55.34375 -56.921875 C 59.03125 -55.191406 61.8125 -52.523438 63.6875 -48.921875 C 69.550781 -55.984375 75.9375 -59.515625 82.84375 -59.515625 C 89.007812 -59.515625 94.304688 -57.785156 98.734375 -54.328125 C 103.171875 -50.867188 105.390625 -45.457031 105.390625 -38.09375 L 105.390625 0 L 85.4375 0 L 85.4375 -32.6875 C 85.4375 -35.769531 84.59375 -38.34375 82.90625 -40.40625 C 81.21875 -42.476562 78.679688 -43.515625 75.296875 -43.515625 C 72.367188 -43.515625 70.132812 -42.628906 68.59375 -40.859375 C 67.050781 -39.097656 66.203125 -36.972656 66.046875 -34.484375 L 66.046875 0 L 46.109375 0 L 46.109375 -32.6875 C 46.109375 -35.769531 45.257812 -38.34375 43.5625 -40.40625 C 41.875 -42.476562 39.335938 -43.515625 35.953125 -43.515625 C 32.867188 -43.515625 30.554688 -42.554688 29.015625 -40.640625 C 27.484375 -38.722656 26.71875 -36.445312 26.71875 -33.8125 L 26.71875 0 Z M 6.765625 0 "/></g></g></g><g fill="#000000" fill-opacity="1"><g transform="translate(382.183581, 632.922243)"><g><path d="M 10.703125 -7.15625 C 5.296875 -13.050781 2.59375 -20.28125 2.59375 -28.84375 C 2.59375 -37.414062 5.296875 -44.671875 10.703125 -50.609375 C 16.117188 -56.546875 22.992188 -59.515625 31.328125 -59.515625 C 38.992188 -59.515625 45.304688 -57.109375 50.265625 -52.296875 L 50.265625 -57.828125 L 70.21875 -57.828125 L 70.21875 0 L 50.5 0 L 50.5 -6.53125 L 50.265625 -6.53125 C 45.304688 -1.050781 38.992188 1.6875 31.328125 1.6875 C 22.992188 1.6875 16.117188 -1.257812 10.703125 -7.15625 Z M 27.671875 -38.65625 C 25.078125 -36.101562 23.78125 -32.832031 23.78125 -28.84375 C 23.78125 -24.863281 25.019531 -21.613281 27.5 -19.09375 C 29.976562 -16.582031 33.25 -15.328125 37.3125 -15.328125 C 41.21875 -15.328125 44.425781 -16.601562 46.9375 -19.15625 C 49.457031 -21.71875 50.71875 -24.953125 50.71875 -28.859375 C 50.71875 -32.835938 49.421875 -36.101562 46.828125 -38.65625 C 44.242188 -41.21875 41.070312 -42.5 37.3125 -42.5 C 33.476562 -42.5 30.265625 -41.21875 27.671875 -38.65625 Z M 27.671875 -38.65625 "/></g></g></g><g fill="#000000" fill-opacity="1"><g transform="translate(459.166949, 632.922243)"><g><path d="M 56.25 -19.15625 C 59.476562 -19.15625 62.613281 -19.644531 65.65625 -20.625 C 68.695312 -21.601562 70.929688 -22.546875 72.359375 -23.453125 L 74.5 -24.90625 L 83.53125 -6.875 C 83.226562 -6.644531 82.8125 -6.34375 82.28125 -5.96875 C 81.757812 -5.59375 80.539062 -4.894531 78.625 -3.875 C 76.707031 -2.863281 74.65625 -1.984375 72.46875 -1.234375 C 70.289062 -0.484375 67.4375 0.1875 63.90625 0.78125 C 60.375 1.382812 56.734375 1.6875 52.984375 1.6875 C 44.335938 1.6875 36.144531 -0.429688 28.40625 -4.671875 C 20.664062 -8.921875 14.425781 -14.765625 9.6875 -22.203125 C 4.957031 -29.640625 2.59375 -37.679688 2.59375 -46.328125 C 2.59375 -52.867188 3.984375 -59.144531 6.765625 -65.15625 C 9.546875 -71.164062 13.242188 -76.3125 17.859375 -80.59375 C 22.484375 -84.875 27.875 -88.289062 34.03125 -90.84375 C 40.195312 -93.40625 46.515625 -94.6875 52.984375 -94.6875 C 58.992188 -94.6875 64.535156 -93.972656 69.609375 -92.546875 C 74.679688 -91.117188 78.269531 -89.691406 80.375 -88.265625 L 83.53125 -86.109375 L 74.5 -68.078125 C 73.976562 -68.535156 73.191406 -69.082031 72.140625 -69.71875 C 71.085938 -70.351562 68.984375 -71.195312 65.828125 -72.25 C 62.671875 -73.300781 59.476562 -73.828125 56.25 -73.828125 C 51.132812 -73.828125 46.546875 -73 42.484375 -71.34375 C 38.429688 -69.695312 35.222656 -67.519531 32.859375 -64.8125 C 30.492188 -62.101562 28.691406 -59.191406 27.453125 -56.078125 C 26.210938 -52.960938 25.59375 -49.785156 25.59375 -46.546875 C 25.59375 -39.484375 28.238281 -33.148438 33.53125 -27.546875 C 38.832031 -21.953125 46.40625 -19.15625 56.25 -19.15625 Z M 56.25 -19.15625 "/></g></g></g><g fill="#000000" fill-opacity="1"><g transform="translate(544.04026, 632.922243)"><g><path d="M 25.59375 -57.828125 L 25.59375 -30.328125 C 25.59375 -24.609375 26.453125 -20.546875 28.171875 -18.140625 C 29.898438 -15.742188 32.832031 -14.546875 36.96875 -14.546875 C 41.101562 -14.546875 44.035156 -15.742188 45.765625 -18.140625 C 47.492188 -20.546875 48.359375 -24.609375 48.359375 -30.328125 L 48.359375 -57.828125 L 68.3125 -57.828125 L 68.3125 -25.46875 C 68.3125 -15.851562 65.8125 -8.921875 60.8125 -4.671875 C 55.8125 -0.429688 47.863281 1.6875 36.96875 1.6875 C 26.070312 1.6875 18.125 -0.429688 13.125 -4.671875 C 8.132812 -8.921875 5.640625 -15.851562 5.640625 -25.46875 L 5.640625 -57.828125 Z M 25.59375 -57.828125 "/></g></g></g><g fill="#000000" fill-opacity="1"><g transform="translate(617.980336, 632.922243)"><g><path d="M 6.765625 0 L 6.765625 -96.9375 L 26.71875 -96.9375 L 26.71875 0 Z M 6.765625 0 "/></g></g></g><g fill="#000000" fill-opacity="1"><g transform="translate(651.456242, 632.922243)"><g><path d="M 10.140625 -57.828125 L 10.140625 -79.359375 L 30.09375 -79.359375 L 30.09375 -57.828125 L 42.265625 -57.828125 L 42.265625 -42.609375 L 30.09375 -42.609375 L 30.09375 -24.234375 C 30.09375 -18.898438 31.597656 -16.234375 34.609375 -16.234375 C 35.359375 -16.234375 36.144531 -16.382812 36.96875 -16.6875 C 37.800781 -16.988281 38.441406 -17.285156 38.890625 -17.578125 L 39.5625 -18.03125 L 44.53125 -1.921875 C 40.238281 0.484375 35.351562 1.6875 29.875 1.6875 C 26.113281 1.6875 22.878906 1.03125 20.171875 -0.28125 C 17.472656 -1.59375 15.425781 -3.359375 14.03125 -5.578125 C 12.644531 -7.796875 11.648438 -10.125 11.046875 -12.5625 C 10.441406 -15.007812 10.140625 -17.625 10.140625 -20.40625 L 10.140625 -42.609375 L 1.796875 -42.609375 L 1.796875 -57.828125 Z M 10.140625 -57.828125 "/></g></g></g><g fill="#000000" fill-opacity="1"><g transform="translate(2.759173, 702.138168)"><g><path d="M 28.484375 0 L 26.984375 -18.765625 L 26.796875 -18.765625 L 20.3125 -0.1875 L 16.015625 -0.1875 L 9.515625 -18.765625 L 9.328125 -18.765625 L 7.828125 0 L 0.609375 0 L 3.453125 -31.671875 L 11.140625 -31.671875 L 18.15625 -13.390625 L 25.1875 -31.671875 L 32.859375 -31.671875 L 35.703125 0 Z M 28.484375 0 "/></g></g></g><g fill="#000000" fill-opacity="1"><g transform="translate(39.068362, 702.138168)"><g><path d="M 26.640625 -31.671875 L 26.640625 -11.25 C 26.640625 -7.351562 25.585938 -4.40625 23.484375 -2.40625 C 21.390625 -0.414062 18.320312 0.578125 14.28125 0.578125 C 10.238281 0.578125 7.164062 -0.414062 5.0625 -2.40625 C 2.96875 -4.40625 1.921875 -7.351562 1.921875 -11.25 L 1.921875 -31.671875 L 9.140625 -31.671875 L 9.140625 -13.359375 C 9.140625 -10.796875 9.539062 -9.015625 10.34375 -8.015625 C 11.15625 -7.023438 12.46875 -6.53125 14.28125 -6.53125 C 16.09375 -6.53125 17.398438 -7.023438 18.203125 -8.015625 C 19.015625 -9.015625 19.421875 -10.796875 19.421875 -13.359375 L 19.421875 -31.671875 Z M 26.640625 -31.671875 "/></g></g></g><g fill="#000000" fill-opacity="1"><g transform="translate(67.624426, 702.138168)"><g><path d="M 13.96875 -32.25 C 15.6875 -32.25 17.363281 -32 19 -31.5 C 20.632812 -31 21.851562 -30.503906 22.65625 -30.015625 L 23.796875 -29.25 L 20.890625 -23.5 C 20.648438 -23.644531 20.328125 -23.835938 19.921875 -24.078125 C 19.515625 -24.328125 18.75 -24.65625 17.625 -25.0625 C 16.5 -25.476562 15.445312 -25.6875 14.46875 -25.6875 C 13.269531 -25.6875 12.34375 -25.425781 11.6875 -24.90625 C 11.039062 -24.394531 10.71875 -23.707031 10.71875 -22.84375 C 10.71875 -22.40625 10.867188 -22 11.171875 -21.625 C 11.472656 -21.257812 11.992188 -20.863281 12.734375 -20.4375 C 13.484375 -20.019531 14.140625 -19.679688 14.703125 -19.421875 C 15.265625 -19.171875 16.132812 -18.789062 17.3125 -18.28125 C 19.363281 -17.40625 21.109375 -16.21875 22.546875 -14.71875 C 23.992188 -13.226562 24.71875 -11.535156 24.71875 -9.640625 C 24.71875 -7.816406 24.390625 -6.226562 23.734375 -4.875 C 23.085938 -3.519531 22.191406 -2.457031 21.046875 -1.6875 C 19.910156 -0.914062 18.648438 -0.347656 17.265625 0.015625 C 15.890625 0.390625 14.394531 0.578125 12.78125 0.578125 C 11.40625 0.578125 10.050781 0.4375 8.71875 0.15625 C 7.382812 -0.125 6.269531 -0.472656 5.375 -0.890625 C 4.476562 -1.316406 3.671875 -1.734375 2.953125 -2.140625 C 2.234375 -2.554688 1.707031 -2.90625 1.375 -3.1875 L 0.890625 -3.609375 L 4.484375 -9.671875 C 4.796875 -9.421875 5.21875 -9.09375 5.75 -8.6875 C 6.289062 -8.289062 7.242188 -7.757812 8.609375 -7.09375 C 9.984375 -6.4375 11.195312 -6.109375 12.25 -6.109375 C 15.289062 -6.109375 16.8125 -7.144531 16.8125 -9.21875 C 16.8125 -9.644531 16.703125 -10.046875 16.484375 -10.421875 C 16.265625 -10.796875 15.878906 -11.164062 15.328125 -11.53125 C 14.785156 -11.90625 14.300781 -12.203125 13.875 -12.421875 C 13.457031 -12.640625 12.765625 -12.972656 11.796875 -13.421875 C 10.835938 -13.867188 10.128906 -14.207031 9.671875 -14.4375 C 7.753906 -15.382812 6.269531 -16.566406 5.21875 -17.984375 C 4.164062 -19.398438 3.640625 -20.929688 3.640625 -22.578125 C 3.640625 -25.410156 4.6875 -27.726562 6.78125 -29.53125 C 8.882812 -31.34375 11.28125 -32.25 13.96875 -32.25 Z M 13.96875 -32.25 "/></g></g></g><g fill="#000000" fill-opacity="1"><g transform="translate(93.41701, 702.138168)"><g><path d="M 20.421875 -31.671875 L 20.421875 -25.34375 L 9.515625 -25.34375 L 9.515625 -19.046875 L 19.96875 -19.046875 L 19.96875 -12.703125 L 9.515625 -12.703125 L 9.515625 -6.328125 L 20.421875 -6.328125 L 20.421875 0 L 2.296875 0 L 2.296875 -31.671875 Z M 20.421875 -31.671875 "/></g></g></g><g fill="#000000" fill-opacity="1"><g transform="translate(115.678462, 702.138168)"><g><path d="M 26.640625 -31.671875 L 26.640625 -11.25 C 26.640625 -7.351562 25.585938 -4.40625 23.484375 -2.40625 C 21.390625 -0.414062 18.320312 0.578125 14.28125 0.578125 C 10.238281 0.578125 7.164062 -0.414062 5.0625 -2.40625 C 2.96875 -4.40625 1.921875 -7.351562 1.921875 -11.25 L 1.921875 -31.671875 L 9.140625 -31.671875 L 9.140625 -13.359375 C 9.140625 -10.796875 9.539062 -9.015625 10.34375 -8.015625 C 11.15625 -7.023438 12.46875 -6.53125 14.28125 -6.53125 C 16.09375 -6.53125 17.398438 -7.023438 18.203125 -8.015625 C 19.015625 -9.015625 19.421875 -10.796875 19.421875 -13.359375 L 19.421875 -31.671875 Z M 26.640625 -31.671875 "/></g></g></g><g fill="#000000" fill-opacity="1"><g transform="translate(144.234526, 702.138168)"><g><path d="M 28.484375 0 L 26.984375 -18.765625 L 26.796875 -18.765625 L 20.3125 -0.1875 L 16.015625 -0.1875 L 9.515625 -18.765625 L 9.328125 -18.765625 L 7.828125 0 L 0.609375 0 L 3.453125 -31.671875 L 11.140625 -31.671875 L 18.15625 -13.390625 L 25.1875 -31.671875 L 32.859375 -31.671875 L 35.703125 0 Z M 28.484375 0 "/></g></g></g><g fill="#000000" fill-opacity="1"><g transform="translate(180.543715, 702.138168)"><g/></g></g><g fill="#000000" fill-opacity="1"><g transform="translate(191.021942, 702.138168)"><g><path d="M 20.609375 -31.671875 L 20.609375 -25.34375 L 9.515625 -25.34375 L 9.515625 -19.046875 L 19.765625 -19.046875 L 19.765625 -12.703125 L 9.515625 -12.703125 L 9.515625 0 L 2.296875 0 L 2.296875 -31.671875 Z M 20.609375 -31.671875 "/></g></g></g><g fill="#000000" fill-opacity="1"><g transform="translate(212.784424, 702.138168)"><g><path d="M 0.890625 -15.859375 C 0.890625 -20.441406 2.445312 -24.316406 5.5625 -27.484375 C 8.6875 -30.660156 12.453125 -32.25 16.859375 -32.25 C 21.285156 -32.25 25.046875 -30.664062 28.140625 -27.5 C 31.234375 -24.34375 32.78125 -20.460938 32.78125 -15.859375 C 32.78125 -11.222656 31.257812 -7.320312 28.21875 -4.15625 C 25.175781 -1 21.390625 0.578125 16.859375 0.578125 C 12.222656 0.578125 8.398438 -0.988281 5.390625 -4.125 C 2.390625 -7.257812 0.890625 -11.171875 0.890625 -15.859375 Z M 8.671875 -15.859375 C 8.671875 -14.191406 8.925781 -12.671875 9.4375 -11.296875 C 9.957031 -9.929688 10.851562 -8.773438 12.125 -7.828125 C 13.40625 -6.878906 14.984375 -6.40625 16.859375 -6.40625 C 19.546875 -6.40625 21.570312 -7.328125 22.9375 -9.171875 C 24.3125 -11.015625 25 -13.242188 25 -15.859375 C 25 -18.441406 24.300781 -20.660156 22.90625 -22.515625 C 21.507812 -24.367188 19.492188 -25.296875 16.859375 -25.296875 C 14.242188 -25.296875 12.222656 -24.367188 10.796875 -22.515625 C 9.378906 -20.660156 8.671875 -18.441406 8.671875 -15.859375 Z M 8.671875 -15.859375 "/></g></g></g><g fill="#000000" fill-opacity="1"><g transform="translate(246.445268, 702.138168)"><g><path d="M 2.296875 -31.671875 L 13.625 -31.671875 C 16.675781 -31.671875 19.160156 -30.859375 21.078125 -29.234375 C 22.992188 -27.609375 23.953125 -25.285156 23.953125 -22.265625 C 23.953125 -19.929688 23.367188 -17.976562 22.203125 -16.40625 C 21.046875 -14.832031 19.46875 -13.726562 17.46875 -13.09375 L 28.375 0 L 19.203125 0 L 9.515625 -12.515625 L 9.515625 0 L 2.296875 0 Z M 9.515625 -17.625 L 10.359375 -17.625 C 11.023438 -17.625 11.585938 -17.632812 12.046875 -17.65625 C 12.515625 -17.6875 13.039062 -17.773438 13.625 -17.921875 C 14.21875 -18.078125 14.691406 -18.296875 15.046875 -18.578125 C 15.410156 -18.859375 15.71875 -19.265625 15.96875 -19.796875 C 16.226562 -20.335938 16.359375 -20.992188 16.359375 -21.765625 C 16.359375 -22.535156 16.226562 -23.1875 15.96875 -23.71875 C 15.71875 -24.257812 15.410156 -24.671875 15.046875 -24.953125 C 14.691406 -25.234375 14.21875 -25.453125 13.625 -25.609375 C 13.039062 -25.765625 12.515625 -25.851562 12.046875 -25.875 C 11.585938 -25.894531 11.023438 -25.90625 10.359375 -25.90625 L 9.515625 -25.90625 Z M 9.515625 -17.625 "/></g></g></g><g fill="#000000" fill-opacity="1"><g transform="translate(273.926637, 702.138168)"><g/></g></g><g fill="#000000" fill-opacity="1"><g transform="translate(284.404849, 702.138168)"><g><path d="M 0.3125 -25.34375 L 0.3125 -31.671875 L 22.578125 -31.671875 L 22.578125 -25.34375 L 15.046875 -25.34375 L 15.046875 0 L 7.828125 0 L 7.828125 -25.34375 Z M 0.3125 -25.34375 "/></g></g></g><g fill="#000000" fill-opacity="1"><g transform="translate(307.280391, 702.138168)"><g><path d="M 9.515625 -12.703125 L 9.515625 0 L 2.296875 0 L 2.296875 -31.671875 L 9.515625 -31.671875 L 9.515625 -19.046875 L 19.734375 -19.046875 L 19.734375 -31.671875 L 26.953125 -31.671875 L 26.953125 0 L 19.734375 0 L 19.734375 -12.703125 Z M 9.515625 -12.703125 "/></g></g></g><g fill="#000000" fill-opacity="1"><g transform="translate(336.527348, 702.138168)"><g><path d="M 20.421875 -31.671875 L 20.421875 -25.34375 L 9.515625 -25.34375 L 9.515625 -19.046875 L 19.96875 -19.046875 L 19.96875 -12.703125 L 9.515625 -12.703125 L 9.515625 -6.328125 L 20.421875 -6.328125 L 20.421875 0 L 2.296875 0 L 2.296875 -31.671875 Z M 20.421875 -31.671875 "/></g></g></g><g fill="#000000" fill-opacity="1"><g transform="translate(358.7888, 702.138168)"><g/></g></g><g fill="#000000" fill-opacity="1"><g transform="translate(369.267042, 702.138168)"><g><path d="M 19.15625 -6.53125 C 20.257812 -6.53125 21.328125 -6.695312 22.359375 -7.03125 C 23.398438 -7.363281 24.160156 -7.679688 24.640625 -7.984375 L 25.375 -8.484375 L 28.453125 -2.34375 C 28.347656 -2.269531 28.203125 -2.164062 28.015625 -2.03125 C 27.835938 -1.90625 27.421875 -1.671875 26.765625 -1.328125 C 26.117188 -0.984375 25.425781 -0.679688 24.6875 -0.421875 C 23.945312 -0.160156 22.972656 0.0664062 21.765625 0.265625 C 20.566406 0.472656 19.328125 0.578125 18.046875 0.578125 C 15.097656 0.578125 12.304688 -0.144531 9.671875 -1.59375 C 7.035156 -3.039062 4.910156 -5.03125 3.296875 -7.5625 C 1.691406 -10.09375 0.890625 -12.832031 0.890625 -15.78125 C 0.890625 -18.007812 1.359375 -20.144531 2.296875 -22.1875 C 3.242188 -24.238281 4.503906 -25.992188 6.078125 -27.453125 C 7.660156 -28.910156 9.5 -30.070312 11.59375 -30.9375 C 13.6875 -31.8125 15.835938 -32.25 18.046875 -32.25 C 20.085938 -32.25 21.972656 -32.003906 23.703125 -31.515625 C 25.429688 -31.035156 26.65625 -30.550781 27.375 -30.0625 L 28.453125 -29.328125 L 25.375 -23.1875 C 25.195312 -23.34375 24.925781 -23.53125 24.5625 -23.75 C 24.207031 -23.96875 23.492188 -24.253906 22.421875 -24.609375 C 21.347656 -24.960938 20.257812 -25.140625 19.15625 -25.140625 C 17.414062 -25.140625 15.851562 -24.859375 14.46875 -24.296875 C 13.09375 -23.734375 12 -22.988281 11.1875 -22.0625 C 10.382812 -21.144531 9.769531 -20.15625 9.34375 -19.09375 C 8.925781 -18.03125 8.71875 -16.953125 8.71875 -15.859375 C 8.71875 -13.453125 9.617188 -11.296875 11.421875 -9.390625 C 13.222656 -7.484375 15.800781 -6.53125 19.15625 -6.53125 Z M 19.15625 -6.53125 "/></g></g></g><g fill="#000000" fill-opacity="1"><g transform="translate(398.16856, 702.138168)"><g><path d="M 0.890625 -15.859375 C 0.890625 -20.441406 2.445312 -24.316406 5.5625 -27.484375 C 8.6875 -30.660156 12.453125 -32.25 16.859375 -32.25 C 21.285156 -32.25 25.046875 -30.664062 28.140625 -27.5 C 31.234375 -24.34375 32.78125 -20.460938 32.78125 -15.859375 C 32.78125 -11.222656 31.257812 -7.320312 28.21875 -4.15625 C 25.175781 -1 21.390625 0.578125 16.859375 0.578125 C 12.222656 0.578125 8.398438 -0.988281 5.390625 -4.125 C 2.390625 -7.257812 0.890625 -11.171875 0.890625 -15.859375 Z M 8.671875 -15.859375 C 8.671875 -14.191406 8.925781 -12.671875 9.4375 -11.296875 C 9.957031 -9.929688 10.851562 -8.773438 12.125 -7.828125 C 13.40625 -6.878906 14.984375 -6.40625 16.859375 -6.40625 C 19.546875 -6.40625 21.570312 -7.328125 22.9375 -9.171875 C 24.3125 -11.015625 25 -13.242188 25 -15.859375 C 25 -18.441406 24.300781 -20.660156 22.90625 -22.515625 C 21.507812 -24.367188 19.492188 -25.296875 16.859375 -25.296875 C 14.242188 -25.296875 12.222656 -24.367188 10.796875 -22.515625 C 9.378906 -20.660156 8.671875 -18.441406 8.671875 -15.859375 Z M 8.671875 -15.859375 "/></g></g></g><g fill="#000000" fill-opacity="1"><g transform="translate(431.829405, 702.138168)"><g><path d="M 9.515625 -19.65625 L 9.515625 0 L 2.296875 0 L 2.296875 -31.671875 L 9.515625 -31.671875 L 22.109375 -12.015625 L 22.1875 -12.015625 L 22.1875 -31.671875 L 29.40625 -31.671875 L 29.40625 0 L 22.1875 0 L 9.59375 -19.65625 Z M 9.515625 -19.65625 "/></g></g></g><g fill="#000000" fill-opacity="1"><g transform="translate(463.532782, 702.138168)"><g><path d="M 13.96875 -32.25 C 15.6875 -32.25 17.363281 -32 19 -31.5 C 20.632812 -31 21.851562 -30.503906 22.65625 -30.015625 L 23.796875 -29.25 L 20.890625 -23.5 C 20.648438 -23.644531 20.328125 -23.835938 19.921875 -24.078125 C 19.515625 -24.328125 18.75 -24.65625 17.625 -25.0625 C 16.5 -25.476562 15.445312 -25.6875 14.46875 -25.6875 C 13.269531 -25.6875 12.34375 -25.425781 11.6875 -24.90625 C 11.039062 -24.394531 10.71875 -23.707031 10.71875 -22.84375 C 10.71875 -22.40625 10.867188 -22 11.171875 -21.625 C 11.472656 -21.257812 11.992188 -20.863281 12.734375 -20.4375 C 13.484375 -20.019531 14.140625 -19.679688 14.703125 -19.421875 C 15.265625 -19.171875 16.132812 -18.789062 17.3125 -18.28125 C 19.363281 -17.40625 21.109375 -16.21875 22.546875 -14.71875 C 23.992188 -13.226562 24.71875 -11.535156 24.71875 -9.640625 C 24.71875 -7.816406 24.390625 -6.226562 23.734375 -4.875 C 23.085938 -3.519531 22.191406 -2.457031 21.046875 -1.6875 C 19.910156 -0.914062 18.648438 -0.347656 17.265625 0.015625 C 15.890625 0.390625 14.394531 0.578125 12.78125 0.578125 C 11.40625 0.578125 10.050781 0.4375 8.71875 0.15625 C 7.382812 -0.125 6.269531 -0.472656 5.375 -0.890625 C 4.476562 -1.316406 3.671875 -1.734375 2.953125 -2.140625 C 2.234375 -2.554688 1.707031 -2.90625 1.375 -3.1875 L 0.890625 -3.609375 L 4.484375 -9.671875 C 4.796875 -9.421875 5.21875 -9.09375 5.75 -8.6875 C 6.289062 -8.289062 7.242188 -7.757812 8.609375 -7.09375 C 9.984375 -6.4375 11.195312 -6.109375 12.25 -6.109375 C 15.289062 -6.109375 16.8125 -7.144531 16.8125 -9.21875 C 16.8125 -9.644531 16.703125 -10.046875 16.484375 -10.421875 C 16.265625 -10.796875 15.878906 -11.164062 15.328125 -11.53125 C 14.785156 -11.90625 14.300781 -12.203125 13.875 -12.421875 C 13.457031 -12.640625 12.765625 -12.972656 11.796875 -13.421875 C 10.835938 -13.867188 10.128906 -14.207031 9.671875 -14.4375 C 7.753906 -15.382812 6.269531 -16.566406 5.21875 -17.984375 C 4.164062 -19.398438 3.640625 -20.929688 3.640625 -22.578125 C 3.640625 -25.410156 4.6875 -27.726562 6.78125 -29.53125 C 8.882812 -31.34375 11.28125 -32.25 13.96875 -32.25 Z M 13.96875 -32.25 "/></g></g></g><g fill="#000000" fill-opacity="1"><g transform="translate(489.32535, 702.138168)"><g><path d="M 20.421875 -31.671875 L 20.421875 -25.34375 L 9.515625 -25.34375 L 9.515625 -19.046875 L 19.96875 -19.046875 L 19.96875 -12.703125 L 9.515625 -12.703125 L 9.515625 -6.328125 L 20.421875 -6.328125 L 20.421875 0 L 2.296875 0 L 2.296875 -31.671875 Z M 20.421875 -31.671875 "/></g></g></g><g fill="#000000" fill-opacity="1"><g transform="translate(511.586802, 702.138168)"><g><path d="M 2.296875 -31.671875 L 13.625 -31.671875 C 16.675781 -31.671875 19.160156 -30.859375 21.078125 -29.234375 C 22.992188 -27.609375 23.953125 -25.285156 23.953125 -22.265625 C 23.953125 -19.929688 23.367188 -17.976562 22.203125 -16.40625 C 21.046875 -14.832031 19.46875 -13.726562 17.46875 -13.09375 L 28.375 0 L 19.203125 0 L 9.515625 -12.515625 L 9.515625 0 L 2.296875 0 Z M 9.515625 -17.625 L 10.359375 -17.625 C 11.023438 -17.625 11.585938 -17.632812 12.046875 -17.65625 C 12.515625 -17.6875 13.039062 -17.773438 13.625 -17.921875 C 14.21875 -18.078125 14.691406 -18.296875 15.046875 -18.578125 C 15.410156 -18.859375 15.71875 -19.265625 15.96875 -19.796875 C 16.226562 -20.335938 16.359375 -20.992188 16.359375 -21.765625 C 16.359375 -22.535156 16.226562 -23.1875 15.96875 -23.71875 C 15.71875 -24.257812 15.410156 -24.671875 15.046875 -24.953125 C 14.691406 -25.234375 14.21875 -25.453125 13.625 -25.609375 C 13.039062 -25.765625 12.515625 -25.851562 12.046875 -25.875 C 11.585938 -25.894531 11.023438 -25.90625 10.359375 -25.90625 L 9.515625 -25.90625 Z M 9.515625 -17.625 "/></g></g></g><g fill="#000000" fill-opacity="1"><g transform="translate(539.068186, 702.138168)"><g><path d="M 12.203125 0 L -1.078125 -31.671875 L 7.0625 -31.671875 L 15.046875 -10.859375 L 23.03125 -31.671875 L 31.171875 -31.671875 L 17.890625 0 Z M 12.203125 0 "/></g></g></g><g fill="#000000" fill-opacity="1"><g transform="translate(569.159535, 702.138168)"><g><path d="M 18.390625 -31.671875 L 31.171875 0 L 23.421875 0 L 21.078125 -6.328125 L 9.015625 -6.328125 L 6.6875 0 L -1.078125 0 L 11.703125 -31.671875 Z M 18.625 -12.671875 L 15.09375 -21.875 L 15.015625 -21.875 L 11.484375 -12.671875 Z M 18.625 -12.671875 "/></g></g></g><g fill="#000000" fill-opacity="1"><g transform="translate(599.250884, 702.138168)"><g><path d="M 0.3125 -25.34375 L 0.3125 -31.671875 L 22.578125 -31.671875 L 22.578125 -25.34375 L 15.046875 -25.34375 L 15.046875 0 L 7.828125 0 L 7.828125 -25.34375 Z M 0.3125 -25.34375 "/></g></g></g><g fill="#000000" fill-opacity="1"><g transform="translate(622.126426, 702.138168)"><g><path d="M 9.515625 -31.671875 L 9.515625 0 L 2.296875 0 L 2.296875 -31.671875 Z M 9.515625 -31.671875 "/></g></g></g><g fill="#000000" fill-opacity="1"><g transform="translate(633.948045, 702.138168)"><g><path d="M 0.890625 -15.859375 C 0.890625 -20.441406 2.445312 -24.316406 5.5625 -27.484375 C 8.6875 -30.660156 12.453125 -32.25 16.859375 -32.25 C 21.285156 -32.25 25.046875 -30.664062 28.140625 -27.5 C 31.234375 -24.34375 32.78125 -20.460938 32.78125 -15.859375 C 32.78125 -11.222656 31.257812 -7.320312 28.21875 -4.15625 C 25.175781 -1 21.390625 0.578125 16.859375 0.578125 C 12.222656 0.578125 8.398438 -0.988281 5.390625 -4.125 C 2.390625 -7.257812 0.890625 -11.171875 0.890625 -15.859375 Z M 8.671875 -15.859375 C 8.671875 -14.191406 8.925781 -12.671875 9.4375 -11.296875 C 9.957031 -9.929688 10.851562 -8.773438 12.125 -7.828125 C 13.40625 -6.878906 14.984375 -6.40625 16.859375 -6.40625 C 19.546875 -6.40625 21.570312 -7.328125 22.9375 -9.171875 C 24.3125 -11.015625 25 -13.242188 25 -15.859375 C 25 -18.441406 24.300781 -20.660156 22.90625 -22.515625 C 21.507812 -24.367188 19.492188 -25.296875 16.859375 -25.296875 C 14.242188 -25.296875 12.222656 -24.367188 10.796875 -22.515625 C 9.378906 -20.660156 8.671875 -18.441406 8.671875 -15.859375 Z M 8.671875 -15.859375 "/></g></g></g><g fill="#000000" fill-opacity="1"><g transform="translate(667.60889, 702.138168)"><g><path d="M 9.515625 -19.65625 L 9.515625 0 L 2.296875 0 L 2.296875 -31.671875 L 9.515625 -31.671875 L 22.109375 -12.015625 L 22.1875 -12.015625 L 22.1875 -31.671875 L 29.40625 -31.671875 L 29.40625 0 L 22.1875 0 L 9.59375 -19.65625 Z M 9.515625 -19.65625 "/></g></g></g><g fill="#000000" fill-opacity="1"><g transform="translate(699.312267, 702.138168)"><g/></g></g><g fill="#000000" fill-opacity="1"><g transform="translate(709.790479, 702.138168)"><g><path d="M 0.890625 -15.859375 C 0.890625 -20.441406 2.445312 -24.316406 5.5625 -27.484375 C 8.6875 -30.660156 12.453125 -32.25 16.859375 -32.25 C 21.285156 -32.25 25.046875 -30.664062 28.140625 -27.5 C 31.234375 -24.34375 32.78125 -20.460938 32.78125 -15.859375 C 32.78125 -11.222656 31.257812 -7.320312 28.21875 -4.15625 C 25.175781 -1 21.390625 0.578125 16.859375 0.578125 C 12.222656 0.578125 8.398438 -0.988281 5.390625 -4.125 C 2.390625 -7.257812 0.890625 -11.171875 0.890625 -15.859375 Z M 8.671875 -15.859375 C 8.671875 -14.191406 8.925781 -12.671875 9.4375 -11.296875 C 9.957031 -9.929688 10.851562 -8.773438 12.125 -7.828125 C 13.40625 -6.878906 14.984375 -6.40625 16.859375 -6.40625 C 19.546875 -6.40625 21.570312 -7.328125 22.9375 -9.171875 C 24.3125 -11.015625 25 -13.242188 25 -15.859375 C 25 -18.441406 24.300781 -20.660156 22.90625 -22.515625 C 21.507812 -24.367188 19.492188 -25.296875 16.859375 -25.296875 C 14.242188 -25.296875 12.222656 -24.367188 10.796875 -22.515625 C 9.378906 -20.660156 8.671875 -18.441406 8.671875 -15.859375 Z M 8.671875 -15.859375 "/></g></g></g><g fill="#000000" fill-opacity="1"><g transform="translate(743.451323, 702.138168)"><g><path d="M 20.609375 -31.671875 L 20.609375 -25.34375 L 9.515625 -25.34375 L 9.515625 -19.046875 L 19.765625 -19.046875 L 19.765625 -12.703125 L 9.515625 -12.703125 L 9.515625 0 L 2.296875 0 L 2.296875 -31.671875 Z M 20.609375 -31.671875 "/></g></g></g><g fill="#000000" fill-opacity="1"><g transform="translate(62.969099, 754.911313)"><g><path d="M 9.515625 -12.703125 L 9.515625 0 L 2.296875 0 L 2.296875 -31.671875 L 9.515625 -31.671875 L 9.515625 -19.046875 L 19.734375 -19.046875 L 19.734375 -31.671875 L 26.953125 -31.671875 L 26.953125 0 L 19.734375 0 L 19.734375 -12.703125 Z M 9.515625 -12.703125 "/></g></g></g><g fill="#000000" fill-opacity="1"><g transform="translate(92.216041, 754.911313)"><g><path d="M 26.640625 -31.671875 L 26.640625 -11.25 C 26.640625 -7.351562 25.585938 -4.40625 23.484375 -2.40625 C 21.390625 -0.414062 18.320312 0.578125 14.28125 0.578125 C 10.238281 0.578125 7.164062 -0.414062 5.0625 -2.40625 C 2.96875 -4.40625 1.921875 -7.351562 1.921875 -11.25 L 1.921875 -31.671875 L 9.140625 -31.671875 L 9.140625 -13.359375 C 9.140625 -10.796875 9.539062 -9.015625 10.34375 -8.015625 C 11.15625 -7.023438 12.46875 -6.53125 14.28125 -6.53125 C 16.09375 -6.53125 17.398438 -7.023438 18.203125 -8.015625 C 19.015625 -9.015625 19.421875 -10.796875 19.421875 -13.359375 L 19.421875 -31.671875 Z M 26.640625 -31.671875 "/></g></g></g><g fill="#000000" fill-opacity="1"><g transform="translate(120.772105, 754.911313)"><g><path d="M 28.484375 0 L 26.984375 -18.765625 L 26.796875 -18.765625 L 20.3125 -0.1875 L 16.015625 -0.1875 L 9.515625 -18.765625 L 9.328125 -18.765625 L 7.828125 0 L 0.609375 0 L 3.453125 -31.671875 L 11.140625 -31.671875 L 18.15625 -13.390625 L 25.1875 -31.671875 L 32.859375 -31.671875 L 35.703125 0 Z M 28.484375 0 "/></g></g></g><g fill="#000000" fill-opacity="1"><g transform="translate(157.081293, 754.911313)"><g><path d="M 18.390625 -31.671875 L 31.171875 0 L 23.421875 0 L 21.078125 -6.328125 L 9.015625 -6.328125 L 6.6875 0 L -1.078125 0 L 11.703125 -31.671875 Z M 18.625 -12.671875 L 15.09375 -21.875 L 15.015625 -21.875 L 11.484375 -12.671875 Z M 18.625 -12.671875 "/></g></g></g><g fill="#000000" fill-opacity="1"><g transform="translate(187.172628, 754.911313)"><g><path d="M 9.515625 -19.65625 L 9.515625 0 L 2.296875 0 L 2.296875 -31.671875 L 9.515625 -31.671875 L 22.109375 -12.015625 L 22.1875 -12.015625 L 22.1875 -31.671875 L 29.40625 -31.671875 L 29.40625 0 L 22.1875 0 L 9.59375 -19.65625 Z M 9.515625 -19.65625 "/></g></g></g><g fill="#000000" fill-opacity="1"><g transform="translate(218.876006, 754.911313)"><g/></g></g><g fill="#000000" fill-opacity="1"><g transform="translate(229.354233, 754.911313)"><g><path d="M 28.484375 0 L 26.984375 -18.765625 L 26.796875 -18.765625 L 20.3125 -0.1875 L 16.015625 -0.1875 L 9.515625 -18.765625 L 9.328125 -18.765625 L 7.828125 0 L 0.609375 0 L 3.453125 -31.671875 L 11.140625 -31.671875 L 18.15625 -13.390625 L 25.1875 -31.671875 L 32.859375 -31.671875 L 35.703125 0 Z M 28.484375 0 "/></g></g></g><g fill="#000000" fill-opacity="1"><g transform="translate(265.663421, 754.911313)"><g><path d="M 20.421875 -31.671875 L 20.421875 -25.34375 L 9.515625 -25.34375 L 9.515625 -19.046875 L 19.96875 -19.046875 L 19.96875 -12.703125 L 9.515625 -12.703125 L 9.515625 -6.328125 L 20.421875 -6.328125 L 20.421875 0 L 2.296875 0 L 2.296875 -31.671875 Z M 20.421875 -31.671875 "/></g></g></g><g fill="#000000" fill-opacity="1"><g transform="translate(287.924873, 754.911313)"><g><path d="M 28.484375 0 L 26.984375 -18.765625 L 26.796875 -18.765625 L 20.3125 -0.1875 L 16.015625 -0.1875 L 9.515625 -18.765625 L 9.328125 -18.765625 L 7.828125 0 L 0.609375 0 L 3.453125 -31.671875 L 11.140625 -31.671875 L 18.15625 -13.390625 L 25.1875 -31.671875 L 32.859375 -31.671875 L 35.703125 0 Z M 28.484375 0 "/></g></g></g><g fill="#000000" fill-opacity="1"><g transform="translate(324.234062, 754.911313)"><g><path d="M 0.890625 -15.859375 C 0.890625 -20.441406 2.445312 -24.316406 5.5625 -27.484375 C 8.6875 -30.660156 12.453125 -32.25 16.859375 -32.25 C 21.285156 -32.25 25.046875 -30.664062 28.140625 -27.5 C 31.234375 -24.34375 32.78125 -20.460938 32.78125 -15.859375 C 32.78125 -11.222656 31.257812 -7.320312 28.21875 -4.15625 C 25.175781 -1 21.390625 0.578125 16.859375 0.578125 C 12.222656 0.578125 8.398438 -0.988281 5.390625 -4.125 C 2.390625 -7.257812 0.890625 -11.171875 0.890625 -15.859375 Z M 8.671875 -15.859375 C 8.671875 -14.191406 8.925781 -12.671875 9.4375 -11.296875 C 9.957031 -9.929688 10.851562 -8.773438 12.125 -7.828125 C 13.40625 -6.878906 14.984375 -6.40625 16.859375 -6.40625 C 19.546875 -6.40625 21.570312 -7.328125 22.9375 -9.171875 C 24.3125 -11.015625 25 -13.242188 25 -15.859375 C 25 -18.441406 24.300781 -20.660156 22.90625 -22.515625 C 21.507812 -24.367188 19.492188 -25.296875 16.859375 -25.296875 C 14.242188 -25.296875 12.222656 -24.367188 10.796875 -22.515625 C 9.378906 -20.660156 8.671875 -18.441406 8.671875 -15.859375 Z M 8.671875 -15.859375 "/></g></g></g><g fill="#000000" fill-opacity="1"><g transform="translate(357.894906, 754.911313)"><g><path d="M 2.296875 -31.671875 L 13.625 -31.671875 C 16.675781 -31.671875 19.160156 -30.859375 21.078125 -29.234375 C 22.992188 -27.609375 23.953125 -25.285156 23.953125 -22.265625 C 23.953125 -19.929688 23.367188 -17.976562 22.203125 -16.40625 C 21.046875 -14.832031 19.46875 -13.726562 17.46875 -13.09375 L 28.375 0 L 19.203125 0 L 9.515625 -12.515625 L 9.515625 0 L 2.296875 0 Z M 9.515625 -17.625 L 10.359375 -17.625 C 11.023438 -17.625 11.585938 -17.632812 12.046875 -17.65625 C 12.515625 -17.6875 13.039062 -17.773438 13.625 -17.921875 C 14.21875 -18.078125 14.691406 -18.296875 15.046875 -18.578125 C 15.410156 -18.859375 15.71875 -19.265625 15.96875 -19.796875 C 16.226562 -20.335938 16.359375 -20.992188 16.359375 -21.765625 C 16.359375 -22.535156 16.226562 -23.1875 15.96875 -23.71875 C 15.71875 -24.257812 15.410156 -24.671875 15.046875 -24.953125 C 14.691406 -25.234375 14.21875 -25.453125 13.625 -25.609375 C 13.039062 -25.765625 12.515625 -25.851562 12.046875 -25.875 C 11.585938 -25.894531 11.023438 -25.90625 10.359375 -25.90625 L 9.515625 -25.90625 Z M 9.515625 -17.625 "/></g></g></g><g fill="#000000" fill-opacity="1"><g transform="translate(385.376259, 754.911313)"><g><path d="M -1.15625 -31.671875 L 7.53125 -31.671875 L 14.125 -21.53125 L 20.734375 -31.671875 L 29.40625 -31.671875 L 17.734375 -14.203125 L 17.734375 0 L 10.515625 0 L 10.515625 -14.203125 Z M -1.15625 -31.671875 "/></g></g></g><g fill="#000000" fill-opacity="1"><g transform="translate(413.625278, 754.911313)"><g/></g></g><g fill="#000000" fill-opacity="1"><g transform="translate(424.10352, 754.911313)"><g><path d="M 18.390625 -31.671875 L 31.171875 0 L 23.421875 0 L 21.078125 -6.328125 L 9.015625 -6.328125 L 6.6875 0 L -1.078125 0 L 11.703125 -31.671875 Z M 18.625 -12.671875 L 15.09375 -21.875 L 15.015625 -21.875 L 11.484375 -12.671875 Z M 18.625 -12.671875 "/></g></g></g><g fill="#000000" fill-opacity="1"><g transform="translate(454.19487, 754.911313)"><g><path d="M 9.515625 -19.65625 L 9.515625 0 L 2.296875 0 L 2.296875 -31.671875 L 9.515625 -31.671875 L 22.109375 -12.015625 L 22.1875 -12.015625 L 22.1875 -31.671875 L 29.40625 -31.671875 L 29.40625 0 L 22.1875 0 L 9.59375 -19.65625 Z M 9.515625 -19.65625 "/></g></g></g><g fill="#000000" fill-opacity="1"><g transform="translate(485.898248, 754.911313)"><g><path d="M 2.296875 -31.671875 L 11.484375 -31.671875 C 15.878906 -31.671875 19.640625 -30.164062 22.765625 -27.15625 C 25.890625 -24.15625 27.453125 -20.390625 27.453125 -15.859375 C 27.453125 -11.296875 25.894531 -7.507812 22.78125 -4.5 C 19.675781 -1.5 15.910156 0 11.484375 0 L 2.296875 0 Z M 9.515625 -6.453125 L 10.640625 -6.453125 C 13.273438 -6.453125 15.429688 -7.335938 17.109375 -9.109375 C 18.785156 -10.890625 19.632812 -13.125 19.65625 -15.8125 C 19.65625 -18.5 18.816406 -20.738281 17.140625 -22.53125 C 15.460938 -24.320312 13.296875 -25.21875 10.640625 -25.21875 L 9.515625 -25.21875 Z M 9.515625 -6.453125 "/></g></g></g><g fill="#000000" fill-opacity="1"><g transform="translate(514.224024, 754.911313)"><g/></g></g><g fill="#000000" fill-opacity="1"><g transform="translate(524.702266, 754.911313)"><g><path d="M 19.15625 -6.53125 C 20.257812 -6.53125 21.328125 -6.695312 22.359375 -7.03125 C 23.398438 -7.363281 24.160156 -7.679688 24.640625 -7.984375 L 25.375 -8.484375 L 28.453125 -2.34375 C 28.347656 -2.269531 28.203125 -2.164062 28.015625 -2.03125 C 27.835938 -1.90625 27.421875 -1.671875 26.765625 -1.328125 C 26.117188 -0.984375 25.425781 -0.679688 24.6875 -0.421875 C 23.945312 -0.160156 22.972656 0.0664062 21.765625 0.265625 C 20.566406 0.472656 19.328125 0.578125 18.046875 0.578125 C 15.097656 0.578125 12.304688 -0.144531 9.671875 -1.59375 C 7.035156 -3.039062 4.910156 -5.03125 3.296875 -7.5625 C 1.691406 -10.09375 0.890625 -12.832031 0.890625 -15.78125 C 0.890625 -18.007812 1.359375 -20.144531 2.296875 -22.1875 C 3.242188 -24.238281 4.503906 -25.992188 6.078125 -27.453125 C 7.660156 -28.910156 9.5 -30.070312 11.59375 -30.9375 C 13.6875 -31.8125 15.835938 -32.25 18.046875 -32.25 C 20.085938 -32.25 21.972656 -32.003906 23.703125 -31.515625 C 25.429688 -31.035156 26.65625 -30.550781 27.375 -30.0625 L 28.453125 -29.328125 L 25.375 -23.1875 C 25.195312 -23.34375 24.925781 -23.53125 24.5625 -23.75 C 24.207031 -23.96875 23.492188 -24.253906 22.421875 -24.609375 C 21.347656 -24.960938 20.257812 -25.140625 19.15625 -25.140625 C 17.414062 -25.140625 15.851562 -24.859375 14.46875 -24.296875 C 13.09375 -23.734375 12 -22.988281 11.1875 -22.0625 C 10.382812 -21.144531 9.769531 -20.15625 9.34375 -19.09375 C 8.925781 -18.03125 8.71875 -16.953125 8.71875 -15.859375 C 8.71875 -13.453125 9.617188 -11.296875 11.421875 -9.390625 C 13.222656 -7.484375 15.800781 -6.53125 19.15625 -6.53125 Z M 19.15625 -6.53125 "/></g></g></g><g fill="#000000" fill-opacity="1"><g transform="translate(553.603784, 754.911313)"><g><path d="M 26.640625 -31.671875 L 26.640625 -11.25 C 26.640625 -7.351562 25.585938 -4.40625 23.484375 -2.40625 C 21.390625 -0.414062 18.320312 0.578125 14.28125 0.578125 C 10.238281 0.578125 7.164062 -0.414062 5.0625 -2.40625 C 2.96875 -4.40625 1.921875 -7.351562 1.921875 -11.25 L 1.921875 -31.671875 L 9.140625 -31.671875 L 9.140625 -13.359375 C 9.140625 -10.796875 9.539062 -9.015625 10.34375 -8.015625 C 11.15625 -7.023438 12.46875 -6.53125 14.28125 -6.53125 C 16.09375 -6.53125 17.398438 -7.023438 18.203125 -8.015625 C 19.015625 -9.015625 19.421875 -10.796875 19.421875 -13.359375 L 19.421875 -31.671875 Z M 26.640625 -31.671875 "/></g></g></g><g fill="#000000" fill-opacity="1"><g transform="translate(582.159863, 754.911313)"><g><path d="M 9.515625 -31.671875 L 9.515625 -6.328125 L 20.421875 -6.328125 L 20.421875 0 L 2.296875 0 L 2.296875 -31.671875 Z M 9.515625 -31.671875 "/></g></g></g><g fill="#000000" fill-opacity="1"><g transform="translate(603.845574, 754.911313)"><g><path d="M 0.3125 -25.34375 L 0.3125 -31.671875 L 22.578125 -31.671875 L 22.578125 -25.34375 L 15.046875 -25.34375 L 15.046875 0 L 7.828125 0 L 7.828125 -25.34375 Z M 0.3125 -25.34375 "/></g></g></g><g fill="#000000" fill-opacity="1"><g transform="translate(626.721116, 754.911313)"><g><path d="M 26.640625 -31.671875 L 26.640625 -11.25 C 26.640625 -7.351562 25.585938 -4.40625 23.484375 -2.40625 C 21.390625 -0.414062 18.320312 0.578125 14.28125 0.578125 C 10.238281 0.578125 7.164062 -0.414062 5.0625 -2.40625 C 2.96875 -4.40625 1.921875 -7.351562 1.921875 -11.25 L 1.921875 -31.671875 L 9.140625 -31.671875 L 9.140625 -13.359375 C 9.140625 -10.796875 9.539062 -9.015625 10.34375 -8.015625 C 11.15625 -7.023438 12.46875 -6.53125 14.28125 -6.53125 C 16.09375 -6.53125 17.398438 -7.023438 18.203125 -8.015625 C 19.015625 -9.015625 19.421875 -10.796875 19.421875 -13.359375 L 19.421875 -31.671875 Z M 26.640625 -31.671875 "/></g></g></g><g fill="#000000" fill-opacity="1"><g transform="translate(655.277195, 754.911313)"><g><path d="M 2.296875 -31.671875 L 13.625 -31.671875 C 16.675781 -31.671875 19.160156 -30.859375 21.078125 -29.234375 C 22.992188 -27.609375 23.953125 -25.285156 23.953125 -22.265625 C 23.953125 -19.929688 23.367188 -17.976562 22.203125 -16.40625 C 21.046875 -14.832031 19.46875 -13.726562 17.46875 -13.09375 L 28.375 0 L 19.203125 0 L 9.515625 -12.515625 L 9.515625 0 L 2.296875 0 Z M 9.515625 -17.625 L 10.359375 -17.625 C 11.023438 -17.625 11.585938 -17.632812 12.046875 -17.65625 C 12.515625 -17.6875 13.039062 -17.773438 13.625 -17.921875 C 14.21875 -18.078125 14.691406 -18.296875 15.046875 -18.578125 C 15.410156 -18.859375 15.71875 -19.265625 15.96875 -19.796875 C 16.226562 -20.335938 16.359375 -20.992188 16.359375 -21.765625 C 16.359375 -22.535156 16.226562 -23.1875 15.96875 -23.71875 C 15.71875 -24.257812 15.410156 -24.671875 15.046875 -24.953125 C 14.691406 -25.234375 14.21875 -25.453125 13.625 -25.609375 C 13.039062 -25.765625 12.515625 -25.851562 12.046875 -25.875 C 11.585938 -25.894531 11.023438 -25.90625 10.359375 -25.90625 L 9.515625 -25.90625 Z M 9.515625 -17.625 "/></g></g></g><g fill="#000000" fill-opacity="1"><g transform="translate(682.758548, 754.911313)"><g><path d="M 20.421875 -31.671875 L 20.421875 -25.34375 L 9.515625 -25.34375 L 9.515625 -19.046875 L 19.96875 -19.046875 L 19.96875 -12.703125 L 9.515625 -12.703125 L 9.515625 -6.328125 L 20.421875 -6.328125 L 20.421875 0 L 2.296875 0 L 2.296875 -31.671875 Z M 20.421875 -31.671875 "/></g></g></g></svg>